<?xml version="1.0" encoding="utf-8"?>
<!-- Generator: Adobe Illustrator 25.2.0, SVG Export Plug-In . SVG Version: 6.00 Build 0)  -->
<svg version="1.1" id="Layer_1" xmlns="http://www.w3.org/2000/svg" xmlns:xlink="http://www.w3.org/1999/xlink" x="0px" y="0px"
	 viewBox="0 0 1920 1080" style="enable-background:new 0 0 1920 1080;" xml:space="preserve">
<style type="text/css">
	.st0{fill:#FF0000;}
	.st1{fill:#FFFFFF;}
	.st2{fill:#00FF1E;}
	.st3{fill:#00FFE6;}
	.st4{fill:#FCFC00;}
</style>
<rect x="111" y="56" class="st0" width="374" height="151"/>
<path d="M410.1,244.2c0-4.5-3.5-8.1-7.8-8.1H192.7c-4.3,0-7.8,3.7-7.8,8.1l0,0.3l-8,59.9h241.3l-8.1-60L410.1,244.2z"/>
<path d="M480.6,42.9H115.4c-9.6,0-17.4,8.5-17.4,18.8v223.8c0,10.4,7.8,18.8,17.4,18.8h57.8l7.8-60.3c0.1-6.4,4.9-11.6,10.9-11.6
	h212.3c5.9,0,10.8,5.2,10.9,11.6l7.8,60.3h57.8c9.6,0,17.4-8.5,17.4-18.8V61.8C498,51.4,490.2,42.9,480.6,42.9L480.6,42.9z
	 M485,195.9c0,6-4.5,10.8-10,10.8l-353.9,0c-5.5,0-10-4.9-10-10.8V67.2c0-6,4.5-10.8,10-10.8H475c5.5,0,10,4.9,10,10.8V195.9z"/>
<path d="M398.8,130.2H197.2c-2.3,0-4.2,2-4.2,4.5v53.6c0,2.5,1.9,4.5,4.2,4.5h201.6c2.3,0,4.2-2,4.2-4.5v-53.6
	C403,132.3,401.1,130.2,398.8,130.2L398.8,130.2z M223.2,186.8c-12.9,0-23.3-11.3-23.3-25.3s10.4-25.3,23.3-25.3
	s23.3,11.3,23.3,25.3C246.6,175.5,236.1,186.8,223.2,186.8z M374.2,186.8c-12.9,0-23.3-11.3-23.3-25.3s10.4-25.3,23.3-25.3
	s23.3,11.3,23.3,25.3C397.5,175.5,387.1,186.8,374.2,186.8z"/>
<path class="st1" d="M223.8,187L223.8,187c-13.9,0-25.3-11.3-25.3-25.3v-0.5c0-13.9,11.3-25.3,25.3-25.3h0
	c13.9,0,25.3,11.3,25.3,25.3v0.5C249,175.7,237.7,187,223.8,187z"/>
<rect x="717.7" y="56.4" class="st0" width="374" height="151"/>
<path d="M1016.8,244.6c0-4.5-3.5-8.1-7.8-8.1H799.4c-4.3,0-7.8,3.7-7.8,8.1l0,0.3l-8,59.9h241.3l-8.1-60L1016.8,244.6z"/>
<path d="M1087.3,43.3H722.1c-9.6,0-17.4,8.5-17.4,18.8v223.8c0,10.4,7.8,18.8,17.4,18.8h57.8l7.8-60.3c0.1-6.4,4.9-11.6,10.9-11.6
	h212.3c5.9,0,10.8,5.2,10.9,11.6l7.8,60.3h57.8c9.6,0,17.4-8.5,17.4-18.8V62.2C1104.7,51.8,1096.9,43.3,1087.3,43.3L1087.3,43.3z
	 M1091.7,196.3c0,6-4.5,10.8-10,10.8l-353.9,0c-5.5,0-10-4.9-10-10.8V67.6c0-6,4.5-10.8,10-10.8h353.9c5.5,0,10,4.9,10,10.8V196.3z"
	/>
<path d="M1005.5,130.6H803.9c-2.3,0-4.2,2-4.2,4.5v53.6c0,2.5,1.9,4.5,4.2,4.5h201.6c2.3,0,4.2-2,4.2-4.5v-53.6
	C1009.7,132.7,1007.8,130.6,1005.5,130.6L1005.5,130.6z M829.9,187.2c-12.9,0-23.3-11.3-23.3-25.3s10.4-25.3,23.3-25.3
	s23.3,11.3,23.3,25.3C853.3,175.9,842.8,187.2,829.9,187.2z M980.9,187.2c-12.9,0-23.3-11.3-23.3-25.3s10.4-25.3,23.3-25.3
	s23.3,11.3,23.3,25.3C1004.3,175.9,993.8,187.2,980.9,187.2z"/>
<path class="st1" d="M835.9,186.4h-7.4c-11.5,0-20.8-9.3-20.8-20.8v-7.4c0-11.5,9.3-20.8,20.8-20.8h7.4c11.5,0,20.8,9.3,20.8,20.8
	v7.4C856.7,177.1,847.4,186.4,835.9,186.4z"/>
<path class="st1" d="M983.9,186.4h-7.4c-11.5,0-20.8-9.3-20.8-20.8v-7.4c0-11.5,9.3-20.8,20.8-20.8h7.4c11.5,0,20.8,9.3,20.8,20.8
	v7.4C1004.7,177.1,995.4,186.4,983.9,186.4z"/>
<rect x="717.7" y="56.4" class="st0" width="374" height="151"/>
<path d="M1016.8,244.6c0-4.5-3.5-8.1-7.8-8.1H799.4c-4.3,0-7.8,3.7-7.8,8.1l0,0.3l-8,59.9h241.3l-8.1-60L1016.8,244.6z"/>
<path d="M1087.3,43.3H722.1c-9.6,0-17.4,8.5-17.4,18.8v223.8c0,10.4,7.8,18.8,17.4,18.8h57.8l7.8-60.3c0.1-6.4,4.9-11.6,10.9-11.6
	h212.3c5.9,0,10.8,5.2,10.9,11.6l7.8,60.3h57.8c9.6,0,17.4-8.5,17.4-18.8V62.2C1104.7,51.8,1096.9,43.3,1087.3,43.3L1087.3,43.3z
	 M1091.7,196.3c0,6-4.5,10.8-10,10.8l-353.9,0c-5.5,0-10-4.9-10-10.8V67.6c0-6,4.5-10.8,10-10.8h353.9c5.5,0,10,4.9,10,10.8V196.3z"
	/>
<path d="M1005.5,130.6H803.9c-2.3,0-4.2,2-4.2,4.5v53.6c0,2.5,1.9,4.5,4.2,4.5h201.6c2.3,0,4.2-2,4.2-4.5v-53.6
	C1009.7,132.7,1007.8,130.6,1005.5,130.6L1005.5,130.6z M829.9,187.2c-12.9,0-23.3-11.3-23.3-25.3s10.4-25.3,23.3-25.3
	s23.3,11.3,23.3,25.3C853.3,175.9,842.8,187.2,829.9,187.2z M980.9,187.2c-12.9,0-23.3-11.3-23.3-25.3s10.4-25.3,23.3-25.3
	s23.3,11.3,23.3,25.3C1004.3,175.9,993.8,187.2,980.9,187.2z"/>
<path class="st1" d="M835.9,186.4h-7.4c-11.5,0-20.8-9.3-20.8-20.8v-7.4c0-11.5,9.3-20.8,20.8-20.8h7.4c11.5,0,20.8,9.3,20.8,20.8
	v7.4C856.7,177.1,847.4,186.4,835.9,186.4z"/>
<path class="st1" d="M983.9,186.4h-7.4c-11.5,0-20.8-9.3-20.8-20.8v-7.4c0-11.5,9.3-20.8,20.8-20.8h7.4c11.5,0,20.8,9.3,20.8,20.8
	v7.4C1004.7,177.1,995.4,186.4,983.9,186.4z"/>
<rect x="110.7" y="518.4" class="st2" width="374" height="151"/>
<path d="M409.8,706.6c0-4.5-3.5-8.1-7.8-8.1H192.4c-4.3,0-7.8,3.7-7.8,8.1l0,0.3l-8,59.9h241.3l-8.1-60L409.8,706.6z"/>
<path d="M480.3,505.3H115.1c-9.6,0-17.4,8.5-17.4,18.8v223.8c0,10.4,7.8,18.8,17.4,18.8h57.8l7.8-60.3c0.1-6.4,4.9-11.6,10.9-11.6
	h212.3c5.9,0,10.8,5.2,10.9,11.6l7.8,60.3h57.8c9.6,0,17.4-8.5,17.4-18.8V524.2C497.7,513.8,489.9,505.3,480.3,505.3L480.3,505.3z
	 M484.7,658.3c0,6-4.5,10.8-10,10.8l-353.9,0c-5.5,0-10-4.9-10-10.8V529.6c0-6,4.5-10.8,10-10.8h353.9c5.5,0,10,4.9,10,10.8V658.3z"
	/>
<path d="M398.5,592.6H196.9c-2.3,0-4.2,2-4.2,4.5v53.6c0,2.5,1.9,4.5,4.2,4.5h201.6c2.3,0,4.2-2,4.2-4.5v-53.6
	C402.7,594.7,400.8,592.6,398.5,592.6L398.5,592.6z M222.9,649.2c-12.9,0-23.3-11.3-23.3-25.3c0-14,10.4-25.3,23.3-25.3
	s23.3,11.3,23.3,25.3C246.3,637.9,235.8,649.2,222.9,649.2z M373.9,649.2c-12.9,0-23.3-11.3-23.3-25.3c0-14,10.4-25.3,23.3-25.3
	s23.3,11.3,23.3,25.3C397.3,637.9,386.8,649.2,373.9,649.2z"/>
<rect x="717.7" y="56.4" class="st3" width="374" height="151"/>
<path d="M1016.8,244.6c0-4.5-3.5-8.1-7.8-8.1H799.4c-4.3,0-7.8,3.7-7.8,8.1l0,0.3l-8,59.9h241.3l-8.1-60L1016.8,244.6z"/>
<path d="M1087.3,43.3H722.1c-9.6,0-17.4,8.5-17.4,18.8v223.8c0,10.4,7.8,18.8,17.4,18.8h57.8l7.8-60.3c0.1-6.4,4.9-11.6,10.9-11.6
	h212.3c5.9,0,10.8,5.2,10.9,11.6l7.8,60.3h57.8c9.6,0,17.4-8.5,17.4-18.8V62.2C1104.7,51.8,1096.9,43.3,1087.3,43.3L1087.3,43.3z
	 M1091.7,196.3c0,6-4.5,10.8-10,10.8l-353.9,0c-5.5,0-10-4.9-10-10.8V67.6c0-6,4.5-10.8,10-10.8h353.9c5.5,0,10,4.9,10,10.8V196.3z"
	/>
<path d="M1005.5,130.6H803.9c-2.3,0-4.2,2-4.2,4.5v53.6c0,2.5,1.9,4.5,4.2,4.5h201.6c2.3,0,4.2-2,4.2-4.5v-53.6
	C1009.7,132.7,1007.8,130.6,1005.5,130.6L1005.5,130.6z M829.9,187.2c-12.9,0-23.3-11.3-23.3-25.3s10.4-25.3,23.3-25.3
	s23.3,11.3,23.3,25.3C853.3,175.9,842.8,187.2,829.9,187.2z M980.9,187.2c-12.9,0-23.3-11.3-23.3-25.3s10.4-25.3,23.3-25.3
	s23.3,11.3,23.3,25.3C1004.3,175.9,993.8,187.2,980.9,187.2z"/>
<rect x="717.7" y="518.4" class="st4" width="374" height="151"/>
<path d="M1016.8,706.6c0-4.5-3.5-8.1-7.8-8.1H799.4c-4.3,0-7.8,3.7-7.8,8.1l0,0.3l-8,59.9h241.3l-8.1-60L1016.8,706.6z"/>
<path d="M1087.3,505.3H722.1c-9.6,0-17.4,8.5-17.4,18.8v223.8c0,10.4,7.8,18.8,17.4,18.8h57.8l7.8-60.3c0.1-6.4,4.9-11.6,10.9-11.6
	h212.3c5.9,0,10.8,5.2,10.9,11.6l7.8,60.3h57.8c9.6,0,17.4-8.5,17.4-18.8V524.2C1104.7,513.8,1096.9,505.3,1087.3,505.3
	L1087.3,505.3z M1091.7,658.3c0,6-4.5,10.8-10,10.8l-353.9,0c-5.5,0-10-4.9-10-10.8V529.6c0-6,4.5-10.8,10-10.8h353.9
	c5.5,0,10,4.9,10,10.8V658.3z"/>
<path d="M1005.5,592.6H803.9c-2.3,0-4.2,2-4.2,4.5v53.6c0,2.5,1.9,4.5,4.2,4.5h201.6c2.3,0,4.2-2,4.2-4.5v-53.6
	C1009.7,594.7,1007.8,592.6,1005.5,592.6L1005.5,592.6z M829.9,649.2c-12.9,0-23.3-11.3-23.3-25.3c0-14,10.4-25.3,23.3-25.3
	s23.3,11.3,23.3,25.3C853.3,637.9,842.8,649.2,829.9,649.2z M980.9,649.2c-12.9,0-23.3-11.3-23.3-25.3c0-14,10.4-25.3,23.3-25.3
	s23.3,11.3,23.3,25.3C1004.3,637.9,993.8,649.2,980.9,649.2z"/>
<path class="st1" d="M1581.9,199.9h-7.4c-11.5,0-20.8-9.3-20.8-20.8v-7.4c0-11.5,9.3-20.8,20.8-20.8h7.4c11.5,0,20.8,9.3,20.8,20.8
	v7.4C1602.7,190.6,1593.4,199.9,1581.9,199.9z"/>
<path class="st1" d="M1585.2,506h-7.4c-11.5,0-20.8-9.3-20.8-20.8v-7.4c0-11.5,9.3-20.8,20.8-20.8h7.4c11.5,0,20.8,9.3,20.8,20.8
	v7.4C1606,496.7,1596.7,506,1585.2,506z"/>
<path class="st1" d="M374.6,186.6L374.6,186.6c-13.9,0-25.3-11.3-25.3-25.3v-0.5c0-13.9,11.3-25.3,25.3-25.3h0
	c13.9,0,25.3,11.3,25.3,25.3v0.5C399.9,175.3,388.6,186.6,374.6,186.6z"/>
<path class="st1" d="M979.9,186.9L979.9,186.9c-13.9,0-25.3-11.3-25.3-25.3v-0.5c0-13.9,11.3-25.3,25.3-25.3h0
	c13.9,0,25.3,11.3,25.3,25.3v0.5C1005.2,175.6,993.9,186.9,979.9,186.9z"/>
<path class="st1" d="M829.9,186.9L829.9,186.9c-13.9,0-25.3-11.3-25.3-25.3v-0.5c0-13.9,11.3-25.3,25.3-25.3h0
	c13.9,0,25.3,11.3,25.3,25.3v0.5C855.2,175.6,843.9,186.9,829.9,186.9z"/>
<path class="st1" d="M829.5,649.8L829.5,649.8c-13.9,0-25.3-11.3-25.3-25.3V624c0-13.9,11.3-25.3,25.3-25.3l0,0
	c13.9,0,25.3,11.3,25.3,25.3v0.5C854.7,638.5,843.4,649.8,829.5,649.8z"/>
<path class="st1" d="M980.5,649.8L980.5,649.8c-13.9,0-25.3-11.3-25.3-25.3V624c0-13.9,11.3-25.3,25.3-25.3l0,0
	c13.9,0,25.3,11.3,25.3,25.3v0.5C1005.7,638.5,994.4,649.8,980.5,649.8z"/>
<path class="st1" d="M223.6,649.8L223.6,649.8c-13.9,0-25.3-11.3-25.3-25.3V624c0-13.9,11.3-25.3,25.3-25.3h0
	c13.9,0,25.3,11.3,25.3,25.3v0.5C248.8,638.5,237.5,649.8,223.6,649.8z"/>
<path class="st1" d="M374.6,649.8L374.6,649.8c-13.9,0-25.3-11.3-25.3-25.3V624c0-13.9,11.3-25.3,25.3-25.3h0
	c13.9,0,25.3,11.3,25.3,25.3v0.5C399.8,638.5,388.5,649.8,374.6,649.8z"/>
</svg>
