<?xml version="1.0" encoding="utf-8"?>
<!-- Generator: Adobe Illustrator 25.2.0, SVG Export Plug-In . SVG Version: 6.00 Build 0)  -->
<svg version="1.1" id="Layer_1" xmlns="http://www.w3.org/2000/svg" xmlns:xlink="http://www.w3.org/1999/xlink" x="0px" y="0px"
	 viewBox="0 0 1199.6 932.5" style="enable-background:new 0 0 1199.6 932.5;" xml:space="preserve">
<style type="text/css">
	.st0{fill:#FF0000;}
	.st1{fill:#FFFFFF;}
	.st2{fill:#00FF1E;}
	.st3{fill:#00FFE6;}
	.st4{fill:#FCFC00;}
</style>
<rect x="111" y="213" class="st0" width="374" height="151"/>
<path d="M410.1,401.2c0-4.5-3.5-8.1-7.8-8.1H192.7c-4.3,0-7.8,3.7-7.8,8.1v0.3l-8,59.9h241.3l-8.1-60V401.2z"/>
<path d="M480.6,199.9H115.4c-9.6,0-17.4,8.5-17.4,18.8v223.8c0,10.4,7.8,18.8,17.4,18.8h57.8L181,401c0.1-6.4,4.9-11.6,10.9-11.6
	h212.3c5.9,0,10.8,5.2,10.9,11.6l7.8,60.3h57.8c9.6,0,17.4-8.5,17.4-18.8V218.8C498,208.4,490.2,199.9,480.6,199.9L480.6,199.9z
	 M485,352.9c0,6-4.5,10.8-10,10.8H121.1c-5.5,0-10-4.9-10-10.8V224.2c0-6,4.5-10.8,10-10.8H475c5.5,0,10,4.9,10,10.8V352.9z"/>
<path d="M398.8,287.2H197.2c-2.3,0-4.2,2-4.2,4.5v53.6c0,2.5,1.9,4.5,4.2,4.5h201.6c2.3,0,4.2-2,4.2-4.5v-53.6
	C403,289.3,401.1,287.2,398.8,287.2L398.8,287.2z M223.2,343.8c-12.9,0-23.3-11.3-23.3-25.3s10.4-25.3,23.3-25.3
	s23.3,11.3,23.3,25.3C246.6,332.5,236.1,343.8,223.2,343.8z M374.2,343.8c-12.9,0-23.3-11.3-23.3-25.3s10.4-25.3,23.3-25.3
	s23.3,11.3,23.3,25.3S387.1,343.8,374.2,343.8z"/>
<path class="st1" d="M223.8,344L223.8,344c-13.9,0-25.3-11.3-25.3-25.3v-0.5c0-13.9,11.3-25.3,25.3-25.3l0,0
	c13.9,0,25.3,11.3,25.3,25.3v0.5C249,332.7,237.7,344,223.8,344z"/>
<rect x="717.7" y="213.4" class="st0" width="374" height="151"/>
<path d="M1016.8,401.6c0-4.5-3.5-8.1-7.8-8.1H799.4c-4.3,0-7.8,3.7-7.8,8.1v0.3l-8,59.9h241.3l-8.1-60L1016.8,401.6z"/>
<path d="M1087.3,200.3H722.1c-9.6,0-17.4,8.5-17.4,18.8v223.8c0,10.4,7.8,18.8,17.4,18.8h57.8l7.8-60.3c0.1-6.4,4.9-11.6,10.9-11.6
	h212.3c5.9,0,10.8,5.2,10.9,11.6l7.8,60.3h57.8c9.6,0,17.4-8.5,17.4-18.8V219.2C1104.7,208.8,1096.9,200.3,1087.3,200.3
	L1087.3,200.3z M1091.7,353.3c0,6-4.5,10.8-10,10.8H727.8c-5.5,0-10-4.9-10-10.8V224.6c0-6,4.5-10.8,10-10.8h353.9
	c5.5,0,10,4.9,10,10.8V353.3z"/>
<path d="M1005.5,287.6H803.9c-2.3,0-4.2,2-4.2,4.5v53.6c0,2.5,1.9,4.5,4.2,4.5h201.6c2.3,0,4.2-2,4.2-4.5v-53.6
	C1009.7,289.7,1007.8,287.6,1005.5,287.6L1005.5,287.6z M829.9,344.2c-12.9,0-23.3-11.3-23.3-25.3s10.4-25.3,23.3-25.3
	s23.3,11.3,23.3,25.3C853.3,332.9,842.8,344.2,829.9,344.2z M980.9,344.2c-12.9,0-23.3-11.3-23.3-25.3s10.4-25.3,23.3-25.3
	s23.3,11.3,23.3,25.3C1004.3,332.9,993.8,344.2,980.9,344.2z"/>
<path class="st1" d="M835.9,343.4h-7.4c-11.5,0-20.8-9.3-20.8-20.8v-7.4c0-11.5,9.3-20.8,20.8-20.8h7.4c11.5,0,20.8,9.3,20.8,20.8
	v7.4C856.7,334.1,847.4,343.4,835.9,343.4z"/>
<path class="st1" d="M983.9,343.4h-7.4c-11.5,0-20.8-9.3-20.8-20.8v-7.4c0-11.5,9.3-20.8,20.8-20.8h7.4c11.5,0,20.8,9.3,20.8,20.8
	v7.4C1004.7,334.1,995.4,343.4,983.9,343.4z"/>
<rect x="717.7" y="213.4" class="st0" width="374" height="151"/>
<path d="M1016.8,401.6c0-4.5-3.5-8.1-7.8-8.1H799.4c-4.3,0-7.8,3.7-7.8,8.1v0.3l-8,59.9h241.3l-8.1-60L1016.8,401.6z"/>
<path d="M1087.3,200.3H722.1c-9.6,0-17.4,8.5-17.4,18.8v223.8c0,10.4,7.8,18.8,17.4,18.8h57.8l7.8-60.3c0.1-6.4,4.9-11.6,10.9-11.6
	h212.3c5.9,0,10.8,5.2,10.9,11.6l7.8,60.3h57.8c9.6,0,17.4-8.5,17.4-18.8V219.2C1104.7,208.8,1096.9,200.3,1087.3,200.3
	L1087.3,200.3z M1091.7,353.3c0,6-4.5,10.8-10,10.8H727.8c-5.5,0-10-4.9-10-10.8V224.6c0-6,4.5-10.8,10-10.8h353.9
	c5.5,0,10,4.9,10,10.8V353.3z"/>
<path d="M1005.5,287.6H803.9c-2.3,0-4.2,2-4.2,4.5v53.6c0,2.5,1.9,4.5,4.2,4.5h201.6c2.3,0,4.2-2,4.2-4.5v-53.6
	C1009.7,289.7,1007.8,287.6,1005.5,287.6L1005.5,287.6z M829.9,344.2c-12.9,0-23.3-11.3-23.3-25.3s10.4-25.3,23.3-25.3
	s23.3,11.3,23.3,25.3C853.3,332.9,842.8,344.2,829.9,344.2z M980.9,344.2c-12.9,0-23.3-11.3-23.3-25.3s10.4-25.3,23.3-25.3
	s23.3,11.3,23.3,25.3C1004.3,332.9,993.8,344.2,980.9,344.2z"/>
<path class="st1" d="M835.9,343.4h-7.4c-11.5,0-20.8-9.3-20.8-20.8v-7.4c0-11.5,9.3-20.8,20.8-20.8h7.4c11.5,0,20.8,9.3,20.8,20.8
	v7.4C856.7,334.1,847.4,343.4,835.9,343.4z"/>
<path class="st1" d="M983.9,343.4h-7.4c-11.5,0-20.8-9.3-20.8-20.8v-7.4c0-11.5,9.3-20.8,20.8-20.8h7.4c11.5,0,20.8,9.3,20.8,20.8
	v7.4C1004.7,334.1,995.4,343.4,983.9,343.4z"/>
<rect x="110.7" y="675.4" class="st2" width="374" height="151"/>
<path d="M409.8,863.6c0-4.5-3.5-8.1-7.8-8.1H192.4c-4.3,0-7.8,3.7-7.8,8.1v0.3l-8,59.9h241.3l-8.1-60V863.6z"/>
<path d="M480.3,662.3H115.1c-9.6,0-17.4,8.5-17.4,18.8v223.8c0,10.4,7.8,18.8,17.4,18.8h57.8l7.8-60.3c0.1-6.4,4.9-11.6,10.9-11.6
	h212.3c5.9,0,10.8,5.2,10.9,11.6l7.8,60.3h57.8c9.6,0,17.4-8.5,17.4-18.8V681.2C497.7,670.8,489.9,662.3,480.3,662.3L480.3,662.3z
	 M484.7,815.3c0,6-4.5,10.8-10,10.8H120.8c-5.5,0-10-4.9-10-10.8V686.6c0-6,4.5-10.8,10-10.8h353.9c5.5,0,10,4.9,10,10.8V815.3z"/>
<path d="M398.5,749.6H196.9c-2.3,0-4.2,2-4.2,4.5v53.6c0,2.5,1.9,4.5,4.2,4.5h201.6c2.3,0,4.2-2,4.2-4.5v-53.6
	C402.7,751.7,400.8,749.6,398.5,749.6L398.5,749.6z M222.9,806.2c-12.9,0-23.3-11.3-23.3-25.3s10.4-25.3,23.3-25.3
	s23.3,11.3,23.3,25.3C246.3,794.9,235.8,806.2,222.9,806.2z M373.9,806.2c-12.9,0-23.3-11.3-23.3-25.3s10.4-25.3,23.3-25.3
	s23.3,11.3,23.3,25.3C397.3,794.9,386.8,806.2,373.9,806.2z"/>
<rect x="717.7" y="213.4" class="st3" width="374" height="151"/>
<path d="M1016.8,401.6c0-4.5-3.5-8.1-7.8-8.1H799.4c-4.3,0-7.8,3.7-7.8,8.1v0.3l-8,59.9h241.3l-8.1-60L1016.8,401.6z"/>
<path d="M1087.3,200.3H722.1c-9.6,0-17.4,8.5-17.4,18.8v223.8c0,10.4,7.8,18.8,17.4,18.8h57.8l7.8-60.3c0.1-6.4,4.9-11.6,10.9-11.6
	h212.3c5.9,0,10.8,5.2,10.9,11.6l7.8,60.3h57.8c9.6,0,17.4-8.5,17.4-18.8V219.2C1104.7,208.8,1096.9,200.3,1087.3,200.3
	L1087.3,200.3z M1091.7,353.3c0,6-4.5,10.8-10,10.8H727.8c-5.5,0-10-4.9-10-10.8V224.6c0-6,4.5-10.8,10-10.8h353.9
	c5.5,0,10,4.9,10,10.8V353.3z"/>
<path d="M1005.5,287.6H803.9c-2.3,0-4.2,2-4.2,4.5v53.6c0,2.5,1.9,4.5,4.2,4.5h201.6c2.3,0,4.2-2,4.2-4.5v-53.6
	C1009.7,289.7,1007.8,287.6,1005.5,287.6L1005.5,287.6z M829.9,344.2c-12.9,0-23.3-11.3-23.3-25.3s10.4-25.3,23.3-25.3
	s23.3,11.3,23.3,25.3C853.3,332.9,842.8,344.2,829.9,344.2z M980.9,344.2c-12.9,0-23.3-11.3-23.3-25.3s10.4-25.3,23.3-25.3
	s23.3,11.3,23.3,25.3C1004.3,332.9,993.8,344.2,980.9,344.2z"/>
<rect x="717.7" y="675.4" class="st4" width="374" height="151"/>
<path d="M1016.8,863.6c0-4.5-3.5-8.1-7.8-8.1H799.4c-4.3,0-7.8,3.7-7.8,8.1v0.3l-8,59.9h241.3l-8.1-60L1016.8,863.6z"/>
<path d="M1087.3,662.3H722.1c-9.6,0-17.4,8.5-17.4,18.8v223.8c0,10.4,7.8,18.8,17.4,18.8h57.8l7.8-60.3c0.1-6.4,4.9-11.6,10.9-11.6
	h212.3c5.9,0,10.8,5.2,10.9,11.6l7.8,60.3h57.8c9.6,0,17.4-8.5,17.4-18.8V681.2C1104.7,670.8,1096.9,662.3,1087.3,662.3
	L1087.3,662.3z M1091.7,815.3c0,6-4.5,10.8-10,10.8H727.8c-5.5,0-10-4.9-10-10.8V686.6c0-6,4.5-10.8,10-10.8h353.9
	c5.5,0,10,4.9,10,10.8V815.3z"/>
<path d="M1005.5,749.6H803.9c-2.3,0-4.2,2-4.2,4.5v53.6c0,2.5,1.9,4.5,4.2,4.5h201.6c2.3,0,4.2-2,4.2-4.5v-53.6
	C1009.7,751.7,1007.8,749.6,1005.5,749.6L1005.5,749.6z M829.9,806.2c-12.9,0-23.3-11.3-23.3-25.3s10.4-25.3,23.3-25.3
	s23.3,11.3,23.3,25.3C853.3,794.9,842.8,806.2,829.9,806.2z M980.9,806.2c-12.9,0-23.3-11.3-23.3-25.3s10.4-25.3,23.3-25.3
	s23.3,11.3,23.3,25.3C1004.3,794.9,993.8,806.2,980.9,806.2z"/>
<path class="st1" d="M1581.9,199.9h-7.4c-11.5,0-20.8-9.3-20.8-20.8v-7.4c0-11.5,9.3-20.8,20.8-20.8h7.4c11.5,0,20.8,9.3,20.8,20.8
	v7.4C1602.7,190.6,1593.4,199.9,1581.9,199.9z"/>
<path class="st1" d="M1585.2,506h-7.4c-11.5,0-20.8-9.3-20.8-20.8v-7.4c0-11.5,9.3-20.8,20.8-20.8h7.4c11.5,0,20.8,9.3,20.8,20.8
	v7.4C1606,496.7,1596.7,506,1585.2,506z"/>
<path class="st1" d="M374.6,343.6L374.6,343.6c-13.9,0-25.3-11.3-25.3-25.3v-0.5c0-13.9,11.3-25.3,25.3-25.3l0,0
	c13.9,0,25.3,11.3,25.3,25.3v0.5C399.9,332.3,388.6,343.6,374.6,343.6z"/>
<path class="st1" d="M979.9,343.9L979.9,343.9c-13.9,0-25.3-11.3-25.3-25.3v-0.5c0-13.9,11.3-25.3,25.3-25.3l0,0
	c13.9,0,25.3,11.3,25.3,25.3v0.5C1005.2,332.6,993.9,343.9,979.9,343.9z"/>
<path class="st1" d="M829.9,343.9L829.9,343.9c-13.9,0-25.3-11.3-25.3-25.3v-0.5c0-13.9,11.3-25.3,25.3-25.3l0,0
	c13.9,0,25.3,11.3,25.3,25.3v0.5C855.2,332.6,843.9,343.9,829.9,343.9z"/>
<path class="st1" d="M829.5,806.8L829.5,806.8c-13.9,0-25.3-11.3-25.3-25.3V781c0-13.9,11.3-25.3,25.3-25.3l0,0
	c13.9,0,25.3,11.3,25.3,25.3v0.5C854.7,795.5,843.4,806.8,829.5,806.8z"/>
<path class="st1" d="M980.5,806.8L980.5,806.8c-13.9,0-25.3-11.3-25.3-25.3V781c0-13.9,11.3-25.3,25.3-25.3l0,0
	c13.9,0,25.3,11.3,25.3,25.3v0.5C1005.7,795.5,994.4,806.8,980.5,806.8z"/>
<path class="st1" d="M223.6,806.8L223.6,806.8c-13.9,0-25.3-11.3-25.3-25.3V781c0-13.9,11.3-25.3,25.3-25.3l0,0
	c13.9,0,25.3,11.3,25.3,25.3v0.5C248.8,795.5,237.5,806.8,223.6,806.8z"/>
<path class="st1" d="M374.6,806.8L374.6,806.8c-13.9,0-25.3-11.3-25.3-25.3V781c0-13.9,11.3-25.3,25.3-25.3l0,0
	c13.9,0,25.3,11.3,25.3,25.3v0.5C399.8,795.5,388.5,806.8,374.6,806.8z"/>
</svg>
