<?xml version="1.0" encoding="UTF-8"?>
<svg width="700pt" height="700pt" version="1.1" viewBox="0 0 700 700" xmlns="http://www.w3.org/2000/svg" xmlns:xlink="http://www.w3.org/1999/xlink">
 <defs>
  <symbol id="g" overflow="visible">
   <path d="m0.46875-0.03125c-0.023438 0.011719-0.046875 0.023438-0.078125 0.03125-0.023437 0.0078125-0.046875 0.015625-0.078125 0.015625-0.085938 0-0.15234-0.019531-0.20312-0.0625-0.054688-0.050781-0.078125-0.11719-0.078125-0.20312 0-0.082031 0.023438-0.14844 0.078125-0.20312 0.050781-0.050781 0.11719-0.078125 0.20312-0.078125 0.03125 0 0.054688 0.007812 0.078125 0.015625 0.03125 0.011719 0.054687 0.023437 0.078125 0.03125v0.10938c-0.023438-0.019531-0.046875-0.035156-0.078125-0.046875-0.023437-0.007813-0.046875-0.015625-0.078125-0.015625-0.042969 0-0.078125 0.015625-0.10938 0.046875-0.023437 0.03125-0.03125 0.078125-0.03125 0.14062 0 0.054688 0.007813 0.09375 0.03125 0.125 0.03125 0.023438 0.066406 0.03125 0.10938 0.03125h0.078125c0.03125-0.007812 0.054687-0.019531 0.078125-0.03125z"/>
  </symbol>
  <symbol id="a" overflow="visible">
   <path d="m0.34375-0.28125h-0.03125c-0.011719-0.007812-0.023438-0.015625-0.03125-0.015625-0.03125 0-0.058594 0.011719-0.078125 0.03125-0.011719 0.023437-0.015625 0.054687-0.015625 0.09375v0.17188h-0.125v-0.39062h0.125v0.078125c0.007812-0.03125 0.023438-0.050781 0.046875-0.0625 0.019531-0.007812 0.046875-0.015625 0.078125-0.015625h0.03125z"/>
  </symbol>
  <symbol id="b" overflow="visible">
   <path d="m0.4375-0.20312v0.046875h-0.28125c0.007812 0.03125 0.019531 0.054688 0.03125 0.0625 0.007812 0.011719 0.035156 0.015625 0.078125 0.015625h0.078125c0.03125-0.0078125 0.0625-0.023437 0.09375-0.046875v0.10938c-0.03125 0-0.0625 0.0078125-0.09375 0.015625s-0.0625 0.015625-0.09375 0.015625c-0.074219 0-0.13281-0.015625-0.17188-0.046875-0.03125-0.039062-0.046875-0.09375-0.046875-0.15625s0.015625-0.10938 0.046875-0.14062c0.039063-0.039063 0.097656-0.0625 0.17188-0.0625 0.050781 0 0.09375 0.023437 0.125 0.0625 0.039062 0.03125 0.0625 0.074219 0.0625 0.125zm-0.125-0.03125c0-0.03125-0.007812-0.050781-0.015625-0.0625-0.011719-0.007813-0.027344-0.015625-0.046875-0.015625-0.03125 0-0.054688 0.007812-0.0625 0.015625-0.011719 0.011719-0.023438 0.03125-0.03125 0.0625z"/>
  </symbol>
  <symbol id="c" overflow="visible">
   <path d="m0.23438-0.17188c-0.023437 0-0.042969 0.007813-0.0625 0.015625-0.011719 0.011719-0.015625 0.023438-0.015625 0.03125 0 0.023438 0.003906 0.039062 0.015625 0.046875h0.03125c0.03125 0 0.050781-0.0039062 0.0625-0.015625 0.019531-0.019531 0.03125-0.039062 0.03125-0.0625v-0.015625zm0.1875-0.046875v0.21875h-0.125v-0.0625c-0.011719 0.03125-0.03125 0.054688-0.0625 0.0625-0.023437 0.0078125-0.042969 0.015625-0.0625 0.015625-0.042969 0-0.078125-0.011719-0.10938-0.03125-0.023438-0.03125-0.03125-0.066406-0.03125-0.10938 0-0.039062 0.015625-0.070312 0.046875-0.09375 0.03125-0.019531 0.078125-0.03125 0.14062-0.03125h0.078125c0-0.019531-0.011719-0.035156-0.03125-0.046875-0.011719-0.007813-0.03125-0.015625-0.0625-0.015625-0.023437 0-0.046875 0.007812-0.078125 0.015625-0.023438 0-0.042969 0.007813-0.0625 0.015625v-0.09375c0.019531-0.007812 0.046875-0.015625 0.078125-0.015625h0.078125c0.070312 0 0.125 0.015625 0.15625 0.046875 0.03125 0.023438 0.046875 0.0625 0.046875 0.125z"/>
  </symbol>
  <symbol id="e" overflow="visible">
   <path d="m0.20312-0.5v0.10938h0.10938v0.09375h-0.10938v0.17188 0.03125h0.046875 0.0625v0.09375h-0.10938c-0.054687 0-0.089844-0.0078125-0.10938-0.03125-0.023438-0.019531-0.03125-0.050781-0.03125-0.09375v-0.17188h-0.046875v-0.09375h0.046875v-0.10938z"/>
  </symbol>
  <symbol id="j" overflow="visible">
   <path d="m0.3125-0.32812v-0.21875h0.125v0.54688h-0.125v-0.0625c-0.011719 0.03125-0.027344 0.054688-0.046875 0.0625-0.023437 0.0078125-0.042969 0.015625-0.0625 0.015625-0.054687 0-0.09375-0.015625-0.125-0.046875-0.03125-0.039062-0.046875-0.09375-0.046875-0.15625s0.015625-0.10938 0.046875-0.14062c0.03125-0.039063 0.070313-0.0625 0.125-0.0625 0.019531 0 0.039063 0.007813 0.0625 0.015625 0.019531 0.011719 0.035156 0.027344 0.046875 0.046875zm-0.0625 0.25c0.019531 0 0.035156-0.0039062 0.046875-0.015625 0.007813-0.019531 0.015625-0.050781 0.015625-0.09375 0-0.039062-0.007812-0.070312-0.015625-0.09375-0.011719-0.019531-0.027344-0.03125-0.046875-0.03125-0.03125 0-0.058594 0.011719-0.078125 0.03125-0.011719 0.023438-0.015625 0.054688-0.015625 0.09375 0 0.042969 0.003906 0.074219 0.015625 0.09375 0.019531 0.011719 0.046875 0.015625 0.078125 0.015625z"/>
  </symbol>
  <symbol id="f" overflow="visible">
   <path d="m0.26562-0.078125c0.03125 0 0.050781-0.0039062 0.0625-0.015625 0.007813-0.019531 0.015625-0.050781 0.015625-0.09375 0-0.039062-0.007812-0.070312-0.015625-0.09375-0.011719-0.019531-0.03125-0.03125-0.0625-0.03125s-0.054687 0.011719-0.0625 0.03125c-0.011719 0.023438-0.015625 0.054688-0.015625 0.09375 0 0.03125 0.003906 0.058594 0.015625 0.078125 0.007813 0.023438 0.03125 0.03125 0.0625 0.03125zm-0.078125-0.25c0.007812-0.019531 0.023438-0.035156 0.046875-0.046875 0.03125-0.007812 0.054687-0.015625 0.078125-0.015625 0.050781 0 0.085938 0.023437 0.10938 0.0625 0.03125 0.03125 0.046875 0.078125 0.046875 0.14062s-0.015625 0.11719-0.046875 0.15625c-0.023437 0.03125-0.058594 0.046875-0.10938 0.046875-0.023438 0-0.046875-0.0078125-0.078125-0.015625-0.023437-0.0078125-0.039063-0.03125-0.046875-0.0625v0.0625h-0.125v-0.54688h0.125z"/>
  </symbol>
  <symbol id="i" overflow="visible">
   <path d="m0.015625-0.39062h0.10938l0.10938 0.26562 0.078125-0.26562h0.14062l-0.17188 0.42188c-0.011719 0.039062-0.027344 0.070312-0.046875 0.09375-0.023437 0.019531-0.054687 0.03125-0.09375 0.03125h-0.078125v-0.09375h0.046875 0.046875c0.007812 0 0.015625-0.015625 0.015625-0.046875z"/>
  </symbol>
  <symbol id="h" overflow="visible">
   <path d="m0.375-0.09375h-0.20312l-0.046875 0.09375h-0.125l0.20312-0.51562h0.15625l0.1875 0.51562h-0.14062zm-0.17188-0.09375h0.14062l-0.0625-0.20312z"/>
  </symbol>
  <symbol id="u" overflow="visible">
   <path d="m0.0625-0.54688h0.125v0.54688h-0.125z"/>
  </symbol>
  <symbol id="t" overflow="visible">
   <path d="m0.015625-0.39062h0.10938l0.10938 0.26562 0.09375-0.26562h0.125l-0.15625 0.39062h-0.125z"/>
  </symbol>
  <symbol id="d" overflow="visible">
   <path d="m0.25-0.3125c-0.03125 0-0.058594 0.011719-0.078125 0.03125-0.011719 0.023438-0.015625 0.054688-0.015625 0.09375 0 0.042969 0.003906 0.074219 0.015625 0.09375 0.019531 0.011719 0.046875 0.015625 0.078125 0.015625 0.019531 0 0.035156-0.0039062 0.046875-0.015625 0.019531-0.019531 0.03125-0.050781 0.03125-0.09375 0-0.039062-0.011719-0.070312-0.03125-0.09375-0.011719-0.019531-0.027344-0.03125-0.046875-0.03125zm0-0.078125c0.0625 0 0.10938 0.023437 0.14062 0.0625 0.039063 0.03125 0.0625 0.078125 0.0625 0.14062s-0.023437 0.11719-0.0625 0.15625c-0.03125 0.03125-0.078125 0.046875-0.14062 0.046875-0.074219 0-0.13281-0.015625-0.17188-0.046875-0.03125-0.039062-0.046875-0.09375-0.046875-0.15625s0.015625-0.10938 0.046875-0.14062c0.039063-0.039063 0.097656-0.0625 0.17188-0.0625z"/>
  </symbol>
  <symbol id="s" overflow="visible">
   <path d="m0.3125-0.54688v0.09375h-0.0625c-0.023438 0-0.039062 0.007813-0.046875 0.015625v0.03125 0.015625h0.10938v0.09375h-0.10938v0.29688h-0.125v-0.29688h-0.0625v-0.09375h0.0625v-0.015625c0-0.039062 0.0078125-0.070312 0.03125-0.09375 0.019531-0.03125 0.054687-0.046875 0.10938-0.046875z"/>
  </symbol>
  <symbol id="r" overflow="visible">
   <path d="m0.42188-0.3125c0.007813-0.03125 0.023437-0.050781 0.046875-0.0625 0.019531-0.007812 0.046875-0.015625 0.078125-0.015625 0.039063 0 0.070313 0.015625 0.09375 0.046875 0.03125 0.023438 0.046875 0.058594 0.046875 0.10938v0.23438h-0.14062v-0.20312-0.015625c0-0.03125-0.007813-0.050781-0.015625-0.0625 0-0.007812-0.011719-0.015625-0.03125-0.015625-0.023438 0-0.039062 0.011719-0.046875 0.03125-0.011719 0.011719-0.015625 0.039063-0.015625 0.078125v0.1875h-0.125v-0.20312c0-0.039063-0.007812-0.066406-0.015625-0.078125-0.011719-0.007812-0.027344-0.015625-0.046875-0.015625-0.023438 0-0.039062 0.011719-0.046875 0.03125-0.011719 0.011719-0.015625 0.039063-0.015625 0.078125v0.1875h-0.125v-0.39062h0.125v0.0625c0.007812-0.019531 0.023438-0.035156 0.046875-0.046875 0.019531-0.007812 0.039063-0.015625 0.0625-0.015625 0.03125 0 0.050781 0.007813 0.0625 0.015625 0.019531 0.011719 0.039063 0.03125 0.0625 0.0625z"/>
  </symbol>
  <symbol id="q" overflow="visible">
   <path d="m0.45312-0.23438v0.23438h-0.14062v-0.17188-0.078125-0.03125h-0.015625c-0.011719-0.007812-0.023437-0.015625-0.03125-0.015625-0.023437 0-0.042969 0.011719-0.0625 0.03125-0.011719 0.011719-0.015625 0.039063-0.015625 0.078125v0.1875h-0.125v-0.54688h0.125v0.21875c0.007812-0.019531 0.023438-0.035156 0.046875-0.046875 0.03125-0.007812 0.054687-0.015625 0.078125-0.015625 0.039062 0 0.070312 0.015625 0.09375 0.046875 0.03125 0.023438 0.046875 0.058594 0.046875 0.10938z"/>
  </symbol>
  <symbol id="p" overflow="visible">
   <path d="m0.0625-0.51562h0.14062l0.1875 0.34375v-0.34375h0.14062v0.51562h-0.15625l-0.1875-0.35938v0.35938h-0.125z"/>
  </symbol>
  <symbol id="o" overflow="visible">
   <path d="m0.0625-0.15625v-0.23438h0.10938v0.03125 0.09375 0.0625 0.0625c0.007813 0.011719 0.015625 0.023437 0.015625 0.03125 0.007812 0.011719 0.015625 0.015625 0.015625 0.015625h0.046875c0.019531 0 0.035156-0.0039062 0.046875-0.015625 0.007813-0.019531 0.015625-0.050781 0.015625-0.09375v-0.1875h0.125v0.39062h-0.125v-0.0625c-0.023438 0.03125-0.042969 0.054688-0.0625 0.0625-0.011719 0.0078125-0.03125 0.015625-0.0625 0.015625-0.042969 0-0.074219-0.015625-0.09375-0.046875-0.023438-0.03125-0.03125-0.070312-0.03125-0.125z"/>
  </symbol>
  <symbol id="n" overflow="visible">
   <path d="m0.45312-0.23438v0.23438h-0.14062v-0.17188-0.078125-0.03125h-0.015625c-0.011719-0.007812-0.023437-0.015625-0.03125-0.015625-0.023437 0-0.042969 0.011719-0.0625 0.03125-0.011719 0.011719-0.015625 0.039063-0.015625 0.078125v0.1875h-0.125v-0.39062h0.125v0.0625c0.007812-0.019531 0.023438-0.035156 0.046875-0.046875 0.03125-0.007812 0.054687-0.015625 0.078125-0.015625 0.039062 0 0.070312 0.015625 0.09375 0.046875 0.03125 0.023438 0.046875 0.058594 0.046875 0.10938z"/>
  </symbol>
  <symbol id="m" overflow="visible">
   <path d="m0.0625-0.51562h0.21875c0.070312 0 0.125 0.015625 0.15625 0.046875 0.03125 0.023438 0.046875 0.0625 0.046875 0.125 0 0.054688-0.015625 0.09375-0.046875 0.125s-0.085938 0.046875-0.15625 0.046875h-0.078125v0.17188h-0.14062zm0.14062 0.09375v0.14062h0.078125c0.019531 0 0.035156-0.003906 0.046875-0.015625 0.019531-0.007813 0.03125-0.023437 0.03125-0.046875 0-0.03125-0.011719-0.050781-0.03125-0.0625-0.011719-0.007812-0.027344-0.015625-0.046875-0.015625z"/>
  </symbol>
  <symbol id="l" overflow="visible">
   <path d="m0.0625-0.39062h0.125v0.375c0 0.050781-0.015625 0.09375-0.046875 0.125-0.023437 0.03125-0.058594 0.046875-0.10938 0.046875h-0.046875v-0.09375h0.015625c0.019531 0 0.035156-0.0078125 0.046875-0.015625 0.0078125 0 0.015625-0.023438 0.015625-0.0625zm0-0.15625h0.125v0.10938h-0.125z"/>
  </symbol>
  <symbol id="k" overflow="visible">
   <path d="m0.375-0.375v0.09375c-0.023438 0-0.042969-0.003906-0.0625-0.015625-0.011719-0.007813-0.027344-0.015625-0.046875-0.015625-0.03125 0-0.058594 0.011719-0.078125 0.03125-0.023438 0.023438-0.03125 0.054688-0.03125 0.09375 0 0.03125 0.007812 0.058594 0.03125 0.078125 0.019531 0.023438 0.046875 0.03125 0.078125 0.03125h0.0625c0.019531-0.0078125 0.035156-0.019531 0.046875-0.03125v0.09375c-0.023438 0.011719-0.042969 0.015625-0.0625 0.015625-0.023438 0.0078125-0.042969 0.015625-0.0625 0.015625-0.074219 0-0.13281-0.015625-0.17188-0.046875-0.03125-0.039062-0.046875-0.09375-0.046875-0.15625s0.015625-0.10938 0.046875-0.14062c0.039063-0.039063 0.097656-0.0625 0.17188-0.0625h0.0625c0.019531 0 0.039062 0.007813 0.0625 0.015625z"/>
  </symbol>
 </defs>
 <g>
  <path d="m468.09 353.4c0-4.4883-3.6562-8.1289-8.1289-8.1289h-219.92c-4.4883 0-8.1289 3.6562-8.1289 8.1289l-0.015625 0.25391-8.4375 59.902h253.09l-8.4531-60.016z"/>
  <path d="m547.79 146.45h-395.58c-10.359 0-18.824 8.4805-18.824 18.824v223.79c0 10.359 8.4648 18.824 18.824 18.824h62.57l8.4805-60.281c0.070312-6.4219 5.3203-11.629 11.754-11.629h229.95c6.4336 0 11.684 5.207 11.754 11.629l8.4805 60.281h62.57c10.359 0 18.824-8.4648 18.824-18.824v-223.77c0.015625-10.359-8.4531-18.84-18.809-18.84zm4.6836 152.95c0 5.9531-4.8672 10.836-10.836 10.836l-383.27 0.003906c-5.9531 0-10.824-4.8672-10.824-10.836v-128.71c0-5.9531 4.8672-10.836 10.824-10.836h383.27c5.9531 0 10.836 4.8672 10.836 10.836z"/>
  <path d="m459.17 239.42h-218.34c-2.4844 0-4.5 2.0312-4.5 4.5156v53.578c0 2.4844 2.0312 4.5 4.5 4.5h218.36c2.4844 0 4.5-2.0312 4.5-4.5v-53.578c0.003906-2.4805-2.0312-4.5156-4.5117-4.5156zm-190.13 56.586c-13.957 0-25.273-11.316-25.273-25.273s11.316-25.273 25.273-25.273c13.957 0 25.273 11.316 25.273 25.273-0.003906 13.957-11.32 25.273-25.273 25.273zm163.49 0c-13.957 0-25.273-11.316-25.273-25.273s11.316-25.273 25.273-25.273c13.957 0 25.273 11.316 25.273 25.273 0.015625 13.957-11.301 25.273-25.273 25.273z"/>
  <use x="70" y="562.117188" xlink:href="#g"/>
  <use x="70.519531" y="562.117188" xlink:href="#a"/>
  <use x="70.867188" y="562.117188" xlink:href="#b"/>
  <use x="71.34375" y="562.117188" xlink:href="#c"/>
  <use x="71.820312" y="562.117188" xlink:href="#e"/>
  <use x="72.15625" y="562.117188" xlink:href="#b"/>
  <use x="72.636719" y="562.117188" xlink:href="#j"/>
  <use x="73.386719" y="562.117188" xlink:href="#f"/>
  <use x="73.890625" y="562.117188" xlink:href="#i"/>
  <use x="74.597656" y="562.117188" xlink:href="#h"/>
  <use x="75.144531" y="562.117188" xlink:href="#u"/>
  <use x="75.386719" y="562.117188" xlink:href="#t"/>
  <use x="75.84375" y="562.117188" xlink:href="#c"/>
  <use x="76.320313" y="562.117188" xlink:href="#a"/>
  <use x="76.667969" y="562.117188" xlink:href="#d"/>
  <use x="77.398438" y="562.117188" xlink:href="#g"/>
  <use x="77.917969" y="562.117188" xlink:href="#c"/>
  <use x="78.394531" y="562.117188" xlink:href="#f"/>
  <use x="78.898438" y="562.117188" xlink:href="#a"/>
  <use x="79.246094" y="562.117188" xlink:href="#b"/>
  <use x="79.726562" y="562.117188" xlink:href="#a"/>
  <use x="80.074219" y="562.117188" xlink:href="#c"/>
  <use x="70" y="562.820312" xlink:href="#s"/>
  <use x="70.308594" y="562.820312" xlink:href="#a"/>
  <use x="70.65625" y="562.820312" xlink:href="#d"/>
  <use x="71.140625" y="562.820312" xlink:href="#r"/>
  <use x="72.121094" y="562.820312" xlink:href="#e"/>
  <use x="72.457031" y="562.820312" xlink:href="#q"/>
  <use x="72.960938" y="562.820312" xlink:href="#b"/>
  <use x="73.683594" y="562.820312" xlink:href="#p"/>
  <use x="74.273438" y="562.820312" xlink:href="#d"/>
  <use x="74.757813" y="562.820312" xlink:href="#o"/>
  <use x="75.261719" y="562.820312" xlink:href="#n"/>
  <use x="76.007813" y="562.820312" xlink:href="#m"/>
  <use x="76.527344" y="562.820312" xlink:href="#a"/>
  <use x="76.875" y="562.820312" xlink:href="#d"/>
  <use x="77.359375" y="562.820312" xlink:href="#l"/>
  <use x="77.601562" y="562.820312" xlink:href="#b"/>
  <use x="78.078125" y="562.820312" xlink:href="#k"/>
  <use x="78.496094" y="562.820312" xlink:href="#e"/>
 </g>
</svg>
