<?xml version="1.0" encoding="utf-8"?>
<!-- Generator: Adobe Illustrator 25.2.0, SVG Export Plug-In . SVG Version: 6.00 Build 0)  -->
<svg version="1.1" id="Layer_1" xmlns="http://www.w3.org/2000/svg" xmlns:xlink="http://www.w3.org/1999/xlink" x="0px" y="0px"
	 viewBox="0 0 6991.7 3703.1" style="enable-background:new 0 0 6991.7 3703.1;" xml:space="preserve">
<style type="text/css">
	.st0{fill:#D7E022;}
	.st1{fill:#FFFFFF;}
	.st2{fill:#EADE88;}
	.st3{fill:#638DEA;}
	.st4{fill:#C43939;}
</style>
<g>
	<path class="st0" d="M783.4,460.5H274.6c-37.4,0-67.8-30.4-67.8-67.8v-38.6c0-37.4,30.4-67.8,67.8-67.8h508.8
		c37.4,0,67.8,30.4,67.8,67.8v38.6C851.2,430.1,820.8,460.5,783.4,460.5z"/>
	<path d="M704.6,489.8c0-4.4-5.4-8-12.1-8H365.4c-6.7,0-12.1,3.6-12.1,8l0,0.2l-12.6,58.9h376.5l-12.6-59V489.8z"/>
	<path d="M823.2,286.2H234.8c-15.4,0-28,8.3-28,18.5v220.1c0,10.2,12.6,18.5,28,18.5h93.1l12.6-59.3c0.1-6.3,7.9-11.4,17.5-11.4H700
		c9.6,0,17.4,5.1,17.5,11.4l12.6,59.3h93.1c15.4,0,28-8.3,28-18.5V304.8C851.2,294.6,838.6,286.2,823.2,286.2z M830.2,436.7
		c0,5.9-7.2,10.7-16.1,10.7H243.9c-8.9,0-16.1-4.8-16.1-10.7V310.1c0-5.9,7.2-10.7,16.1-10.7h570.1c8.9,0,16.1,4.8,16.1,10.7V436.7z
		"/>
	<path d="M691.4,346.9H366.6c-3.7,0-6.7,2-6.7,4.4V404c0,2.4,3,4.4,6.7,4.4h324.8c3.7,0,6.7-2,6.7-4.4v-52.7
		C698.1,348.9,695.1,346.9,691.4,346.9z"/>
	<path class="st1" d="M419.8,402.5c-20.8,0-37.6-11.1-37.6-24.9c0-13.7,16.8-24.9,37.6-24.9c20.8,0,37.6,11.1,37.6,24.9
		C457.4,391.4,440.6,402.5,419.8,402.5z"/>
	<path class="st1" d="M634.3,403.2c-20.8,0-37.6-11.1-37.6-24.9s16.8-24.9,37.6-24.9s37.6,11.1,37.6,24.9
		C671.9,392.1,655,403.2,634.3,403.2z"/>
</g>
<g>
	<path class="st2" d="M1682.1,884.5h-531.4c-30.8,0-55.8-25-55.8-55.8v-57.3c0-30.8,25-55.8,55.8-55.8h531.4
		c30.8,0,55.8,25,55.8,55.8v57.3C1737.8,859.6,1712.9,884.5,1682.1,884.5z"/>
	<path d="M1591.6,918c0-4.4-5.4-7.9-12.1-7.9h-326.4c-6.7,0-12.1,3.6-12.1,7.9l0,0.2l-12.5,58.6h375.6l-12.5-58.7V918z"/>
	<path d="M1709.9,715.7h-587.1c-15.4,0-27.9,8.3-27.9,18.4v218.8c0,10.1,12.6,18.4,27.9,18.4h92.9l12.6-58.9
		c0.1-6.3,7.9-11.4,17.4-11.4H1587c9.6,0,17.3,5.1,17.4,11.4l12.6,58.9h92.9c15.4,0,27.9-8.3,27.9-18.4V734.1
		C1737.9,724,1725.3,715.7,1709.9,715.7z M1716.9,865.2c0,5.8-7.2,10.6-16.1,10.6H1132c-8.8,0-16.1-4.8-16.1-10.6V739.4
		c0-5.8,7.2-10.6,16.1-10.6h568.8c8.8,0,16.1,4.8,16.1,10.6V865.2z"/>
	<path d="M1578.4,776h-324c-3.7,0-6.7,2-6.7,4.4v52.4c0,2.4,3,4.4,6.7,4.4h324.1c3.7,0,6.7-2,6.7-4.4v-52.4
		C1585.1,778,1582.1,776,1578.4,776z"/>
	<path class="st1" d="M1523.6,831.3c-20.7,0-37.5-11.1-37.5-24.7c0-13.6,16.8-24.7,37.5-24.7c20.7,0,37.5,11.1,37.5,24.7
		C1561.1,820.2,1544.3,831.3,1523.6,831.3z"/>
	<path class="st1" d="M1305.1,831.3c-20.7,0-37.5-11.1-37.5-24.7c0-13.6,16.8-24.7,37.5-24.7s37.5,11.1,37.5,24.7
		C1342.7,820.2,1325.9,831.3,1305.1,831.3z"/>
</g>
<g>
	<path class="st3" d="M1685.4,460.2h-538c-29,0-52.5-23.5-52.5-52.5v-68.3c0-29,23.5-52.5,52.5-52.5h538c29,0,52.5,23.5,52.5,52.5
		v68.3C1737.8,436.8,1714.3,460.2,1685.4,460.2z"/>
	<path d="M1591.6,489.3c0-4.4-5.4-7.9-12.1-7.9h-326.4c-6.7,0-12.1,3.6-12.1,7.9l0,0.2l-12.5,58.6h375.6l-12.5-58.7V489.3z"/>
	<path d="M1709.9,287h-587.1c-15.4,0-27.9,8.3-27.9,18.4v218.8c0,10.1,12.6,18.4,27.9,18.4h92.9l12.6-58.9
		c0.1-6.3,7.9-11.4,17.4-11.4H1587c9.5,0,17.3,5.1,17.4,11.4l12.6,58.9h92.9c15.4,0,27.9-8.3,27.9-18.4V305.4
		C1737.9,295.3,1725.3,287,1709.9,287z M1716.9,436.5c0,5.8-7.2,10.6-16.1,10.6H1132c-8.8,0-16.1-4.8-16.1-10.6V310.7
		c0-5.8,7.2-10.6,16.1-10.6h568.8c8.8,0,16.1,4.8,16.1,10.6V436.5z"/>
	<path d="M1578.4,347.3h-324c-3.7,0-6.7,2-6.7,4.4v52.4c0,2.4,3,4.4,6.7,4.4h324.1c3.7,0,6.7-2,6.7-4.4v-52.4
		C1585.1,349.3,1582.1,347.3,1578.4,347.3z"/>
	<path class="st1" d="M1307.4,402.6c-20.7,0-37.5-11.1-37.5-24.7s16.8-24.7,37.5-24.7c20.7,0,37.5,11.1,37.5,24.7
		C1345,391.6,1328.2,402.6,1307.4,402.6z"/>
	<path class="st1" d="M1521.4,403.3c-20.7,0-37.5-11.1-37.5-24.7s16.8-24.7,37.5-24.7c20.7,0,37.5,11.1,37.5,24.7
		C1558.9,392.2,1542.1,403.3,1521.4,403.3z"/>
</g>
<g>
	<path class="st4" d="M782.7,1741.5H275.2c-37.8,0-68.5-30.6-68.5-68.5v-47.9c0-37.8,30.6-68.5,68.5-68.5h507.5
		c37.8,0,68.5,30.6,68.5,68.5v47.9C851.2,1710.9,820.5,1741.5,782.7,1741.5z"/>
	<path d="M704.6,1761.2c0-4.4-5.4-8-12.1-8H365.4c-6.7,0-12.1,3.6-12.1,8l0,0.2l-12.6,58.9h376.5l-12.6-59V1761.2z"/>
	<path d="M823.2,1557.7H234.8c-15.4,0-28,8.3-28,18.5v220.1c0,10.2,12.6,18.5,28,18.5h93.1l12.6-59.3c0.1-6.3,7.9-11.4,17.5-11.4
		H700c9.6,0,17.4,5.1,17.5,11.4l12.6,59.3h93.1c15.4,0,28-8.3,28-18.5v-220.1C851.2,1566.1,838.6,1557.7,823.2,1557.7z
		 M830.2,1708.1c0,5.9-7.2,10.7-16.1,10.7H243.9c-8.9,0-16.1-4.8-16.1-10.7v-126.6c0-5.9,7.2-10.7,16.1-10.7h570.2
		c8.9,0,16.1,4.8,16.1,10.7V1708.1z"/>
	<path d="M691.4,1618.4H366.6c-3.7,0-6.7,2-6.7,4.4v52.7c0,2.4,3,4.4,6.7,4.4h324.8c3.7,0,6.7-2,6.7-4.4v-52.7
		C698.1,1620.4,695.1,1618.4,691.4,1618.4z"/>
	<path class="st1" d="M636.4,1674c-20.8,0-37.6-11.1-37.6-24.9c0-13.7,16.8-24.9,37.6-24.9s37.6,11.1,37.6,24.9
		C674,1662.9,657.2,1674,636.4,1674z"/>
	<path class="st1" d="M417.5,1674c-20.8,0-37.6-11.1-37.6-24.9c0-13.7,16.8-24.9,37.6-24.9c20.8,0,37.6,11.1,37.6,24.9
		C455.1,1662.9,438.3,1674,417.5,1674z"/>
</g>
<g>
	<path class="st2" d="M1699,1732.7h-556.8c-21.4,0-38.8-17.4-38.8-38.8v-97.1c0-21.4,17.4-38.8,38.8-38.8H1699
		c21.4,0,38.8,17.4,38.8,38.8v97.1C1737.8,1715.3,1720.5,1732.7,1699,1732.7z"/>
	<path d="M1591.6,1760.3c0-4.4-5.4-7.9-12.1-7.9h-326.4c-6.7,0-12.1,3.6-12.1,7.9l0,0.2l-12.5,58.6h375.6l-12.5-58.7V1760.3z"/>
	<path d="M1709.9,1558h-587.1c-15.4,0-27.9,8.3-27.9,18.4v218.8c0,10.1,12.6,18.4,27.9,18.4h92.9l12.6-58.9
		c0.1-6.3,7.9-11.4,17.4-11.4H1587c9.6,0,17.3,5.1,17.4,11.4l12.6,58.9h92.9c15.4,0,27.9-8.3,27.9-18.4v-218.8
		C1737.9,1566.3,1725.3,1558,1709.9,1558z M1716.9,1707.5c0,5.8-7.2,10.6-16.1,10.6H1132c-8.8,0-16.1-4.8-16.1-10.6v-125.8
		c0-5.8,7.2-10.6,16.1-10.6h568.8c8.8,0,16.1,4.8,16.1,10.6V1707.5z"/>
	<path d="M1578.4,1618.3h-324c-3.7,0-6.7,2-6.7,4.4v52.4c0,2.4,3,4.4,6.7,4.4h324.1c3.7,0,6.7-2,6.7-4.4v-52.4
		C1585.1,1620.3,1582.1,1618.3,1578.4,1618.3z"/>
	<path class="st1" d="M1523.5,1673.6c-20.7,0-37.5-11.1-37.5-24.7c0-13.6,16.8-24.7,37.5-24.7s37.5,11.1,37.5,24.7
		C1561.1,1662.5,1544.3,1673.6,1523.5,1673.6z"/>
	<path class="st1" d="M1305.1,1673.6c-20.7,0-37.5-11.1-37.5-24.7c0-13.6,16.8-24.7,37.5-24.7s37.5,11.1,37.5,24.7
		C1342.7,1662.5,1325.9,1673.6,1305.1,1673.6z"/>
</g>
<g>
	<path class="st3" d="M1682,1312h-531.4c-30.8,0-55.8-25-55.8-55.8v-60.6c0-30.8,25-55.8,55.8-55.8H1682c30.8,0,55.8,25,55.8,55.8
		v60.6C1737.8,1287,1712.9,1312,1682,1312z"/>
	<path d="M1591.6,1342.2c0-4.4-5.4-7.9-12.1-7.9h-326.4c-6.7,0-12.1,3.6-12.1,7.9l0,0.2l-12.5,58.6h375.6l-12.5-58.7V1342.2z"/>
	<path d="M1709.9,1139.9h-587.1c-15.4,0-27.9,8.3-27.9,18.4v218.8c0,10.1,12.6,18.4,27.9,18.4h92.9l12.6-58.9
		c0.1-6.3,7.9-11.4,17.4-11.4H1587c9.5,0,17.3,5.1,17.4,11.4l12.6,58.9h92.9c15.4,0,27.9-8.3,27.9-18.4v-218.8
		C1737.9,1148.2,1725.3,1139.9,1709.9,1139.9z M1716.9,1289.4c0,5.8-7.2,10.6-16.1,10.6H1132c-8.8,0-16.1-4.8-16.1-10.6v-125.8
		c0-5.8,7.2-10.6,16.1-10.6h568.8c8.8,0,16.1,4.8,16.1,10.6V1289.4z"/>
	<path d="M1578.4,1200.2h-324c-3.7,0-6.7,2-6.7,4.4v52.4c0,2.4,3,4.4,6.7,4.4h324.1c3.7,0,6.7-2,6.7-4.4v-52.4
		C1585.1,1202.2,1582.1,1200.2,1578.4,1200.2z"/>
	<path class="st1" d="M1307.4,1255.5c-20.7,0-37.5-11.1-37.5-24.7c0-13.6,16.8-24.7,37.5-24.7s37.5,11.1,37.5,24.7
		C1345,1244.4,1328.2,1255.5,1307.4,1255.5z"/>
	<path class="st1" d="M1521.4,1256.2c-20.7,0-37.5-11.1-37.5-24.7c0-13.6,16.8-24.7,37.5-24.7s37.5,11.1,37.5,24.7
		C1558.9,1245.1,1542.1,1256.2,1521.4,1256.2z"/>
</g>
<g>
	<path class="st0" d="M801.2,2180.7H256.8c-27.6,0-50-22.4-50-50v-74.2c0-27.6,22.4-50,50-50h544.4c27.6,0,50,22.4,50,50v74.2
		C851.2,2158.3,828.8,2180.7,801.2,2180.7z"/>
	<path d="M704.6,2210c0-4.4-5.4-8-12.1-8H365.4c-6.7,0-12.1,3.6-12.1,8l0,0.2l-12.6,58.9h376.5l-12.6-59V2210z"/>
	<path d="M823.2,2006.4H234.8c-15.4,0-28,8.3-28,18.5V2245c0,10.2,12.6,18.5,28,18.5h93.1l12.6-59.3c0.1-6.3,7.9-11.4,17.5-11.4H700
		c9.6,0,17.4,5.1,17.5,11.4l12.6,59.3h93.1c15.4,0,28-8.3,28-18.5V2025C851.2,2014.8,838.6,2006.4,823.2,2006.4z M830.2,2156.9
		c0,5.9-7.2,10.7-16.1,10.7H243.9c-8.9,0-16.1-4.8-16.1-10.7v-126.6c0-5.9,7.2-10.7,16.1-10.7h570.1c8.9,0,16.1,4.8,16.1,10.7
		V2156.9z"/>
	<path d="M691.4,2067.1H366.6c-3.7,0-6.7,2-6.7,4.4v52.7c0,2.4,3,4.4,6.7,4.4h324.8c3.7,0,6.7-2,6.7-4.4v-52.7
		C698.1,2069.1,695.1,2067.1,691.4,2067.1z"/>
	<path class="st1" d="M419.8,2122.7c-20.8,0-37.6-11.1-37.6-24.9c0-13.7,16.8-24.9,37.6-24.9c20.8,0,37.6,11.1,37.6,24.9
		C457.4,2111.6,440.6,2122.7,419.8,2122.7z"/>
	<path class="st1" d="M634.3,2123.4c-20.8,0-37.6-11.1-37.6-24.9c0-13.7,16.8-24.9,37.6-24.9s37.6,11.1,37.6,24.9
		C671.9,2112.3,655,2123.4,634.3,2123.4z"/>
</g>
<g>
	<path class="st0" d="M794,3045.7H264c-31.6,0-57.2-25.6-57.2-57.2v-71.9c0-31.6,25.6-57.2,57.2-57.2h530
		c31.6,0,57.2,25.6,57.2,57.2v71.9C851.2,3020.1,825.6,3045.7,794,3045.7z"/>
	<path d="M704.6,3062.8c0-4.4-5.4-8-12.1-8H365.4c-6.7,0-12.1,3.6-12.1,8l0,0.2l-12.6,58.9h376.5l-12.6-59V3062.8z"/>
	<path d="M823.2,2859.3H234.8c-15.4,0-28,8.3-28,18.5v220.1c0,10.2,12.6,18.5,28,18.5h93.1l12.6-59.3c0.1-6.3,7.9-11.4,17.5-11.4
		H700c9.6,0,17.4,5.1,17.5,11.4l12.6,59.3h93.1c15.4,0,28-8.3,28-18.5v-220.1C851.2,2867.6,838.6,2859.3,823.2,2859.3z
		 M830.2,3009.7c0,5.9-7.2,10.7-16.1,10.7H243.9c-8.9,0-16.1-4.8-16.1-10.7v-126.6c0-5.9,7.2-10.7,16.1-10.7h570.2
		c8.9,0,16.1,4.8,16.1,10.7V3009.7z"/>
	<path d="M691.4,2920H366.6c-3.7,0-6.7,2-6.7,4.4v52.7c0,2.4,3,4.4,6.7,4.4h324.8c3.7,0,6.7-2,6.7-4.4v-52.7
		C698.1,2922,695.1,2920,691.4,2920z"/>
	<path class="st1" d="M419.8,2975.6c-20.8,0-37.6-11.1-37.6-24.9c0-13.7,16.8-24.9,37.6-24.9c20.8,0,37.6,11.1,37.6,24.9
		C457.4,2964.5,440.5,2975.6,419.8,2975.6z"/>
	<path class="st1" d="M634.3,2976.3c-20.8,0-37.6-11.1-37.6-24.9c0-13.7,16.8-24.9,37.6-24.9c20.8,0,37.6,11.1,37.6,24.9
		C671.9,2965.2,655,2976.3,634.3,2976.3z"/>
</g>
<g>
	<rect x="1094.9" y="2431.2" class="st2" width="642.9" height="168.8"/>
	<path d="M1591.6,2633.5c0-4.4-5.4-7.9-12.1-7.9h-326.4c-6.7,0-12.1,3.6-12.1,7.9l0,0.2l-12.5,58.6h375.6l-12.5-58.7V2633.5z"/>
	<path d="M1709.9,2431.2h-587.1c-15.4,0-27.9,8.3-27.9,18.4v218.8c0,10.1,12.6,18.4,27.9,18.4h92.9l12.6-58.9
		c0.1-6.3,7.9-11.4,17.4-11.4H1587c9.5,0,17.3,5.1,17.4,11.4l12.6,58.9h92.9c15.4,0,27.9-8.3,27.9-18.4v-218.8
		C1737.9,2439.5,1725.3,2431.2,1709.9,2431.2z M1716.9,2580.7c0,5.8-7.2,10.6-16.1,10.6H1132c-8.8,0-16.1-4.8-16.1-10.6v-125.8
		c0-5.8,7.2-10.6,16.1-10.6h568.8c8.8,0,16.1,4.8,16.1,10.6V2580.7z"/>
	<path d="M1578.4,2491.5h-324c-3.7,0-6.7,2-6.7,4.4v52.4c0,2.4,3,4.4,6.7,4.4h324.1c3.7,0,6.7-2,6.7-4.4v-52.4
		C1585.1,2493.5,1582.1,2491.5,1578.4,2491.5z"/>
	<path class="st1" d="M1523.6,2546.8c-20.7,0-37.5-11.1-37.5-24.7c0-13.6,16.8-24.7,37.5-24.7s37.5,11.1,37.5,24.7
		C1561.1,2535.7,1544.3,2546.8,1523.6,2546.8z"/>
	<path class="st1" d="M1305.1,2546.8c-20.7,0-37.5-11.1-37.5-24.7c0-13.6,16.8-24.7,37.5-24.7s37.5,11.1,37.5,24.7
		C1342.7,2535.7,1325.9,2546.8,1305.1,2546.8z"/>
</g>
<g>
	<path class="st3" d="M1699,2180.4h-565.2c-21.5,0-38.9-17.4-38.9-38.9v-95.5c0-21.5,17.4-38.9,38.9-38.9H1699
		c21.5,0,38.9,17.4,38.9,38.9v95.5C1737.8,2163,1720.4,2180.4,1699,2180.4z"/>
	<path d="M1591.6,2209.5c0-4.4-5.4-7.9-12.1-7.9h-326.4c-6.7,0-12.1,3.6-12.1,7.9l0,0.2l-12.5,58.6h375.6l-12.5-58.7V2209.5z"/>
	<path d="M1709.9,2007.2h-587.1c-15.4,0-27.9,8.3-27.9,18.4v218.8c0,10.1,12.6,18.4,27.9,18.4h92.9l12.6-58.9
		c0.1-6.3,7.9-11.4,17.4-11.4H1587c9.5,0,17.3,5.1,17.4,11.4l12.6,58.9h92.9c15.4,0,27.9-8.3,27.9-18.4v-218.8
		C1737.9,2015.5,1725.3,2007.2,1709.9,2007.2z M1716.9,2156.7c0,5.8-7.2,10.6-16.1,10.6H1132c-8.8,0-16.1-4.8-16.1-10.6v-125.8
		c0-5.8,7.2-10.6,16.1-10.6h568.8c8.8,0,16.1,4.8,16.1,10.6V2156.7z"/>
	<path d="M1578.4,2067.5h-324c-3.7,0-6.7,2-6.7,4.4v52.4c0,2.4,3,4.4,6.7,4.4h324.1c3.7,0,6.7-2,6.7-4.4v-52.4
		C1585.1,2069.5,1582.1,2067.5,1578.4,2067.5z"/>
	<path class="st1" d="M1307.4,2122.8c-20.7,0-37.5-11.1-37.5-24.7s16.8-24.7,37.5-24.7c20.7,0,37.5,11.1,37.5,24.7
		C1345,2111.8,1328.2,2122.8,1307.4,2122.8z"/>
	<path class="st1" d="M1521.4,2123.5c-20.7,0-37.5-11.1-37.5-24.7s16.8-24.7,37.5-24.7c20.7,0,37.5,11.1,37.5,24.7
		C1558.9,2112.4,1542.1,2123.5,1521.4,2123.5z"/>
</g>
<g>
	<path class="st2" d="M1679.7,3453.4h-518.1c-32.1,0-58.2-26-58.2-58.2v-58.3c0-32.1,26-58.2,58.2-58.2h518.1
		c32.1,0,58.2,26,58.2,58.2v58.3C1737.8,3427.3,1711.8,3453.4,1679.7,3453.4z"/>
	<path d="M1591.6,3481c0-4.4-5.4-7.9-12.1-7.9h-326.4c-6.7,0-12.1,3.6-12.1,7.9l0,0.2l-12.5,58.6h375.6l-12.5-58.7V3481z"/>
	<path d="M1709.9,3278.7h-587.1c-15.4,0-27.9,8.3-27.9,18.4v218.8c0,10.1,12.6,18.4,27.9,18.4h92.9l12.6-58.9
		c0.1-6.3,7.9-11.4,17.4-11.4H1587c9.6,0,17.3,5.1,17.4,11.4l12.6,58.9h92.9c15.4,0,27.9-8.3,27.9-18.4v-218.8
		C1737.9,3287,1725.3,3278.7,1709.9,3278.7z M1716.9,3428.2c0,5.8-7.2,10.6-16.1,10.6H1132c-8.8,0-16.1-4.8-16.1-10.6v-125.8
		c0-5.8,7.2-10.6,16.1-10.6h568.8c8.8,0,16.1,4.8,16.1,10.6V3428.2z"/>
	<path d="M1578.4,3339h-324c-3.7,0-6.7,2-6.7,4.4v52.4c0,2.4,3,4.4,6.7,4.4h324.1c3.7,0,6.7-2,6.7-4.4v-52.4
		C1585.1,3341,1582.1,3339,1578.4,3339z"/>
	<path class="st1" d="M1523.5,3394.3c-20.7,0-37.5-11.1-37.5-24.7s16.8-24.7,37.5-24.7s37.5,11.1,37.5,24.7
		C1561.1,3383.2,1544.3,3394.3,1523.5,3394.3z"/>
	<path class="st1" d="M1305.1,3394.3c-20.7,0-37.5-11.1-37.5-24.7s16.8-24.7,37.5-24.7s37.5,11.1,37.5,24.7
		C1342.7,3383.2,1325.9,3394.3,1305.1,3394.3z"/>
</g>
<g>
	<path class="st3" d="M1665.3,3032.2h-497.9c-40.1,0-72.5-32.5-72.5-72.5v-27.1c0-40.1,32.5-72.5,72.5-72.5h497.9
		c40.1,0,72.5,32.5,72.5,72.5v27.1C1737.8,2999.7,1705.4,3032.2,1665.3,3032.2z"/>
	<path d="M1591.6,3062.4c0-4.4-5.4-7.9-12.1-7.9h-326.4c-6.7,0-12.1,3.6-12.1,7.9l0,0.2l-12.5,58.6h375.6l-12.5-58.7V3062.4z"/>
	<path d="M1709.9,2860.1h-587.1c-15.4,0-27.9,8.3-27.9,18.4v218.8c0,10.1,12.6,18.4,27.9,18.4h92.9l12.6-58.9
		c0.1-6.3,7.9-11.4,17.4-11.4H1587c9.5,0,17.3,5.1,17.4,11.4l12.6,58.9h92.9c15.4,0,27.9-8.3,27.9-18.4v-218.8
		C1737.9,2868.4,1725.3,2860.1,1709.9,2860.1z M1716.9,3009.6c0,5.8-7.2,10.6-16.1,10.6H1132c-8.8,0-16.1-4.8-16.1-10.6v-125.8
		c0-5.8,7.2-10.6,16.1-10.6h568.8c8.8,0,16.1,4.8,16.1,10.6V3009.6z"/>
	<path d="M1578.4,2920.4h-324c-3.7,0-6.7,2-6.7,4.4v52.4c0,2.4,3,4.4,6.7,4.4h324.1c3.7,0,6.7-2,6.7-4.4v-52.4
		C1585.1,2922.4,1582.1,2920.4,1578.4,2920.4z"/>
	<path class="st1" d="M1307.4,2975.7c-20.7,0-37.5-11.1-37.5-24.7c0-13.6,16.8-24.7,37.5-24.7s37.5,11.1,37.5,24.7
		C1344.9,2964.6,1328.1,2975.7,1307.4,2975.7z"/>
	<path class="st1" d="M1521.4,2976.4c-20.7,0-37.5-11.1-37.5-24.7s16.8-24.7,37.5-24.7s37.5,11.1,37.5,24.7
		C1558.9,2965.3,1542.1,2976.4,1521.4,2976.4z"/>
</g>
<g>
	<path class="st2" d="M3435.1,884.5h-534.5c-29.9,0-54.2-24.3-54.2-54.2v-60.4c0-29.9,24.3-54.2,54.2-54.2h534.5
		c29.9,0,54.2,24.3,54.2,54.2v60.4C3489.3,860.3,3465,884.5,3435.1,884.5z"/>
	<path d="M3343,918c0-4.4-5.4-7.9-12.1-7.9h-326.4c-6.7,0-12.1,3.6-12.1,7.9l0,0.2l-12.5,58.6h375.6l-12.5-58.7V918z"/>
	<path d="M3461.3,715.7h-587.1c-15.4,0-27.9,8.3-27.9,18.4v218.8c0,10.1,12.6,18.4,27.9,18.4h92.9l12.6-58.9
		c0.1-6.3,7.9-11.4,17.4-11.4h341.3c9.6,0,17.3,5.1,17.4,11.4l12.6,58.9h92.9c15.4,0,27.9-8.3,27.9-18.4V734.1
		C3489.3,724,3476.7,715.7,3461.3,715.7z M3468.3,865.2c0,5.8-7.2,10.6-16.1,10.6h-568.8c-8.8,0-16.1-4.8-16.1-10.6V739.4
		c0-5.8,7.2-10.6,16.1-10.6h568.8c8.8,0,16.1,4.8,16.1,10.6V865.2z"/>
	<path d="M3329.8,776h-324c-3.7,0-6.7,2-6.7,4.4v52.4c0,2.4,3,4.4,6.7,4.4h324.1c3.7,0,6.7-2,6.7-4.4v-52.4
		C3336.5,778,3333.5,776,3329.8,776z"/>
	<path class="st1" d="M3275,831.3c-20.7,0-37.5-11.1-37.5-24.7c0-13.6,16.8-24.7,37.5-24.7c20.7,0,37.5,11.1,37.5,24.7
		C3312.5,820.2,3295.7,831.3,3275,831.3z"/>
	<path class="st1" d="M3056.5,831.3c-20.7,0-37.5-11.1-37.5-24.7c0-13.6,16.8-24.7,37.5-24.7c20.7,0,37.5,11.1,37.5,24.7
		C3094.1,820.2,3077.3,831.3,3056.5,831.3z"/>
</g>
<g>
	<path class="st3" d="M3438.4,460.2h-541.2c-28.1,0-50.9-22.8-50.9-50.9v-71.5c0-28.1,22.8-50.9,50.9-50.9h541.2
		c28.1,0,50.9,22.8,50.9,50.9v71.5C3489.2,437.5,3466.5,460.2,3438.4,460.2z"/>
	<path d="M3343,489.3c0-4.4-5.4-7.9-12.1-7.9h-326.4c-6.7,0-12.1,3.6-12.1,7.9l0,0.2l-12.5,58.6h375.6l-12.5-58.7V489.3z"/>
	<path d="M3461.3,287h-587.1c-15.4,0-27.9,8.3-27.9,18.4v218.8c0,10.1,12.6,18.4,27.9,18.4h92.9l12.6-58.9
		c0.1-6.3,7.9-11.4,17.4-11.4h341.3c9.5,0,17.3,5.1,17.4,11.4l12.6,58.9h92.9c15.4,0,27.9-8.3,27.9-18.4V305.4
		C3489.3,295.3,3476.7,287,3461.3,287z M3468.3,436.5c0,5.8-7.2,10.6-16.1,10.6h-568.8c-8.8,0-16.1-4.8-16.1-10.6V310.7
		c0-5.8,7.2-10.6,16.1-10.6h568.8c8.8,0,16.1,4.8,16.1,10.6V436.5z"/>
	<path d="M3329.8,347.3h-324c-3.7,0-6.7,2-6.7,4.4v52.4c0,2.4,3,4.4,6.7,4.4h324.1c3.7,0,6.7-2,6.7-4.4v-52.4
		C3336.5,349.3,3333.5,347.3,3329.8,347.3z"/>
	<path class="st1" d="M3058.8,402.6c-20.7,0-37.5-11.1-37.5-24.7s16.8-24.7,37.5-24.7s37.5,11.1,37.5,24.7
		C3096.4,391.6,3079.6,402.6,3058.8,402.6z"/>
	<path class="st1" d="M3272.8,403.3c-20.7,0-37.5-11.1-37.5-24.7s16.8-24.7,37.5-24.7s37.5,11.1,37.5,24.7
		C3310.4,392.2,3293.6,403.3,3272.8,403.3z"/>
</g>
<g>
	<path class="st2" d="M3441.7,1732.7h-539.2c-26.3,0-47.6-21.3-47.6-47.6v-79.5c0-26.3,21.3-47.6,47.6-47.6h539.2
		c26.3,0,47.6,21.3,47.6,47.6v79.5C3489.3,1711.4,3468,1732.7,3441.7,1732.7z"/>
	<path d="M3343,1760.3c0-4.4-5.4-7.9-12.1-7.9h-326.4c-6.7,0-12.1,3.6-12.1,7.9l0,0.2l-12.5,58.6h375.6l-12.5-58.7V1760.3z"/>
	<path d="M3461.3,1558h-587.1c-15.4,0-27.9,8.3-27.9,18.4v218.8c0,10.1,12.6,18.4,27.9,18.4h92.9l12.6-58.9
		c0.1-6.3,7.9-11.4,17.4-11.4h341.3c9.6,0,17.3,5.1,17.4,11.4l12.6,58.9h92.9c15.4,0,27.9-8.3,27.9-18.4v-218.8
		C3489.3,1566.3,3476.7,1558,3461.3,1558z M3468.3,1707.5c0,5.8-7.2,10.6-16.1,10.6h-568.8c-8.8,0-16.1-4.8-16.1-10.6v-125.8
		c0-5.8,7.2-10.6,16.1-10.6h568.8c8.8,0,16.1,4.8,16.1,10.6V1707.5z"/>
	<path d="M3329.8,1618.3h-324c-3.7,0-6.7,2-6.7,4.4v52.4c0,2.4,3,4.4,6.7,4.4h324.1c3.7,0,6.7-2,6.7-4.4v-52.4
		C3336.5,1620.3,3333.5,1618.3,3329.8,1618.3z"/>
	<path class="st1" d="M3275,1673.6c-20.7,0-37.5-11.1-37.5-24.7c0-13.6,16.8-24.7,37.5-24.7c20.7,0,37.5,11.1,37.5,24.7
		C3312.5,1662.5,3295.7,1673.6,3275,1673.6z"/>
	<path class="st1" d="M3056.5,1673.6c-20.7,0-37.5-11.1-37.5-24.7c0-13.6,16.8-24.7,37.5-24.7c20.7,0,37.5,11.1,37.5,24.7
		C3094.1,1662.5,3077.3,1673.6,3056.5,1673.6z"/>
</g>
<g>
	<path class="st3" d="M3435.1,1312h-534.6c-29.9,0-54.2-24.3-54.2-54.2v-63.8c0-29.9,24.3-54.2,54.2-54.2h534.6
		c29.9,0,54.2,24.3,54.2,54.2v63.8C3489.3,1287.7,3465,1312,3435.1,1312z"/>
	<path d="M3343,1342.2c0-4.4-5.4-7.9-12.1-7.9h-326.4c-6.7,0-12.1,3.6-12.1,7.9l0,0.2L2980,1401h375.6l-12.5-58.7V1342.2z"/>
	<path d="M3461.4,1139.9h-587.1c-15.4,0-27.9,8.3-27.9,18.4v218.8c0,10.1,12.6,18.4,27.9,18.4h92.9l12.6-58.9
		c0.1-6.3,7.9-11.4,17.4-11.4h341.3c9.5,0,17.3,5.1,17.4,11.4l12.6,58.9h92.9c15.4,0,27.9-8.3,27.9-18.4v-218.8
		C3489.3,1148.2,3476.7,1139.9,3461.4,1139.9z M3468.3,1289.4c0,5.8-7.2,10.6-16.1,10.6h-568.8c-8.8,0-16.1-4.8-16.1-10.6v-125.8
		c0-5.8,7.2-10.6,16.1-10.6h568.8c8.8,0,16.1,4.8,16.1,10.6V1289.4z"/>
	<path d="M3329.8,1200.2h-324c-3.7,0-6.7,2-6.7,4.4v52.4c0,2.4,3,4.4,6.7,4.4h324.1c3.7,0,6.7-2,6.7-4.4v-52.4
		C3336.5,1202.2,3333.5,1200.2,3329.8,1200.2z"/>
	<path class="st1" d="M3058.8,1255.5c-20.7,0-37.5-11.1-37.5-24.7c0-13.6,16.8-24.7,37.5-24.7c20.7,0,37.5,11.1,37.5,24.7
		C3096.4,1244.4,3079.6,1255.5,3058.8,1255.5z"/>
	<path class="st1" d="M3272.8,1256.2c-20.7,0-37.5-11.1-37.5-24.7s16.8-24.7,37.5-24.7c20.7,0,37.5,11.1,37.5,24.7
		C3310.4,1245.1,3293.6,1256.2,3272.8,1256.2z"/>
</g>
<g>
	<path class="st4" d="M2563.8,2609h-551.1c-25.8,0-46.7-20.9-46.7-46.7v-83.8c0-25.8,20.9-46.7,46.7-46.7h551.1
		c25.8,0,46.7,20.9,46.7,46.7v83.8C2610.5,2588.1,2589.6,2609,2563.8,2609z"/>
	<path d="M2463.9,2635.3c0-4.4-5.4-8-12.1-8h-327.2c-6.7,0-12.1,3.6-12.1,8l0,0.2l-12.6,58.9h376.5l-12.6-59V2635.3z"/>
	<path d="M2582.5,2429H1994c-15.4,0-28,8.5-28,18.9v224.8c0,10.4,12.6,18.9,28,18.9h93.1l12.6-60.6c0.1-6.5,7.9-11.7,17.5-11.7
		h342.1c9.6,0,17.4,5.2,17.5,11.7l12.6,60.6h93.1c15.4,0,28-8.5,28-18.9V2448C2610.5,2437.6,2597.9,2429,2582.5,2429z
		 M2589.5,2582.7c0,6-7.2,10.9-16.1,10.9h-570.2c-8.9,0-16.1-4.9-16.1-10.9v-129.3c0-6,7.2-10.9,16.1-10.9h570.2
		c8.9,0,16.1,4.9,16.1,10.9V2582.7z"/>
	<path d="M2450.6,2492.5h-324.8c-3.7,0-6.7,2-6.7,4.4v52.7c0,2.4,3,4.4,6.7,4.4h324.8c3.7,0,6.7-2,6.7-4.4v-52.7
		C2457.4,2494.5,2454.3,2492.5,2450.6,2492.5z"/>
	<path class="st1" d="M2395.7,2548.1c-20.8,0-37.6-11.1-37.6-24.9s16.8-24.9,37.6-24.9c20.8,0,37.6,11.1,37.6,24.9
		C2433.3,2537,2416.5,2548.1,2395.7,2548.1z"/>
	<path class="st1" d="M2176.8,2548.1c-20.8,0-37.6-11.1-37.6-24.9s16.8-24.9,37.6-24.9s37.6,11.1,37.6,24.9
		C2214.4,2537,2197.6,2548.1,2176.8,2548.1z"/>
</g>
<g>
	<path class="st0" d="M2559.8,2180.7h-543.1c-28,0-50.7-22.7-50.7-50.7v-72.9c0-28,22.7-50.7,50.7-50.7h543.1
		c28,0,50.7,22.7,50.7,50.7v72.9C2610.5,2158,2587.8,2180.7,2559.8,2180.7z"/>
	<path d="M2463.9,2210c0-4.4-5.4-8-12.1-8h-327.1c-6.7,0-12.1,3.6-12.1,8l0,0.2l-12.6,58.9h376.5l-12.6-59V2210z"/>
	<path d="M2582.5,2006.4h-588.4c-15.4,0-28,8.3-28,18.5V2245c0,10.2,12.6,18.5,28,18.5h93.1l12.6-59.3c0.1-6.3,7.9-11.4,17.5-11.4
		h342.1c9.6,0,17.4,5.1,17.5,11.4l12.6,59.3h93.1c15.4,0,28-8.3,28-18.5V2025C2610.5,2014.8,2597.9,2006.4,2582.5,2006.4z
		 M2589.5,2156.9c0,5.9-7.2,10.7-16.1,10.7h-570.1c-8.9,0-16.1-4.8-16.1-10.7v-126.6c0-5.9,7.2-10.7,16.1-10.7h570.1
		c8.9,0,16.1,4.8,16.1,10.7V2156.9z"/>
	<path d="M2450.7,2067.1h-324.8c-3.7,0-6.7,2-6.7,4.4v52.7c0,2.4,3,4.4,6.7,4.4h324.8c3.7,0,6.7-2,6.7-4.4v-52.7
		C2457.4,2069.1,2454.3,2067.1,2450.7,2067.1z"/>
	<path class="st1" d="M2179.1,2122.7c-20.8,0-37.6-11.1-37.6-24.9c0-13.7,16.8-24.9,37.6-24.9c20.8,0,37.6,11.1,37.6,24.9
		C2216.7,2111.6,2199.8,2122.7,2179.1,2122.7z"/>
	<path class="st1" d="M2393.6,2123.4c-20.8,0-37.6-11.1-37.6-24.9c0-13.7,16.8-24.9,37.6-24.9s37.6,11.1,37.6,24.9
		C2431.2,2112.3,2414.3,2123.4,2393.6,2123.4z"/>
</g>
<g>
	<path class="st4" d="M2536.2,3462.7h-496c-41,0-74.2-33.2-74.2-74.2v-36.3c0-41,33.2-74.2,74.2-74.2h496c41,0,74.2,33.2,74.2,74.2
		v36.3C2610.5,3429.5,2577.3,3462.7,2536.2,3462.7z"/>
	<path d="M2463.9,3481.4c0-4.4-5.4-8-12.1-8h-327.2c-6.7,0-12.1,3.6-12.1,8l0,0.2l-12.6,58.9h376.5l-12.6-59V3481.4z"/>
	<path d="M2582.5,3280.3H1994c-15.4,0-28,8.3-28,18.5v220.1c0,10.2,12.6,18.5,28,18.5h93.1l12.6-59.3c0.1-6.3,7.9-11.4,17.5-11.4
		h342.1c9.6,0,17.4,5.1,17.5,11.4l12.6,59.3h93.1c15.4,0,28-8.3,28-18.5v-220.1C2610.5,3288.6,2597.9,3280.3,2582.5,3280.3z
		 M2589.5,3430.7c0,5.9-7.2,10.7-16.1,10.7h-570.2c-8.9,0-16.1-4.8-16.1-10.7v-126.6c0-5.9,7.2-10.7,16.1-10.7h570.2
		c8.9,0,16.1,4.8,16.1,10.7V3430.7z"/>
	<path d="M2450.6,3338.6h-324.8c-3.7,0-6.7,2-6.7,4.4v52.7c0,2.4,3,4.4,6.7,4.4h324.8c3.7,0,6.7-2,6.7-4.4V3343
		C2457.4,3340.6,2454.3,3338.6,2450.6,3338.6z"/>
	<path class="st1" d="M2395.7,3394.2c-20.8,0-37.6-11.1-37.6-24.9s16.8-24.9,37.6-24.9c20.8,0,37.6,11.1,37.6,24.9
		C2433.3,3383.1,2416.5,3394.2,2395.7,3394.2z"/>
	<path class="st1" d="M2176.8,3394.2c-20.8,0-37.6-11.1-37.6-24.9s16.8-24.9,37.6-24.9s37.6,11.1,37.6,24.9
		C2214.4,3383.1,2197.6,3394.2,2176.8,3394.2z"/>
</g>
<g>
	<path class="st0" d="M2558,3045.7h-539.5c-29,0-52.4-23.5-52.4-52.4v-81.5c0-29,23.5-52.4,52.4-52.4H2558c29,0,52.4,23.5,52.4,52.4
		v81.5C2610.5,3022.2,2587,3045.7,2558,3045.7z"/>
	<path d="M2463.9,3062.8c0-4.4-5.4-8-12.1-8h-327.2c-6.7,0-12.1,3.6-12.1,8l0,0.2L2100,3122h376.5l-12.6-59V3062.8z"/>
	<path d="M2582.5,2859.3H1994c-15.4,0-28,8.3-28,18.5v220.1c0,10.2,12.6,18.5,28,18.5h93.1l12.6-59.3c0.1-6.3,7.9-11.4,17.5-11.4
		h342.1c9.6,0,17.4,5.1,17.5,11.4l12.6,59.3h93.1c15.4,0,28-8.3,28-18.5v-220.1C2610.5,2867.6,2597.9,2859.3,2582.5,2859.3z
		 M2589.5,3009.7c0,5.9-7.2,10.7-16.1,10.7h-570.2c-8.9,0-16.1-4.8-16.1-10.7v-126.6c0-5.9,7.2-10.7,16.1-10.7h570.2
		c8.9,0,16.1,4.8,16.1,10.7V3009.7z"/>
	<path d="M2450.6,2920h-324.8c-3.7,0-6.7,2-6.7,4.4v52.7c0,2.4,3,4.4,6.7,4.4h324.8c3.7,0,6.7-2,6.7-4.4v-52.7
		C2457.4,2922,2454.3,2920,2450.6,2920z"/>
	<path class="st1" d="M2179.1,2975.6c-20.8,0-37.6-11.1-37.6-24.9c0-13.7,16.8-24.9,37.6-24.9c20.8,0,37.6,11.1,37.6,24.9
		C2216.7,2964.5,2199.8,2975.6,2179.1,2975.6z"/>
	<path class="st1" d="M2393.5,2976.3c-20.8,0-37.6-11.1-37.6-24.9c0-13.7,16.8-24.9,37.6-24.9c20.8,0,37.6,11.1,37.6,24.9
		C2431.2,2965.2,2414.3,2976.3,2393.5,2976.3z"/>
</g>
<g>
	<path class="st2" d="M3446.7,2600h-557.8c-23.5,0-42.5-19-42.5-42.5v-83.7c0-23.5,19-42.5,42.5-42.5h557.8
		c23.5,0,42.5,19,42.5,42.5v83.7C3489.3,2581,3470.2,2600,3446.7,2600z"/>
	<path d="M3343,2633.5c0-4.4-5.4-7.9-12.1-7.9h-326.4c-6.7,0-12.1,3.6-12.1,7.9l0,0.2l-12.5,58.6h375.6l-12.5-58.7V2633.5z"/>
	<path d="M3461.3,2431.2h-587.1c-15.4,0-27.9,8.3-27.9,18.4v218.8c0,10.1,12.6,18.4,27.9,18.4h92.9l12.6-58.9
		c0.1-6.3,7.9-11.4,17.4-11.4h341.3c9.6,0,17.3,5.1,17.4,11.4l12.6,58.9h92.9c15.4,0,27.9-8.3,27.9-18.4v-218.8
		C3489.3,2439.5,3476.7,2431.2,3461.3,2431.2z M3468.3,2580.7c0,5.8-7.2,10.6-16.1,10.6h-568.8c-8.8,0-16.1-4.8-16.1-10.6v-125.8
		c0-5.8,7.2-10.6,16.1-10.6h568.8c8.8,0,16.1,4.8,16.1,10.6V2580.7z"/>
	<path d="M3329.8,2491.5h-324c-3.7,0-6.7,2-6.7,4.4v52.4c0,2.4,3,4.4,6.7,4.4h324.1c3.7,0,6.7-2,6.7-4.4v-52.4
		C3336.5,2493.5,3333.5,2491.5,3329.8,2491.5z"/>
	<path class="st1" d="M3275,2546.8c-20.7,0-37.5-11.1-37.5-24.7s16.8-24.7,37.5-24.7c20.7,0,37.5,11.1,37.5,24.7
		C3312.5,2535.7,3295.7,2546.8,3275,2546.8z"/>
	<path class="st1" d="M3056.5,2546.8c-20.7,0-37.5-11.1-37.5-24.7s16.8-24.7,37.5-24.7c20.7,0,37.5,11.1,37.5,24.7
		C3094.1,2535.7,3077.3,2546.8,3056.5,2546.8z"/>
</g>
<g>
	<path class="st3" d="M3444.5,2180.4h-553.4c-24.7,0-44.8-20-44.8-44.8V2052c0-24.7,20-44.8,44.8-44.8h553.4
		c24.7,0,44.8,20,44.8,44.8v83.7C3489.2,2160.4,3469.2,2180.4,3444.5,2180.4z"/>
	<path d="M3343,2209.5c0-4.4-5.4-7.9-12.1-7.9h-326.4c-6.7,0-12.1,3.6-12.1,7.9l0,0.2l-12.5,58.6h375.6l-12.5-58.7V2209.5z"/>
	<path d="M3461.3,2007.2h-587.1c-15.4,0-27.9,8.3-27.9,18.4v218.8c0,10.1,12.6,18.4,27.9,18.4h92.9l12.6-58.9
		c0.1-6.3,7.9-11.4,17.4-11.4h341.3c9.5,0,17.3,5.1,17.4,11.4l12.6,58.9h92.9c15.4,0,27.9-8.3,27.9-18.4v-218.8
		C3489.3,2015.5,3476.7,2007.2,3461.3,2007.2z M3468.3,2156.7c0,5.8-7.2,10.6-16.1,10.6h-568.8c-8.8,0-16.1-4.8-16.1-10.6v-125.8
		c0-5.8,7.2-10.6,16.1-10.6h568.8c8.8,0,16.1,4.8,16.1,10.6V2156.7z"/>
	<path d="M3329.8,2067.5h-324c-3.7,0-6.7,2-6.7,4.4v52.4c0,2.4,3,4.4,6.7,4.4h324.1c3.7,0,6.7-2,6.7-4.4v-52.4
		C3336.5,2069.5,3333.5,2067.5,3329.8,2067.5z"/>
	<path class="st1" d="M3058.8,2122.8c-20.7,0-37.5-11.1-37.5-24.7s16.8-24.7,37.5-24.7s37.5,11.1,37.5,24.7
		C3096.4,2111.8,3079.6,2122.8,3058.8,2122.8z"/>
	<path class="st1" d="M3272.8,2123.5c-20.7,0-37.5-11.1-37.5-24.7s16.8-24.7,37.5-24.7s37.5,11.1,37.5,24.7
		C3310.3,2112.4,3293.6,2123.5,3272.8,2123.5z"/>
</g>
<g>
	<path class="st2" d="M3468.6,3453.4h-593.1c-11.4,0-20.7-9.3-20.7-20.7v-133.3c0-11.4,9.3-20.7,20.7-20.7h593.1
		c11.4,0,20.7,9.3,20.7,20.7v133.3C3489.3,3444.1,3480,3453.4,3468.6,3453.4z"/>
	<path d="M3343,3481c0-4.4-5.4-7.9-12.1-7.9h-326.4c-6.7,0-12.1,3.6-12.1,7.9l0,0.2l-12.5,58.6h375.6l-12.5-58.7V3481z"/>
	<path d="M3461.3,3278.7h-587.1c-15.4,0-27.9,8.3-27.9,18.4v218.8c0,10.1,12.6,18.4,27.9,18.4h92.9l12.6-58.9
		c0.1-6.3,7.9-11.4,17.4-11.4h341.3c9.6,0,17.3,5.1,17.4,11.4l12.6,58.9h92.9c15.4,0,27.9-8.3,27.9-18.4v-218.8
		C3489.3,3287,3476.7,3278.7,3461.3,3278.7z M3468.3,3428.2c0,5.8-7.2,10.6-16.1,10.6h-568.8c-8.8,0-16.1-4.8-16.1-10.6v-125.8
		c0-5.8,7.2-10.6,16.1-10.6h568.8c8.8,0,16.1,4.8,16.1,10.6V3428.2z"/>
	<path d="M3329.8,3339h-324c-3.7,0-6.7,2-6.7,4.4v52.4c0,2.4,3,4.4,6.7,4.4h324.1c3.7,0,6.7-2,6.7-4.4v-52.4
		C3336.5,3341,3333.5,3339,3329.8,3339z"/>
	<path class="st1" d="M3275,3394.3c-20.7,0-37.5-11.1-37.5-24.7s16.8-24.7,37.5-24.7c20.7,0,37.5,11.1,37.5,24.7
		C3312.5,3383.2,3295.7,3394.3,3275,3394.3z"/>
	<path class="st1" d="M3056.5,3394.3c-20.7,0-37.5-11.1-37.5-24.7s16.8-24.7,37.5-24.7c20.7,0,37.5,11.1,37.5,24.7
		C3094.1,3383.2,3077.3,3394.3,3056.5,3394.3z"/>
</g>
<g>
	<path class="st3" d="M3430.4,3032.2h-525.3c-32.5,0-58.8-26.3-58.8-58.8v-54.5c0-32.5,26.3-58.8,58.8-58.8h525.3
		c32.5,0,58.8,26.3,58.8,58.8v54.5C3489.2,3005.9,3462.9,3032.2,3430.4,3032.2z"/>
	<path d="M3343,3062.4c0-4.4-5.4-7.9-12.1-7.9h-326.4c-6.7,0-12.1,3.6-12.1,7.9l0,0.2l-12.5,58.6h375.6l-12.5-58.7V3062.4z"/>
	<path d="M3461.3,2860.1h-587.1c-15.4,0-27.9,8.3-27.9,18.4v218.8c0,10.1,12.6,18.4,27.9,18.4h92.9l12.6-58.9
		c0.1-6.3,7.9-11.4,17.4-11.4h341.3c9.6,0,17.3,5.1,17.4,11.4l12.6,58.9h92.9c15.4,0,27.9-8.3,27.9-18.4v-218.8
		C3489.3,2868.4,3476.7,2860.1,3461.3,2860.1z M3468.3,3009.6c0,5.8-7.2,10.6-16.1,10.6h-568.8c-8.8,0-16.1-4.8-16.1-10.6v-125.8
		c0-5.8,7.2-10.6,16.1-10.6h568.8c8.8,0,16.1,4.8,16.1,10.6V3009.6z"/>
	<path d="M3329.8,2920.4h-324c-3.7,0-6.7,2-6.7,4.4v52.4c0,2.4,3,4.4,6.7,4.4h324.1c3.7,0,6.7-2,6.7-4.4v-52.4
		C3336.5,2922.4,3333.5,2920.4,3329.8,2920.4z"/>
	<path class="st1" d="M3058.8,2975.7c-20.7,0-37.5-11.1-37.5-24.7c0-13.6,16.8-24.7,37.5-24.7c20.7,0,37.5,11.1,37.5,24.7
		C3096.4,2964.6,3079.6,2975.7,3058.8,2975.7z"/>
	<path class="st1" d="M3272.8,2976.4c-20.7,0-37.5-11.1-37.5-24.7s16.8-24.7,37.5-24.7c20.7,0,37.5,11.1,37.5,24.7
		C3310.3,2965.3,3293.5,2976.4,3272.8,2976.4z"/>
</g>
<g>
	<path class="st2" d="M5168.8,884.5h-534.1c-30.1,0-54.4-24.4-54.4-54.4v-60c0-30.1,24.4-54.4,54.4-54.4h534.1
		c30.1,0,54.4,24.4,54.4,54.4v60C5223.2,860.2,5198.8,884.5,5168.8,884.5z"/>
	<path d="M5077,918c0-4.4-5.4-7.9-12.1-7.9h-326.4c-6.7,0-12.1,3.6-12.1,7.9l0,0.2l-12.5,58.6h375.6l-12.5-58.7V918z"/>
	<path d="M5195.3,715.7h-587.1c-15.4,0-27.9,8.3-27.9,18.4v218.8c0,10.1,12.6,18.4,27.9,18.4h92.9l12.6-58.9
		c0.1-6.3,7.9-11.4,17.4-11.4h341.3c9.6,0,17.3,5.1,17.4,11.4l12.6,58.9h92.9c15.4,0,27.9-8.3,27.9-18.4V734.1
		C5223.2,724,5210.6,715.7,5195.3,715.7z M5202.2,865.2c0,5.8-7.2,10.6-16.1,10.6h-568.8c-8.8,0-16.1-4.8-16.1-10.6V739.4
		c0-5.8,7.2-10.6,16.1-10.6h568.8c8.8,0,16.1,4.8,16.1,10.6V865.2z"/>
	<path d="M5063.7,776h-324c-3.7,0-6.7,2-6.7,4.4v52.4c0,2.4,3,4.4,6.7,4.4h324.1c3.7,0,6.7-2,6.7-4.4v-52.4
		C5070.4,778,5067.4,776,5063.7,776z"/>
	<path class="st1" d="M5008.9,831.3c-20.7,0-37.5-11.1-37.5-24.7c0-13.6,16.8-24.7,37.5-24.7s37.5,11.1,37.5,24.7
		C5046.4,820.2,5029.6,831.3,5008.9,831.3z"/>
	<path class="st1" d="M4790.5,831.3c-20.7,0-37.5-11.1-37.5-24.7c0-13.6,16.8-24.7,37.5-24.7s37.5,11.1,37.5,24.7
		C4828,820.2,4811.2,831.3,4790.5,831.3z"/>
</g>
<g>
	<path class="st3" d="M5166.8,460.2h-530.1c-31.2,0-56.4-25.3-56.4-56.4v-60.4c0-31.2,25.3-56.4,56.4-56.4h530.1
		c31.2,0,56.4,25.3,56.4,56.4v60.4C5223.2,435,5197.9,460.2,5166.8,460.2z"/>
	<path d="M5077,489.3c0-4.4-5.4-7.9-12.1-7.9h-326.4c-6.7,0-12.1,3.6-12.1,7.9l0,0.2l-12.5,58.6h375.6l-12.5-58.7V489.3z"/>
	<path d="M5195.3,287h-587.1c-15.4,0-27.9,8.3-27.9,18.4v218.8c0,10.1,12.6,18.4,27.9,18.4h92.9l12.6-58.9
		c0.1-6.3,7.9-11.4,17.4-11.4h341.3c9.5,0,17.3,5.1,17.4,11.4l12.6,58.9h92.9c15.4,0,27.9-8.3,27.9-18.4V305.4
		C5223.2,295.3,5210.7,287,5195.3,287z M5202.2,436.5c0,5.8-7.2,10.6-16.1,10.6h-568.8c-8.8,0-16.1-4.8-16.1-10.6V310.7
		c0-5.8,7.2-10.6,16.1-10.6h568.8c8.8,0,16.1,4.8,16.1,10.6V436.5z"/>
	<path d="M5063.7,347.3h-324c-3.7,0-6.7,2-6.7,4.4v52.4c0,2.4,3,4.4,6.7,4.4h324.1c3.7,0,6.7-2,6.7-4.4v-52.4
		C5070.4,349.3,5067.4,347.3,5063.7,347.3z"/>
	<path class="st1" d="M4792.8,402.6c-20.7,0-37.5-11.1-37.5-24.7s16.8-24.7,37.5-24.7c20.7,0,37.5,11.1,37.5,24.7
		C4830.3,391.6,4813.5,402.6,4792.8,402.6z"/>
	<path class="st1" d="M5006.8,403.3c-20.7,0-37.5-11.1-37.5-24.7s16.8-24.7,37.5-24.7c20.7,0,37.5,11.1,37.5,24.7
		C5044.3,392.2,5027.5,403.3,5006.8,403.3z"/>
</g>
<g>
	<path class="st2" d="M5172,1732.7h-532c-28.3,0-51.2-22.9-51.2-51.2v-72.2c0-28.3,22.9-51.2,51.2-51.2h532
		c28.3,0,51.2,22.9,51.2,51.2v72.2C5223.3,1709.7,5200.3,1732.7,5172,1732.7z"/>
	<path d="M5077,1760.3c0-4.4-5.4-7.9-12.1-7.9h-326.4c-6.7,0-12.1,3.6-12.1,7.9l0,0.2l-12.5,58.6h375.6l-12.5-58.7V1760.3z"/>
	<path d="M5195.3,1558h-587.1c-15.4,0-27.9,8.3-27.9,18.4v218.8c0,10.1,12.6,18.4,27.9,18.4h92.9l12.6-58.9
		c0.1-6.3,7.9-11.4,17.4-11.4h341.3c9.5,0,17.3,5.1,17.4,11.4l12.6,58.9h92.9c15.4,0,27.9-8.3,27.9-18.4v-218.8
		C5223.3,1566.3,5210.7,1558,5195.3,1558z M5202.3,1707.5c0,5.8-7.2,10.6-16.1,10.6h-568.8c-8.8,0-16.1-4.8-16.1-10.6v-125.8
		c0-5.8,7.2-10.6,16.1-10.6h568.8c8.8,0,16.1,4.8,16.1,10.6V1707.5z"/>
	<path d="M5063.8,1618.3h-324c-3.7,0-6.7,2-6.7,4.4v52.4c0,2.4,3,4.4,6.7,4.4h324.1c3.7,0,6.7-2,6.7-4.4v-52.4
		C5070.5,1620.3,5067.5,1618.3,5063.8,1618.3z"/>
	<path class="st1" d="M5009,1673.6c-20.7,0-37.5-11.1-37.5-24.7c0-13.6,16.8-24.7,37.5-24.7c20.7,0,37.5,11.1,37.5,24.7
		C5046.5,1662.5,5029.7,1673.6,5009,1673.6z"/>
	<path class="st1" d="M4790.5,1673.6c-20.7,0-37.5-11.1-37.5-24.7c0-13.6,16.8-24.7,37.5-24.7s37.5,11.1,37.5,24.7
		C4828.1,1662.5,4811.3,1673.6,4790.5,1673.6z"/>
</g>
<g>
	<path class="st3" d="M5156.8,1312h-510.2c-36.7,0-66.4-29.7-66.4-66.4v-39.4c0-36.7,29.7-66.4,66.4-66.4h510.2
		c36.7,0,66.4,29.7,66.4,66.4v39.4C5223.2,1282.3,5193.5,1312,5156.8,1312z"/>
	<path d="M5077,1342.2c0-4.4-5.4-7.9-12.1-7.9h-326.4c-6.7,0-12.1,3.6-12.1,7.9l0,0.2l-12.5,58.6h375.6l-12.5-58.7V1342.2z"/>
	<path d="M5195.3,1139.9h-587.1c-15.4,0-27.9,8.3-27.9,18.4v218.8c0,10.1,12.6,18.4,27.9,18.4h92.9l12.6-58.9
		c0.1-6.3,7.9-11.4,17.4-11.4h341.3c9.6,0,17.3,5.1,17.4,11.4l12.6,58.9h92.9c15.4,0,27.9-8.3,27.9-18.4v-218.8
		C5223.2,1148.2,5210.7,1139.9,5195.3,1139.9z M5202.2,1289.4c0,5.8-7.2,10.6-16.1,10.6h-568.8c-8.8,0-16.1-4.8-16.1-10.6v-125.8
		c0-5.8,7.2-10.6,16.1-10.6h568.8c8.8,0,16.1,4.8,16.1,10.6V1289.4z"/>
	<path d="M5063.7,1200.2h-324c-3.7,0-6.7,2-6.7,4.4v52.4c0,2.4,3,4.4,6.7,4.4h324.1c3.7,0,6.7-2,6.7-4.4v-52.4
		C5070.4,1202.2,5067.4,1200.2,5063.7,1200.2z"/>
	<path class="st1" d="M4792.8,1255.5c-20.7,0-37.5-11.1-37.5-24.7c0-13.6,16.8-24.7,37.5-24.7c20.7,0,37.5,11.1,37.5,24.7
		C4830.3,1244.4,4813.5,1255.5,4792.8,1255.5z"/>
	<path class="st1" d="M5006.8,1256.2c-20.7,0-37.5-11.1-37.5-24.7s16.8-24.7,37.5-24.7c20.7,0,37.5,11.1,37.5,24.7
		C5044.3,1245.1,5027.5,1256.2,5006.8,1256.2z"/>
</g>
<g>
	<path class="st4" d="M4287.8,2609h-509.7c-37.2,0-67.4-30.2-67.4-67.4v-42.4c0-37.2,30.2-67.4,67.4-67.4h509.7
		c37.2,0,67.4,30.2,67.4,67.4v42.4C4355.2,2578.8,4325,2609,4287.8,2609z"/>
	<path d="M4208.6,2635.3c0-4.4-5.4-8-12.1-8h-327.2c-6.7,0-12.1,3.6-12.1,8l0,0.2l-12.6,58.9h376.5l-12.6-59V2635.3z"/>
	<path d="M4327.2,2429h-588.5c-15.4,0-28,8.5-28,18.9v224.8c0,10.4,12.6,18.9,28,18.9h93.1l12.6-60.6c0.1-6.5,7.9-11.7,17.5-11.7
		H4204c9.6,0,17.4,5.2,17.5,11.7l12.6,60.6h93.1c15.4,0,28-8.5,28-18.9V2448C4355.2,2437.6,4342.6,2429,4327.2,2429z M4334.1,2582.7
		c0,6-7.2,10.9-16.1,10.9h-570.2c-8.9,0-16.1-4.9-16.1-10.9v-129.3c0-6,7.2-10.9,16.1-10.9H4318c8.9,0,16.1,4.9,16.1,10.9V2582.7z"
		/>
	<path d="M4195.3,2492.5h-324.8c-3.7,0-6.7,2-6.7,4.4v52.7c0,2.4,3,4.4,6.7,4.4h324.8c3.7,0,6.7-2,6.7-4.4v-52.7
		C4202,2494.5,4199,2492.5,4195.3,2492.5z"/>
	<path class="st1" d="M4140.4,2548.1c-20.8,0-37.6-11.1-37.6-24.9s16.8-24.9,37.6-24.9s37.6,11.1,37.6,24.9
		C4178,2537,4161.1,2548.1,4140.4,2548.1z"/>
	<path class="st1" d="M3921.4,2548.1c-20.8,0-37.6-11.1-37.6-24.9s16.8-24.9,37.6-24.9c20.8,0,37.6,11.1,37.6,24.9
		C3959,2537,3942.2,2548.1,3921.4,2548.1z"/>
</g>
<g>
	<path class="st0" d="M4314.7,2188.6h-563.3c-22.4,0-40.6-18.2-40.6-40.6v-93.1c0-22.4,18.2-40.6,40.6-40.6h563.3
		c22.4,0,40.6,18.2,40.6,40.6v93.1C4355.2,2170.4,4337.1,2188.6,4314.7,2188.6z"/>
	<path d="M4208.6,2210c0-4.4-5.4-8-12.1-8h-327.2c-6.7,0-12.1,3.6-12.1,8l0,0.2l-12.6,58.9h376.5l-12.6-59V2210z"/>
	<path d="M4327.2,2006.4h-588.5c-15.4,0-28,8.3-28,18.5V2245c0,10.2,12.6,18.5,28,18.5h93.1l12.6-59.3c0.1-6.3,7.9-11.4,17.5-11.4
		H4204c9.6,0,17.4,5.1,17.5,11.4l12.6,59.3h93.1c15.4,0,28-8.3,28-18.5V2025C4355.2,2014.8,4342.6,2006.4,4327.2,2006.4z
		 M4334.1,2156.9c0,5.9-7.2,10.7-16.1,10.7h-570.1c-8.9,0-16.1-4.8-16.1-10.7v-126.6c0-5.9,7.2-10.7,16.1-10.7H4318
		c8.9,0,16.1,4.8,16.1,10.7V2156.9z"/>
	<path d="M4195.3,2067.1h-324.8c-3.7,0-6.7,2-6.7,4.4v52.7c0,2.4,3,4.4,6.7,4.4h324.8c3.7,0,6.7-2,6.7-4.4v-52.7
		C4202,2069.1,4199,2067.1,4195.3,2067.1z"/>
	<path class="st1" d="M3923.7,2122.7c-20.8,0-37.6-11.1-37.6-24.9c0-13.7,16.8-24.9,37.6-24.9s37.6,11.1,37.6,24.9
		C3961.3,2111.6,3944.5,2122.7,3923.7,2122.7z"/>
	<path class="st1" d="M4138.2,2123.4c-20.8,0-37.6-11.1-37.6-24.9c0-13.7,16.8-24.9,37.6-24.9c20.8,0,37.6,11.1,37.6,24.9
		C4175.8,2112.3,4159,2123.4,4138.2,2123.4z"/>
</g>
<g>
	<path class="st4" d="M4294.8,3462.7h-523.7c-33.4,0-60.4-27-60.4-60.4v-64c0-33.4,27-60.4,60.4-60.4h523.7
		c33.4,0,60.4,27,60.4,60.4v64C4355.2,3435.7,4328.1,3462.7,4294.8,3462.7z"/>
	<path d="M4208.6,3481.4c0-4.4-5.4-8-12.1-8h-327.2c-6.7,0-12.1,3.6-12.1,8l0,0.2l-12.6,58.9h376.5l-12.6-59V3481.4z"/>
	<path d="M4327.2,3277.9h-588.5c-15.4,0-28,8.3-28,18.5v220.1c0,10.2,12.6,18.5,28,18.5h93.1l12.6-59.3c0.1-6.3,7.9-11.4,17.5-11.4
		H4204c9.6,0,17.4,5.1,17.5,11.4l12.6,59.3h93.1c15.4,0,28-8.3,28-18.5v-220.1C4355.2,3286.3,4342.6,3277.9,4327.2,3277.9z
		 M4334.1,3428.3c0,5.9-7.2,10.7-16.1,10.7h-570.2c-8.9,0-16.1-4.8-16.1-10.7v-126.6c0-5.9,7.2-10.7,16.1-10.7H4318
		c8.9,0,16.1,4.8,16.1,10.7V3428.3z"/>
	<path d="M4195.3,3338.6h-324.8c-3.7,0-6.7,2-6.7,4.4v52.7c0,2.4,3,4.4,6.7,4.4h324.8c3.7,0,6.7-2,6.7-4.4V3343
		C4202,3340.6,4199,3338.6,4195.3,3338.6z"/>
	<path class="st1" d="M4140.4,3394.2c-20.8,0-37.6-11.1-37.6-24.9s16.8-24.9,37.6-24.9s37.6,11.1,37.6,24.9
		C4178,3383.1,4161.1,3394.2,4140.4,3394.2z"/>
	<path class="st1" d="M3921.4,3394.2c-20.8,0-37.6-11.1-37.6-24.9s16.8-24.9,37.6-24.9c20.8,0,37.6,11.1,37.6,24.9
		C3959,3383.1,3942.2,3394.2,3921.4,3394.2z"/>
</g>
<g>
	<path class="st0" d="M4275.4,3045.7h-485c-44,0-79.7-35.7-79.7-79.7V2939c0-44,35.7-79.7,79.7-79.7h485c44,0,79.7,35.7,79.7,79.7
		v26.9C4355.1,3010,4319.4,3045.7,4275.4,3045.7z"/>
	<path d="M4208.6,3062.8c0-4.4-5.4-8-12.1-8h-327.2c-6.7,0-12.1,3.6-12.1,8l0,0.2l-12.6,58.9h376.5l-12.6-59V3062.8z"/>
	<path d="M4327.2,2859.3h-588.5c-15.4,0-28,8.3-28,18.5v220.1c0,10.2,12.6,18.5,28,18.5h93.1l12.6-59.3c0.1-6.3,7.9-11.4,17.5-11.4
		H4204c9.6,0,17.4,5.1,17.5,11.4l12.6,59.3h93.1c15.4,0,28-8.3,28-18.5v-220.1C4355.2,2867.6,4342.6,2859.3,4327.2,2859.3z
		 M4334.1,3009.7c0,5.9-7.2,10.7-16.1,10.7h-570.2c-8.9,0-16.1-4.8-16.1-10.7v-126.6c0-5.9,7.2-10.7,16.1-10.7H4318
		c8.9,0,16.1,4.8,16.1,10.7V3009.7z"/>
	<path d="M4195.3,2920h-324.8c-3.7,0-6.7,2-6.7,4.4v52.7c0,2.4,3,4.4,6.7,4.4h324.8c3.7,0,6.7-2,6.7-4.4v-52.7
		C4202,2922,4199,2920,4195.3,2920z"/>
	<path class="st1" d="M3923.7,2975.6c-20.8,0-37.6-11.1-37.6-24.9c0-13.7,16.8-24.9,37.6-24.9c20.8,0,37.6,11.1,37.6,24.9
		C3961.3,2964.5,3944.5,2975.6,3923.7,2975.6z"/>
	<path class="st1" d="M4138.2,2976.3c-20.8,0-37.6-11.1-37.6-24.9c0-13.7,16.8-24.9,37.6-24.9c20.8,0,37.6,11.1,37.6,24.9
		C4175.8,2965.2,4159,2976.3,4138.2,2976.3z"/>
</g>
<g>
	<path class="st2" d="M5151.1,2600h-498.6c-39.9,0-72.2-32.3-72.2-72.2v-24.5c0-39.9,32.3-72.2,72.2-72.2h498.6
		c39.9,0,72.2,32.3,72.2,72.2v24.5C5223.3,2567.7,5190.9,2600,5151.1,2600z"/>
	<path d="M5077,2633.5c0-4.4-5.4-7.9-12.1-7.9h-326.4c-6.7,0-12.1,3.6-12.1,7.9l0,0.2l-12.5,58.6h375.6l-12.5-58.7V2633.5z"/>
	<path d="M5195.3,2431.2h-587.1c-15.4,0-27.9,8.3-27.9,18.4v218.8c0,10.1,12.6,18.4,27.9,18.4h92.9l12.6-58.9
		c0.1-6.3,7.9-11.4,17.4-11.4h341.3c9.5,0,17.3,5.1,17.4,11.4l12.6,58.9h92.9c15.4,0,27.9-8.3,27.9-18.4v-218.8
		C5223.3,2439.5,5210.7,2431.2,5195.3,2431.2z M5202.3,2580.7c0,5.8-7.2,10.6-16.1,10.6h-568.8c-8.8,0-16.1-4.8-16.1-10.6v-125.8
		c0-5.8,7.2-10.6,16.1-10.6h568.8c8.8,0,16.1,4.8,16.1,10.6V2580.7z"/>
	<path d="M5063.8,2491.5h-324c-3.7,0-6.7,2-6.7,4.4v52.4c0,2.4,3,4.4,6.7,4.4h324.1c3.7,0,6.7-2,6.7-4.4v-52.4
		C5070.5,2493.5,5067.5,2491.5,5063.8,2491.5z"/>
	<path class="st1" d="M5009,2546.8c-20.7,0-37.5-11.1-37.5-24.7s16.8-24.7,37.5-24.7s37.5,11.1,37.5,24.7
		C5046.5,2535.7,5029.7,2546.8,5009,2546.8z"/>
	<path class="st1" d="M4790.5,2546.8c-20.7,0-37.5-11.1-37.5-24.7s16.8-24.7,37.5-24.7c20.7,0,37.5,11.1,37.5,24.7
		C4828.1,2535.7,4811.3,2546.8,4790.5,2546.8z"/>
</g>
<g>
	<path class="st3" d="M5154.1,2180.4h-504.7c-38.2,0-69.1-30.9-69.1-69.1v-35c0-38.2,30.9-69.1,69.1-69.1h504.7
		c38.2,0,69.1,30.9,69.1,69.1v35C5223.2,2149.5,5192.3,2180.4,5154.1,2180.4z"/>
	<path d="M5077,2209.5c0-4.4-5.4-7.9-12.1-7.9h-326.4c-6.7,0-12.1,3.6-12.1,7.9l0,0.2l-12.5,58.6h375.6l-12.5-58.7V2209.5z"/>
	<path d="M5195.3,2007.2h-587.1c-15.4,0-27.9,8.3-27.9,18.4v218.8c0,10.1,12.6,18.4,27.9,18.4h92.9l12.6-58.9
		c0.1-6.3,7.9-11.4,17.4-11.4h341.3c9.5,0,17.3,5.1,17.4,11.4l12.6,58.9h92.9c15.4,0,27.9-8.3,27.9-18.4v-218.8
		C5223.3,2015.5,5210.7,2007.2,5195.3,2007.2z M5202.3,2156.7c0,5.8-7.2,10.6-16.1,10.6h-568.8c-8.8,0-16.1-4.8-16.1-10.6v-125.8
		c0-5.8,7.2-10.6,16.1-10.6h568.8c8.8,0,16.1,4.8,16.1,10.6V2156.7z"/>
	<path d="M5063.8,2067.5h-324c-3.7,0-6.7,2-6.7,4.4v52.4c0,2.4,3,4.4,6.7,4.4h324.1c3.7,0,6.7-2,6.7-4.4v-52.4
		C5070.5,2069.5,5067.5,2067.5,5063.8,2067.5z"/>
	<path class="st1" d="M4792.8,2122.8c-20.7,0-37.5-11.1-37.5-24.7s16.8-24.7,37.5-24.7s37.5,11.1,37.5,24.7
		C4830.4,2111.8,4813.6,2122.8,4792.8,2122.8z"/>
	<path class="st1" d="M5006.8,2123.5c-20.7,0-37.5-11.1-37.5-24.7s16.8-24.7,37.5-24.7s37.5,11.1,37.5,24.7
		C5044.3,2112.4,5027.6,2123.5,5006.8,2123.5z"/>
</g>
<g>
	<path class="st2" d="M5170.9,3453.4h-529.7c-28.9,0-52.3-23.4-52.3-52.3v-70c0-28.9,23.4-52.3,52.3-52.3h529.7
		c28.9,0,52.3,23.4,52.3,52.3v70C5223.3,3429.9,5199.8,3453.4,5170.9,3453.4z"/>
	<path d="M5077,3481c0-4.4-5.4-7.9-12.1-7.9h-326.4c-6.7,0-12.1,3.6-12.1,7.9l0,0.2l-12.5,58.6h375.6l-12.5-58.7V3481z"/>
	<path d="M5195.3,3278.7h-587.1c-15.4,0-27.9,8.3-27.9,18.4v218.8c0,10.1,12.6,18.4,27.9,18.4h92.9l12.6-58.9
		c0.1-6.3,7.9-11.4,17.4-11.4h341.3c9.5,0,17.3,5.1,17.4,11.4l12.6,58.9h92.9c15.4,0,27.9-8.3,27.9-18.4v-218.8
		C5223.3,3287,5210.7,3278.7,5195.3,3278.7z M5202.3,3428.2c0,5.8-7.2,10.6-16.1,10.6h-568.8c-8.8,0-16.1-4.8-16.1-10.6v-125.8
		c0-5.8,7.2-10.6,16.1-10.6h568.8c8.8,0,16.1,4.8,16.1,10.6V3428.2z"/>
	<path d="M5063.8,3339h-324c-3.7,0-6.7,2-6.7,4.4v52.4c0,2.4,3,4.4,6.7,4.4h324.1c3.7,0,6.7-2,6.7-4.4v-52.4
		C5070.5,3341,5067.5,3339,5063.8,3339z"/>
	<path class="st1" d="M5009,3394.3c-20.7,0-37.5-11.1-37.5-24.7s16.8-24.7,37.5-24.7c20.7,0,37.5,11.1,37.5,24.7
		C5046.5,3383.2,5029.7,3394.3,5009,3394.3z"/>
	<path class="st1" d="M4790.5,3394.3c-20.7,0-37.5-11.1-37.5-24.7s16.8-24.7,37.5-24.7s37.5,11.1,37.5,24.7
		C4828.1,3383.2,4811.3,3394.3,4790.5,3394.3z"/>
</g>
<g>
	<path class="st3" d="M5159.7,3032.2h-515.9c-35.1,0-63.5-28.4-63.5-63.5v-45.1c0-35.1,28.4-63.5,63.5-63.5h515.9
		c35.1,0,63.5,28.4,63.5,63.5v45.1C5223.2,3003.8,5194.8,3032.2,5159.7,3032.2z"/>
	<path d="M5077,3062.4c0-4.4-5.4-7.9-12.1-7.9h-326.4c-6.7,0-12.1,3.6-12.1,7.9l0,0.2l-12.5,58.6h375.6l-12.5-58.7V3062.4z"/>
	<path d="M5195.3,2860.1h-587.1c-15.4,0-27.9,8.3-27.9,18.4v218.8c0,10.1,12.6,18.4,27.9,18.4h92.9l12.6-58.9
		c0.1-6.3,7.9-11.4,17.4-11.4h341.3c9.5,0,17.3,5.1,17.4,11.4l12.6,58.9h92.9c15.4,0,27.9-8.3,27.9-18.4v-218.8
		C5223.3,2868.4,5210.7,2860.1,5195.3,2860.1z M5202.3,3009.6c0,5.8-7.2,10.6-16.1,10.6h-568.8c-8.8,0-16.1-4.8-16.1-10.6v-125.8
		c0-5.8,7.2-10.6,16.1-10.6h568.8c8.8,0,16.1,4.8,16.1,10.6V3009.6z"/>
	<path d="M5063.8,2920.4h-324c-3.7,0-6.7,2-6.7,4.4v52.4c0,2.4,3,4.4,6.7,4.4h324.1c3.7,0,6.7-2,6.7-4.4v-52.4
		C5070.5,2922.4,5067.5,2920.4,5063.8,2920.4z"/>
	<path class="st1" d="M4792.8,2975.7c-20.7,0-37.5-11.1-37.5-24.7c0-13.6,16.8-24.7,37.5-24.7s37.5,11.1,37.5,24.7
		C4830.4,2964.6,4813.6,2975.7,4792.8,2975.7z"/>
	<path class="st1" d="M5006.8,2976.4c-20.7,0-37.5-11.1-37.5-24.7s16.8-24.7,37.5-24.7s37.5,11.1,37.5,24.7
		C5044.3,2965.3,5027.5,2976.4,5006.8,2976.4z"/>
</g>
<g>
	<path class="st4" d="M6023.6,893.5h-505.1c-38.5,0-69.7-31.2-69.7-69.7V786c0-38.5,31.2-69.7,69.7-69.7h505.1
		c38.5,0,69.7,31.2,69.7,69.7v37.9C6093.2,862.3,6062,893.5,6023.6,893.5z"/>
	<path d="M5946.7,919.8c0-4.4-5.4-8-12.1-8h-327.2c-6.7,0-12.1,3.6-12.1,8l0,0.2l-12.6,58.9h376.5l-12.6-59V919.8z"/>
	<path d="M6065.2,713.5h-588.5c-15.4,0-28,8.5-28,18.9v224.8c0,10.4,12.6,18.9,28,18.9h93.1l12.6-60.6c0.1-6.5,7.9-11.7,17.5-11.7
		H5942c9.6,0,17.4,5.2,17.5,11.7l12.6,60.6h93.1c15.4,0,28-8.5,28-18.9V732.5C6093.2,722.1,6080.6,713.5,6065.2,713.5z
		 M6072.2,867.2c0,6-7.2,10.9-16.1,10.9h-570.2c-8.9,0-16.1-4.9-16.1-10.9V737.9c0-6,7.2-10.9,16.1-10.9h570.2
		c8.9,0,16.1,4.9,16.1,10.9V867.2z"/>
	<path d="M5933.4,777h-324.8c-3.7,0-6.7,2-6.7,4.4v52.7c0,2.4,3,4.4,6.7,4.4h324.8c3.7,0,6.7-2,6.7-4.4v-52.7
		C5940.1,779,5937.1,777,5933.4,777z"/>
	<path class="st1" d="M5878.4,832.6c-20.8,0-37.6-11.1-37.6-24.9s16.8-24.9,37.6-24.9s37.6,11.1,37.6,24.9
		C5916.1,821.5,5899.2,832.6,5878.4,832.6z"/>
	<path class="st1" d="M5659.5,832.6c-20.8,0-37.6-11.1-37.6-24.9s16.8-24.9,37.6-24.9s37.6,11.1,37.6,24.9
		C5697.1,821.5,5680.3,832.6,5659.5,832.6z"/>
</g>
<g>
	<path class="st0" d="M6006,460.5h-470.2c-48.1,0-87.1-39-87.1-87.1v0c0-48.1,39-87.1,87.1-87.1H6006c48.1,0,87.1,39,87.1,87.1v0
		C6093.2,421.5,6054.2,460.5,6006,460.5z"/>
	<path d="M5946.6,489.8c0-4.4-5.4-8-12.1-8h-327.1c-6.7,0-12.1,3.6-12.1,8l0,0.2l-12.6,58.9h376.5l-12.6-59V489.8z"/>
	<path d="M6065.2,286.2h-588.4c-15.4,0-28,8.3-28,18.5v220.1c0,10.2,12.6,18.5,28,18.5h93.1l12.6-59.3c0.1-6.3,7.9-11.4,17.5-11.4
		H5942c9.6,0,17.4,5.1,17.5,11.4l12.6,59.3h93.1c15.4,0,28-8.3,28-18.5V304.8C6093.2,294.6,6080.6,286.2,6065.2,286.2z
		 M6072.2,436.7c0,5.9-7.2,10.7-16.1,10.7h-570.1c-8.9,0-16.1-4.8-16.1-10.7V310.1c0-5.9,7.2-10.7,16.1-10.7H6056
		c8.9,0,16.1,4.8,16.1,10.7V436.7z"/>
	<path d="M5933.3,346.9h-324.8c-3.7,0-6.7,2-6.7,4.4V404c0,2.4,3,4.4,6.7,4.4h324.8c3.7,0,6.7-2,6.7-4.4v-52.7
		C5940,348.9,5937,346.9,5933.3,346.9z"/>
	<path class="st1" d="M5661.7,402.5c-20.8,0-37.6-11.1-37.6-24.9c0-13.7,16.8-24.9,37.6-24.9c20.8,0,37.6,11.1,37.6,24.9
		C5699.4,391.4,5682.5,402.5,5661.7,402.5z"/>
	<path class="st1" d="M5876.2,403.2c-20.8,0-37.6-11.1-37.6-24.9s16.8-24.9,37.6-24.9c20.8,0,37.6,11.1,37.6,24.9
		C5913.8,392.1,5897,403.2,5876.2,403.2z"/>
</g>
<g>
	<path class="st2" d="M6874.1,884.5h-511.4c-36.3,0-65.8-29.5-65.8-65.8v-37.3c0-36.3,29.5-65.8,65.8-65.8h511.4
		c36.3,0,65.8,29.5,65.8,65.8v37.3C6939.9,855.1,6910.5,884.5,6874.1,884.5z"/>
	<path d="M6793.7,918c0-4.4-5.4-7.9-12.1-7.9h-326.4c-6.7,0-12.1,3.6-12.1,7.9l0,0.2l-12.5,58.6h375.6l-12.5-58.7V918z"/>
	<path d="M6912,715.7h-587.1c-15.4,0-27.9,8.3-27.9,18.4v218.8c0,10.1,12.6,18.4,27.9,18.4h92.9l12.6-58.9
		c0.1-6.3,7.9-11.4,17.4-11.4h341.3c9.6,0,17.3,5.1,17.4,11.4l12.6,58.9h92.9c15.4,0,27.9-8.3,27.9-18.4V734.1
		C6939.9,724,6927.4,715.7,6912,715.7z M6919,865.2c0,5.8-7.2,10.6-16.1,10.6H6334c-8.8,0-16.1-4.8-16.1-10.6V739.4
		c0-5.8,7.2-10.6,16.1-10.6h568.8c8.8,0,16.1,4.8,16.1,10.6V865.2z"/>
	<path d="M6780.4,776h-324c-3.7,0-6.7,2-6.7,4.4v52.4c0,2.4,3,4.4,6.7,4.4h324.1c3.7,0,6.7-2,6.7-4.4v-52.4
		C6787.1,778,6784.1,776,6780.4,776z"/>
	<path class="st1" d="M6725.6,831.3c-20.7,0-37.5-11.1-37.5-24.7c0-13.6,16.8-24.7,37.5-24.7s37.5,11.1,37.5,24.7
		C6763.2,820.2,6746.4,831.3,6725.6,831.3z"/>
	<path class="st1" d="M6507.2,831.3c-20.7,0-37.5-11.1-37.5-24.7c0-13.6,16.8-24.7,37.5-24.7c20.7,0,37.5,11.1,37.5,24.7
		C6544.7,820.2,6527.9,831.3,6507.2,831.3z"/>
</g>
<g>
	<path class="st3" d="M6874.2,460.2h-511.5c-36.3,0-65.7-29.4-65.7-65.7v-41.8c0-36.3,29.4-65.7,65.7-65.7h511.5
		c36.3,0,65.7,29.4,65.7,65.7v41.8C6939.9,430.8,6910.5,460.2,6874.2,460.2z"/>
	<path d="M6793.7,489.3c0-4.4-5.4-7.9-12.1-7.9h-326.4c-6.7,0-12.1,3.6-12.1,7.9l0,0.2l-12.5,58.6h375.6l-12.5-58.7V489.3z"/>
	<path d="M6912,287h-587.1c-15.4,0-27.9,8.3-27.9,18.4v218.8c0,10.1,12.6,18.4,27.9,18.4h92.9l12.6-58.9c0.1-6.3,7.9-11.4,17.4-11.4
		h341.3c9.5,0,17.3,5.1,17.4,11.4l12.6,58.9h92.9c15.4,0,27.9-8.3,27.9-18.4V305.4C6939.9,295.3,6927.4,287,6912,287z M6919,436.5
		c0,5.8-7.2,10.6-16.1,10.6h-568.8c-8.8,0-16.1-4.8-16.1-10.6V310.7c0-5.8,7.2-10.6,16.1-10.6h568.8c8.8,0,16.1,4.8,16.1,10.6V436.5
		z"/>
	<path d="M6780.5,347.3h-324c-3.7,0-6.7,2-6.7,4.4v52.4c0,2.4,3,4.4,6.7,4.4h324.1c3.7,0,6.7-2,6.7-4.4v-52.4
		C6787.2,349.3,6784.1,347.3,6780.5,347.3z"/>
	<path class="st1" d="M6509.5,402.6c-20.7,0-37.5-11.1-37.5-24.7s16.8-24.7,37.5-24.7c20.7,0,37.5,11.1,37.5,24.7
		C6547,391.6,6530.2,402.6,6509.5,402.6z"/>
	<path class="st1" d="M6723.5,403.3c-20.7,0-37.5-11.1-37.5-24.7s16.8-24.7,37.5-24.7c20.7,0,37.5,11.1,37.5,24.7
		C6761,392.2,6744.2,403.3,6723.5,403.3z"/>
</g>
<g>
	<path class="st4" d="M6029.5,1742h-520.6c-33.2,0-60.2-27-60.2-60.2v-64.4c0-33.2,27-60.2,60.2-60.2h520.6
		c33.2,0,60.2,27,60.2,60.2v64.4C6089.7,1715.1,6062.8,1742,6029.5,1742z"/>
	<path d="M5946.6,1760.7c0-4.4-5.4-8-12.1-8h-327.2c-6.7,0-12.1,3.6-12.1,8l0,0.2l-12.6,58.9h376.5l-12.6-59V1760.7z"/>
	<path d="M6065.2,1557.2h-588.5c-15.4,0-28,8.3-28,18.5v220.1c0,10.2,12.6,18.5,28,18.5h93.1l12.6-59.3c0.1-6.3,7.9-11.4,17.5-11.4
		H5942c9.6,0,17.4,5.1,17.5,11.4l12.6,59.3h93.1c15.4,0,28-8.3,28-18.5v-220.1C6093.2,1565.6,6080.6,1557.2,6065.2,1557.2z
		 M6072.2,1707.6c0,5.9-7.2,10.7-16.1,10.7h-570.2c-8.9,0-16.1-4.8-16.1-10.7v-126.6c0-5.9,7.2-10.7,16.1-10.7H6056
		c8.9,0,16.1,4.8,16.1,10.7V1707.6z"/>
	<path d="M5933.3,1617.9h-324.8c-3.7,0-6.7,2-6.7,4.4v52.7c0,2.4,3,4.4,6.7,4.4h324.8c3.7,0,6.7-2,6.7-4.4v-52.7
		C5940,1619.9,5937,1617.9,5933.3,1617.9z"/>
	<path class="st1" d="M5878.4,1673.5c-20.8,0-37.6-11.1-37.6-24.9c0-13.7,16.8-24.9,37.6-24.9c20.8,0,37.6,11.1,37.6,24.9
		C5916,1662.4,5899.2,1673.5,5878.4,1673.5z"/>
	<path class="st1" d="M5659.4,1673.5c-20.8,0-37.6-11.1-37.6-24.9c0-13.7,16.8-24.9,37.6-24.9s37.6,11.1,37.6,24.9
		C5697.1,1662.4,5680.2,1673.5,5659.4,1673.5z"/>
</g>
<g>
	<path class="st0" d="M6023.5,1325.5h-505.1c-38.5,0-69.7-31.2-69.7-69.7v-47c0-38.5,31.2-69.7,69.7-69.7h505.1
		c38.5,0,69.7,31.2,69.7,69.7v47C6093.2,1294.3,6062,1325.5,6023.5,1325.5z"/>
	<path d="M5946.6,1342.6c0-4.4-5.4-8-12.1-8h-327.2c-6.7,0-12.1,3.6-12.1,8l0,0.2l-12.6,58.9h376.5l-12.6-59V1342.6z"/>
	<path d="M6065.2,1139.1h-588.5c-15.4,0-28,8.3-28,18.5v220.1c0,10.2,12.6,18.5,28,18.5h93.1l12.6-59.3c0.1-6.3,7.9-11.4,17.5-11.4
		H5942c9.6,0,17.4,5.1,17.5,11.4l12.6,59.3h93.1c15.4,0,28-8.3,28-18.5v-220.1C6093.2,1147.4,6080.6,1139.1,6065.2,1139.1z
		 M6072.2,1289.5c0,5.9-7.2,10.7-16.1,10.7h-570.2c-8.9,0-16.1-4.8-16.1-10.7v-126.6c0-5.9,7.2-10.7,16.1-10.7H6056
		c8.9,0,16.1,4.8,16.1,10.7V1289.5z"/>
	<path d="M5933.3,1199.8h-324.8c-3.7,0-6.7,2-6.7,4.4v52.7c0,2.4,3,4.4,6.7,4.4h324.8c3.7,0,6.7-2,6.7-4.4v-52.7
		C5940,1201.8,5937,1199.8,5933.3,1199.8z"/>
	<path class="st1" d="M5661.7,1255.4c-20.8,0-37.6-11.1-37.6-24.9c0-13.7,16.8-24.9,37.6-24.9s37.6,11.1,37.6,24.9
		C5699.3,1244.3,5682.5,1255.4,5661.7,1255.4z"/>
	<path class="st1" d="M5876.2,1256.1c-20.8,0-37.6-11.1-37.6-24.9c0-13.7,16.8-24.9,37.6-24.9c20.8,0,37.6,11.1,37.6,24.9
		C5913.8,1245,5897,1256.1,5876.2,1256.1z"/>
</g>
<g>
	<path class="st2" d="M6896.2,1732.7h-521c-31.3,0-56.7-25.4-56.7-56.7v-61.3c0-31.3,25.4-56.7,56.7-56.7h521
		c31.3,0,56.7,25.4,56.7,56.7v61.3C6952.9,1707.3,6927.6,1732.7,6896.2,1732.7z"/>
	<path d="M6806.7,1760.3c0-4.4-5.4-7.9-12.1-7.9h-326.4c-6.7,0-12.1,3.6-12.1,7.9l0,0.2l-12.5,58.6h375.6l-12.5-58.7V1760.3z"/>
	<path d="M6925,1558h-587.1c-15.4,0-27.9,8.3-27.9,18.4v218.8c0,10.1,12.6,18.4,27.9,18.4h92.9l12.6-58.9
		c0.1-6.3,7.9-11.4,17.4-11.4h341.3c9.6,0,17.3,5.1,17.4,11.4l12.6,58.9h92.9c15.4,0,27.9-8.3,27.9-18.4v-218.8
		C6953,1566.3,6940.4,1558,6925,1558z M6932,1707.5c0,5.8-7.2,10.6-16.1,10.6h-568.8c-8.8,0-16.1-4.8-16.1-10.6v-125.8
		c0-5.8,7.2-10.6,16.1-10.6h568.8c8.8,0,16.1,4.8,16.1,10.6V1707.5z"/>
	<path d="M6793.5,1618.3h-324c-3.7,0-6.7,2-6.7,4.4v52.4c0,2.4,3,4.4,6.7,4.4h324.1c3.7,0,6.7-2,6.7-4.4v-52.4
		C6800.2,1620.3,6797.2,1618.3,6793.5,1618.3z"/>
	<path class="st1" d="M6738.6,1673.6c-20.7,0-37.5-11.1-37.5-24.7c0-13.6,16.8-24.7,37.5-24.7s37.5,11.1,37.5,24.7
		C6776.2,1662.5,6759.4,1673.6,6738.6,1673.6z"/>
	<path class="st1" d="M6520.2,1673.6c-20.7,0-37.5-11.1-37.5-24.7c0-13.6,16.8-24.7,37.5-24.7s37.5,11.1,37.5,24.7
		C6557.8,1662.5,6541,1673.6,6520.2,1673.6z"/>
</g>
<g>
	<path class="st3" d="M6875.8,1312h-514.8c-35.4,0-64.1-28.7-64.1-64.1v-44c0-35.4,28.7-64.1,64.1-64.1h514.8
		c35.4,0,64.1,28.7,64.1,64.1v44C6939.9,1283.3,6911.2,1312,6875.8,1312z"/>
	<path d="M6793.7,1342.2c0-4.4-5.4-7.9-12.1-7.9h-326.4c-6.7,0-12.1,3.6-12.1,7.9l0,0.2l-12.5,58.6h375.6l-12.5-58.7V1342.2z"/>
	<path d="M6912,1139.9h-587.1c-15.4,0-27.9,8.3-27.9,18.4v218.8c0,10.1,12.6,18.4,27.9,18.4h92.9l12.6-58.9
		c0.1-6.3,7.9-11.4,17.4-11.4h341.3c9.5,0,17.3,5.1,17.4,11.4l12.6,58.9h92.9c15.4,0,27.9-8.3,27.9-18.4v-218.8
		C6940,1148.2,6927.4,1139.9,6912,1139.9z M6919,1289.4c0,5.8-7.2,10.6-16.1,10.6h-568.8c-8.8,0-16.1-4.8-16.1-10.6v-125.8
		c0-5.8,7.2-10.6,16.1-10.6h568.8c8.8,0,16.1,4.8,16.1,10.6V1289.4z"/>
	<path d="M6780.5,1200.2h-324c-3.7,0-6.7,2-6.7,4.4v52.4c0,2.4,3,4.4,6.7,4.4h324.1c3.7,0,6.7-2,6.7-4.4v-52.4
		C6787.2,1202.2,6784.1,1200.2,6780.5,1200.2z"/>
	<path class="st1" d="M6509.5,1255.5c-20.7,0-37.5-11.1-37.5-24.7c0-13.6,16.8-24.7,37.5-24.7s37.5,11.1,37.5,24.7
		C6547,1244.4,6530.2,1255.5,6509.5,1255.5z"/>
	<path class="st1" d="M6723.5,1256.2c-20.7,0-37.5-11.1-37.5-24.7s16.8-24.7,37.5-24.7s37.5,11.1,37.5,24.7
		C6761,1245.1,6744.2,1256.2,6723.5,1256.2z"/>
</g>
<g>
	<path class="st4" d="M6038.9,2609h-538.1c-29.4,0-53.2-23.8-53.2-53.2v-124h591.3c29.4,0,53.2,23.8,53.2,53.2v70.8
		C6092,2585.2,6068.2,2609,6038.9,2609z"/>
	<path d="M5947.7,2635.3c0-4.4-5.4-8-12.1-8h-327.2c-6.7,0-12.1,3.6-12.1,8l0,0.2l-12.6,58.9h376.5l-12.6-59V2635.3z"/>
	<path d="M6066.3,2429h-588.5c-15.4,0-28,8.5-28,18.9v224.8c0,10.4,12.6,18.9,28,18.9h93.1l12.6-60.6c0.1-6.5,7.9-11.7,17.5-11.7
		h342.1c9.6,0,17.4,5.2,17.5,11.7l12.6,60.6h93.1c15.4,0,28-8.5,28-18.9V2448C6094.3,2437.6,6081.7,2429,6066.3,2429z
		 M6073.3,2582.7c0,6-7.2,10.9-16.1,10.9H5487c-8.9,0-16.1-4.9-16.1-10.9v-129.3c0-6,7.2-10.9,16.1-10.9h570.2
		c8.9,0,16.1,4.9,16.1,10.9V2582.7z"/>
	<path d="M5934.4,2492.5h-324.8c-3.7,0-6.7,2-6.7,4.4v52.7c0,2.4,3,4.4,6.7,4.4h324.8c3.7,0,6.7-2,6.7-4.4v-52.7
		C5941.2,2494.5,5938.1,2492.5,5934.4,2492.5z"/>
	<path class="st1" d="M5879.5,2548.1c-20.8,0-37.6-11.1-37.6-24.9s16.8-24.9,37.6-24.9c20.8,0,37.6,11.1,37.6,24.9
		C5917.1,2537,5900.3,2548.1,5879.5,2548.1z"/>
	<path class="st1" d="M5660.6,2548.1c-20.8,0-37.6-11.1-37.6-24.9s16.8-24.9,37.6-24.9s37.6,11.1,37.6,24.9
		C5698.2,2537,5681.3,2548.1,5660.6,2548.1z"/>
</g>
<g>
	<path class="st0" d="M6025.6,2180.7h-509.2c-37.3,0-67.6-30.3-67.6-67.6v-39c0-37.3,30.3-67.6,67.6-67.6h509.2
		c37.3,0,67.6,30.3,67.6,67.6v39C6093.2,2150.4,6062.9,2180.7,6025.6,2180.7z"/>
	<path d="M5946.6,2210c0-4.4-5.4-8-12.1-8h-327.1c-6.7,0-12.1,3.6-12.1,8l0,0.2l-12.6,58.9h376.5l-12.6-59V2210z"/>
	<path d="M6065.2,2006.4h-588.4c-15.4,0-28,8.3-28,18.5V2245c0,10.2,12.6,18.5,28,18.5h93.1l12.6-59.3c0.1-6.3,7.9-11.4,17.5-11.4
		H5942c9.6,0,17.4,5.1,17.5,11.4l12.6,59.3h93.1c15.4,0,28-8.3,28-18.5V2025C6093.2,2014.8,6080.6,2006.4,6065.2,2006.4z
		 M6072.2,2156.9c0,5.9-7.2,10.7-16.1,10.7h-570.1c-8.9,0-16.1-4.8-16.1-10.7v-126.6c0-5.9,7.2-10.7,16.1-10.7H6056
		c8.9,0,16.1,4.8,16.1,10.7V2156.9z"/>
	<path d="M5933.3,2067.1h-324.8c-3.7,0-6.7,2-6.7,4.4v52.7c0,2.4,3,4.4,6.7,4.4h324.8c3.7,0,6.7-2,6.7-4.4v-52.7
		C5940,2069.1,5937,2067.1,5933.3,2067.1z"/>
	<path class="st1" d="M5661.7,2122.7c-20.8,0-37.6-11.1-37.6-24.9s16.8-24.9,37.6-24.9c20.8,0,37.6,11.1,37.6,24.9
		C5699.4,2111.6,5682.5,2122.7,5661.7,2122.7z"/>
	<path class="st1" d="M5876.2,2123.4c-20.8,0-37.6-11.1-37.6-24.9c0-13.7,16.8-24.9,37.6-24.9c20.8,0,37.6,11.1,37.6,24.9
		C5913.8,2112.3,5897,2123.4,5876.2,2123.4z"/>
</g>
<g>
	<path class="st4" d="M6034.2,3462.7h-526.5c-32.6,0-59-26.4-59-59v-66.9c0-32.6,26.4-59,59-59h526.5c32.6,0,59,26.4,59,59v66.9
		C6093.2,3436.3,6066.8,3462.7,6034.2,3462.7z"/>
	<path d="M5946.6,3481.4c0-4.4-5.4-8-12.1-8h-327.2c-6.7,0-12.1,3.6-12.1,8l0,0.2l-12.6,58.9h376.5l-12.6-59V3481.4z"/>
	<path d="M6065.2,3277.9h-588.5c-15.4,0-28,8.3-28,18.5v220.1c0,10.2,12.6,18.5,28,18.5h93.1l12.6-59.3c0.1-6.3,7.9-11.4,17.5-11.4
		H5942c9.6,0,17.4,5.1,17.5,11.4l12.6,59.3h93.1c15.4,0,28-8.3,28-18.5v-220.1C6093.2,3286.3,6080.6,3277.9,6065.2,3277.9z
		 M6072.2,3428.3c0,5.9-7.2,10.7-16.1,10.7h-570.2c-8.9,0-16.1-4.8-16.1-10.7v-126.6c0-5.9,7.2-10.7,16.1-10.7H6056
		c8.9,0,16.1,4.8,16.1,10.7V3428.3z"/>
	<path d="M5933.3,3338.6h-324.8c-3.7,0-6.7,2-6.7,4.4v52.7c0,2.4,3,4.4,6.7,4.4h324.8c3.7,0,6.7-2,6.7-4.4V3343
		C5940,3340.6,5937,3338.6,5933.3,3338.6z"/>
	<path class="st1" d="M5878.4,3394.2c-20.8,0-37.6-11.1-37.6-24.9s16.8-24.9,37.6-24.9c20.8,0,37.6,11.1,37.6,24.9
		C5916,3383.1,5899.2,3394.2,5878.4,3394.2z"/>
	<path class="st1" d="M5659.4,3394.2c-20.8,0-37.6-11.1-37.6-24.9s16.8-24.9,37.6-24.9s37.6,11.1,37.6,24.9
		C5697.1,3383.1,5680.2,3394.2,5659.4,3394.2z"/>
</g>
<g>
	<path class="st0" d="M6017.4,3045.7h-492.9c-41.8,0-75.8-33.9-75.8-75.8v-34.9c0-41.8,33.9-75.8,75.8-75.8h492.9
		c41.8,0,75.8,33.9,75.8,75.8v34.9C6093.2,3011.8,6059.2,3045.7,6017.4,3045.7z"/>
	<path d="M5946.6,3062.8c0-4.4-5.4-8-12.1-8h-327.2c-6.7,0-12.1,3.6-12.1,8l0,0.2l-12.6,58.9h376.5l-12.6-59V3062.8z"/>
	<path d="M6065.2,2859.3h-588.5c-15.4,0-28,8.3-28,18.5v220.1c0,10.2,12.6,18.5,28,18.5h93.1l12.6-59.3c0.1-6.3,7.9-11.4,17.5-11.4
		H5942c9.6,0,17.4,5.1,17.5,11.4l12.6,59.3h93.1c15.4,0,28-8.3,28-18.5v-220.1C6093.2,2867.6,6080.6,2859.3,6065.2,2859.3z
		 M6072.2,3009.7c0,5.9-7.2,10.7-16.1,10.7h-570.2c-8.9,0-16.1-4.8-16.1-10.7v-126.6c0-5.9,7.2-10.7,16.1-10.7H6056
		c8.9,0,16.1,4.8,16.1,10.7V3009.7z"/>
	<path d="M5933.3,2920h-324.8c-3.7,0-6.7,2-6.7,4.4v52.7c0,2.4,3,4.4,6.7,4.4h324.8c3.7,0,6.7-2,6.7-4.4v-52.7
		C5940,2922,5937,2920,5933.3,2920z"/>
	<path class="st1" d="M5661.7,2975.6c-20.8,0-37.6-11.1-37.6-24.9c0-13.7,16.8-24.9,37.6-24.9c20.8,0,37.6,11.1,37.6,24.9
		C5699.4,2964.5,5682.5,2975.6,5661.7,2975.6z"/>
	<path class="st1" d="M5876.2,2976.3c-20.8,0-37.6-11.1-37.6-24.9c0-13.7,16.8-24.9,37.6-24.9s37.6,11.1,37.6,24.9
		C5913.8,2965.2,5897,2976.3,5876.2,2976.3z"/>
</g>
<g>
	<path class="st2" d="M6898.7,2600h-544.9c-27.1,0-49-21.9-49-49v-70.8c0-27.1,21.9-49,49-49h544.9c27.1,0,49,21.9,49,49v70.8
		C6947.7,2578.1,6925.7,2600,6898.7,2600z"/>
	<path d="M6801.4,2633.5c0-4.4-5.4-7.9-12.1-7.9H6463c-6.7,0-12.1,3.6-12.1,7.9l0,0.2l-12.5,58.6H6814l-12.5-58.7V2633.5z"/>
	<path d="M6919.8,2431.2h-587.1c-15.4,0-27.9,8.3-27.9,18.4v218.8c0,10.1,12.6,18.4,27.9,18.4h92.9l12.6-58.9
		c0.1-6.3,7.9-11.4,17.4-11.4h341.3c9.6,0,17.3,5.1,17.4,11.4l12.6,58.9h92.9c15.4,0,27.9-8.3,27.9-18.4v-218.8
		C6947.7,2439.5,6935.1,2431.2,6919.8,2431.2z M6926.7,2580.7c0,5.8-7.2,10.6-16.1,10.6h-568.8c-8.8,0-16.1-4.8-16.1-10.6v-125.8
		c0-5.8,7.2-10.6,16.1-10.6h568.8c8.8,0,16.1,4.8,16.1,10.6V2580.7z"/>
	<path d="M6788.2,2491.5h-324c-3.7,0-6.7,2-6.7,4.4v52.4c0,2.4,3,4.4,6.7,4.4h324.1c3.7,0,6.7-2,6.7-4.4v-52.4
		C6794.9,2493.5,6791.9,2491.5,6788.2,2491.5z"/>
	<path class="st1" d="M6733.4,2546.8c-20.7,0-37.5-11.1-37.5-24.7s16.8-24.7,37.5-24.7c20.7,0,37.5,11.1,37.5,24.7
		C6770.9,2535.7,6754.1,2546.8,6733.4,2546.8z"/>
	<path class="st1" d="M6515,2546.8c-20.7,0-37.5-11.1-37.5-24.7s16.8-24.7,37.5-24.7s37.5,11.1,37.5,24.7
		C6552.5,2535.7,6535.7,2546.8,6515,2546.8z"/>
</g>
<g>
	<path class="st3" d="M6882.9,2180.4h-513.5c-35.8,0-64.7-29-64.7-64.7v-43.8c0-35.8,29-64.7,64.7-64.7h513.5
		c35.8,0,64.7,29,64.7,64.7v43.8C6947.7,2151.5,6918.7,2180.4,6882.9,2180.4z"/>
	<path d="M6801.5,2209.5c0-4.4-5.4-7.9-12.1-7.9H6463c-6.7,0-12.1,3.6-12.1,7.9l0,0.2l-12.5,58.6H6814l-12.5-58.7V2209.5z"/>
	<path d="M6919.8,2007.2h-587.1c-15.4,0-27.9,8.3-27.9,18.4v218.8c0,10.1,12.6,18.4,27.9,18.4h92.9l12.6-58.9
		c0.1-6.3,7.9-11.4,17.4-11.4h341.3c9.5,0,17.3,5.1,17.4,11.4l12.6,58.9h92.9c15.4,0,27.9-8.3,27.9-18.4v-218.8
		C6947.7,2015.5,6935.1,2007.2,6919.8,2007.2z M6926.7,2156.7c0,5.8-7.2,10.6-16.1,10.6h-568.8c-8.8,0-16.1-4.8-16.1-10.6v-125.8
		c0-5.8,7.2-10.6,16.1-10.6h568.8c8.8,0,16.1,4.8,16.1,10.6V2156.7z"/>
	<path d="M6788.2,2067.5h-324c-3.7,0-6.7,2-6.7,4.4v52.4c0,2.4,3,4.4,6.7,4.4h324.1c3.7,0,6.7-2,6.7-4.4v-52.4
		C6794.9,2069.5,6791.9,2067.5,6788.2,2067.5z"/>
	<path class="st1" d="M6517.3,2122.8c-20.7,0-37.5-11.1-37.5-24.7s16.8-24.7,37.5-24.7c20.7,0,37.5,11.1,37.5,24.7
		C6554.8,2111.8,6538,2122.8,6517.3,2122.8z"/>
	<path class="st1" d="M6731.2,2123.5c-20.7,0-37.5-11.1-37.5-24.7s16.8-24.7,37.5-24.7c20.7,0,37.5,11.1,37.5,24.7
		C6768.8,2112.4,6752,2123.5,6731.2,2123.5z"/>
</g>
<g>
	<path class="st2" d="M6889.1,3453.4h-517.2c-32.4,0-58.6-26.2-58.6-58.6v-57.5c0-32.4,26.2-58.6,58.6-58.6h517.2
		c32.4,0,58.6,26.2,58.6,58.6v57.5C6947.7,3427.1,6921.5,3453.4,6889.1,3453.4z"/>
	<path d="M6801.5,3481c0-4.4-5.4-7.9-12.1-7.9H6463c-6.7,0-12.1,3.6-12.1,7.9l0,0.2l-12.5,58.6H6814l-12.5-58.7V3481z"/>
	<path d="M6919.8,3278.7h-587.1c-15.4,0-27.9,8.3-27.9,18.4v218.8c0,10.1,12.6,18.4,27.9,18.4h92.9l12.6-58.9
		c0.1-6.3,7.9-11.4,17.4-11.4h341.3c9.5,0,17.3,5.1,17.4,11.4l12.6,58.9h92.9c15.4,0,27.9-8.3,27.9-18.4v-218.8
		C6947.7,3287,6935.1,3278.7,6919.8,3278.7z M6926.7,3428.2c0,5.8-7.2,10.6-16.1,10.6h-568.8c-8.8,0-16.1-4.8-16.1-10.6v-125.8
		c0-5.8,7.2-10.6,16.1-10.6h568.8c8.8,0,16.1,4.8,16.1,10.6V3428.2z"/>
	<path d="M6788.2,3339h-324c-3.7,0-6.7,2-6.7,4.4v52.4c0,2.4,3,4.4,6.7,4.4h324.1c3.7,0,6.7-2,6.7-4.4v-52.4
		C6794.9,3341,6791.9,3339,6788.2,3339z"/>
	<path class="st1" d="M6733.4,3394.3c-20.7,0-37.5-11.1-37.5-24.7s16.8-24.7,37.5-24.7c20.7,0,37.5,11.1,37.5,24.7
		C6770.9,3383.2,6754.1,3394.3,6733.4,3394.3z"/>
	<path class="st1" d="M6515,3394.3c-20.7,0-37.5-11.1-37.5-24.7s16.8-24.7,37.5-24.7c20.7,0,37.5,11.1,37.5,24.7
		C6552.5,3383.2,6535.7,3394.3,6515,3394.3z"/>
</g>
<g>
	<path class="st3" d="M6891.6,3032.2h-530.8c-31,0-56-25.1-56-56v-60c0-31,25.1-56,56-56h530.8c31,0,56,25.1,56,56v60
		C6947.7,3007.1,6922.6,3032.2,6891.6,3032.2z"/>
	<path d="M6801.5,3062.4c0-4.4-5.4-7.9-12.1-7.9H6463c-6.7,0-12.1,3.6-12.1,7.9l0,0.2l-12.5,58.6H6814l-12.5-58.7V3062.4z"/>
	<path d="M6919.8,2860.1h-587.1c-15.4,0-27.9,8.3-27.9,18.4v218.8c0,10.1,12.6,18.4,27.9,18.4h92.9l12.6-58.9
		c0.1-6.3,7.9-11.4,17.4-11.4h341.3c9.6,0,17.3,5.1,17.4,11.4l12.6,58.9h92.9c15.4,0,27.9-8.3,27.9-18.4v-218.8
		C6947.7,2868.4,6935.1,2860.1,6919.8,2860.1z M6926.7,3009.6c0,5.8-7.2,10.6-16.1,10.6h-568.8c-8.8,0-16.1-4.8-16.1-10.6v-125.8
		c0-5.8,7.2-10.6,16.1-10.6h568.8c8.8,0,16.1,4.8,16.1,10.6V3009.6z"/>
	<path d="M6788.2,2920.4h-324c-3.7,0-6.7,2-6.7,4.4v52.4c0,2.4,3,4.4,6.7,4.4h324.1c3.7,0,6.7-2,6.7-4.4v-52.4
		C6794.9,2922.4,6791.9,2920.4,6788.2,2920.4z"/>
	<path class="st1" d="M6517.3,2975.7c-20.7,0-37.5-11.1-37.5-24.7c0-13.6,16.8-24.7,37.5-24.7c20.7,0,37.5,11.1,37.5,24.7
		C6554.8,2964.6,6538,2975.7,6517.3,2975.7z"/>
	<path class="st1" d="M6731.2,2976.4c-20.7,0-37.5-11.1-37.5-24.7s16.8-24.7,37.5-24.7c20.7,0,37.5,11.1,37.5,24.7
		C6768.8,2965.3,6752,2976.4,6731.2,2976.4z"/>
</g>
<g>
	<path class="st4" d="M782.7,899.2H275.2c-37.8,0-68.5-30.6-68.5-68.5v-47.9c0-37.8,30.6-68.5,68.5-68.5h507.5
		c37.8,0,68.5,30.6,68.5,68.5v47.9C851.2,868.6,820.5,899.2,782.7,899.2z"/>
	<path d="M704.6,918.9c0-4.4-5.4-8-12.1-8H365.4c-6.7,0-12.1,3.6-12.1,8l0,0.2l-12.6,58.9h376.5l-12.6-59V918.9z"/>
	<path d="M823.2,715.4H234.8c-15.4,0-28,8.3-28,18.5V954c0,10.2,12.6,18.5,28,18.5h93.1l12.6-59.3c0.1-6.3,7.9-11.4,17.5-11.4H700
		c9.6,0,17.4,5.1,17.5,11.4l12.6,59.3h93.1c15.4,0,28-8.3,28-18.5V733.9C851.2,723.8,838.6,715.4,823.2,715.4z M830.2,865.8
		c0,5.9-7.2,10.7-16.1,10.7H243.9c-8.9,0-16.1-4.8-16.1-10.7V739.3c0-5.9,7.2-10.7,16.1-10.7h570.2c8.9,0,16.1,4.8,16.1,10.7V865.8z
		"/>
	<path d="M691.4,776.1H366.6c-3.7,0-6.7,2-6.7,4.4v52.7c0,2.4,3,4.4,6.7,4.4h324.8c3.7,0,6.7-2,6.7-4.4v-52.7
		C698.1,778.1,695.1,776.1,691.4,776.1z"/>
	<path class="st1" d="M636.4,831.7c-20.8,0-37.6-11.1-37.6-24.9s16.8-24.9,37.6-24.9c20.8,0,37.6,11.1,37.6,24.9
		C674,820.6,657.2,831.7,636.4,831.7z"/>
	<path class="st1" d="M417.5,831.7c-20.8,0-37.6-11.1-37.6-24.9s16.8-24.9,37.6-24.9c20.8,0,37.6,11.1,37.6,24.9
		C455.1,820.6,438.3,831.7,417.5,831.7z"/>
</g>
<g>
	<path class="st4" d="M4286.7,899.2h-507.5c-37.8,0-68.4-30.6-68.4-68.5v-47.9c0-37.8,30.6-68.5,68.4-68.5h507.5
		c37.8,0,68.5,30.6,68.5,68.5v47.9C4355.2,868.6,4324.6,899.2,4286.7,899.2z"/>
	<path d="M4208.6,918.9c0-4.4-5.4-8-12.1-8h-327.2c-6.7,0-12.1,3.6-12.1,8l0,0.2l-12.6,58.9h376.5l-12.6-59V918.9z"/>
	<path d="M4327.2,715.4h-588.5c-15.4,0-28,8.3-28,18.5V954c0,10.2,12.6,18.5,28,18.5h93.1l12.6-59.3c0.1-6.3,7.9-11.4,17.5-11.4
		H4204c9.6,0,17.4,5.1,17.5,11.4l12.6,59.3h93.1c15.4,0,28-8.3,28-18.5V733.9C4355.2,723.8,4342.6,715.4,4327.2,715.4z
		 M4334.2,865.8c0,5.9-7.2,10.7-16.1,10.7h-570.2c-8.9,0-16.1-4.8-16.1-10.7V739.3c0-5.9,7.2-10.7,16.1-10.7h570.2
		c8.9,0,16.1,4.8,16.1,10.7V865.8z"/>
	<path d="M4195.4,776.1h-324.8c-3.7,0-6.7,2-6.7,4.4v52.7c0,2.4,3,4.4,6.7,4.4h324.8c3.7,0,6.7-2,6.7-4.4v-52.7
		C4202.1,778.1,4199.1,776.1,4195.4,776.1z"/>
	<path class="st1" d="M4140.4,831.7c-20.8,0-37.6-11.1-37.6-24.9s16.8-24.9,37.6-24.9s37.6,11.1,37.6,24.9
		C4178,820.6,4161.2,831.7,4140.4,831.7z"/>
	<path class="st1" d="M3921.5,831.7c-20.8,0-37.6-11.1-37.6-24.9s16.8-24.9,37.6-24.9c20.8,0,37.6,11.1,37.6,24.9
		C3959.1,820.6,3942.3,831.7,3921.5,831.7z"/>
</g>
<g>
	<path class="st4" d="M2542.1,899.2h-507.5c-37.8,0-68.5-30.6-68.5-68.5v-47.9c0-37.8,30.6-68.5,68.5-68.5h507.5
		c37.8,0,68.4,30.6,68.4,68.5v47.9C2610.5,868.6,2579.9,899.2,2542.1,899.2z"/>
	<path d="M2464,918.9c0-4.4-5.4-8-12.1-8h-327.2c-6.7,0-12.1,3.6-12.1,8l0,0.2l-12.6,58.9h376.5l-12.6-59V918.9z"/>
	<path d="M2582.6,715.4h-588.5c-15.4,0-28,8.3-28,18.5V954c0,10.2,12.6,18.5,28,18.5h93.1l12.6-59.3c0.1-6.3,7.9-11.4,17.5-11.4
		h342.1c9.6,0,17.4,5.1,17.5,11.4l12.6,59.3h93.1c15.4,0,28-8.3,28-18.5V733.9C2610.6,723.8,2598,715.4,2582.6,715.4z M2589.5,865.8
		c0,5.9-7.2,10.7-16.1,10.7h-570.2c-8.9,0-16.1-4.8-16.1-10.7V739.3c0-5.9,7.2-10.7,16.1-10.7h570.2c8.9,0,16.1,4.8,16.1,10.7V865.8
		z"/>
	<path d="M2450.7,776.1h-324.8c-3.7,0-6.7,2-6.7,4.4v52.7c0,2.4,3,4.4,6.7,4.4h324.8c3.7,0,6.7-2,6.7-4.4v-52.7
		C2457.4,778.1,2454.4,776.1,2450.7,776.1z"/>
	<path class="st1" d="M2395.8,831.7c-20.8,0-37.6-11.1-37.6-24.9s16.8-24.9,37.6-24.9c20.8,0,37.6,11.1,37.6,24.9
		C2433.4,820.6,2416.5,831.7,2395.8,831.7z"/>
	<path class="st1" d="M2176.8,831.7c-20.8,0-37.6-11.1-37.6-24.9s16.8-24.9,37.6-24.9c20.8,0,37.6,11.1,37.6,24.9
		C2214.4,820.6,2197.6,831.7,2176.8,831.7z"/>
</g>
<g>
	<path class="st4" d="M2542,1741.5h-507.5c-37.8,0-68.5-30.6-68.5-68.4v-47.9c0-37.8,30.6-68.5,68.5-68.5H2542
		c37.8,0,68.4,30.6,68.4,68.5v47.9C2610.5,1710.9,2579.8,1741.5,2542,1741.5z"/>
	<path d="M2463.9,1761.2c0-4.4-5.4-8-12.1-8h-327.2c-6.7,0-12.1,3.6-12.1,8l0,0.2l-12.6,58.9h376.5l-12.6-59V1761.2z"/>
	<path d="M2582.5,1557.7H1994c-15.4,0-28,8.3-28,18.5v220.1c0,10.2,12.6,18.5,28,18.5h93.1l12.6-59.3c0.1-6.3,7.9-11.4,17.5-11.4
		h342.1c9.6,0,17.4,5.1,17.5,11.4l12.6,59.3h93.1c15.4,0,28-8.3,28-18.5v-220.1C2610.5,1566,2597.9,1557.7,2582.5,1557.7z
		 M2589.5,1708.1c0,5.9-7.2,10.7-16.1,10.7h-570.2c-8.9,0-16.1-4.8-16.1-10.7v-126.6c0-5.9,7.2-10.7,16.1-10.7h570.2
		c8.9,0,16.1,4.8,16.1,10.7V1708.1z"/>
	<path d="M2450.6,1618.4h-324.8c-3.7,0-6.7,2-6.7,4.4v52.7c0,2.4,3,4.4,6.7,4.4h324.8c3.7,0,6.7-2,6.7-4.4v-52.7
		C2457.4,1620.4,2454.3,1618.4,2450.6,1618.4z"/>
	<path class="st1" d="M2395.7,1674c-20.8,0-37.6-11.1-37.6-24.9c0-13.7,16.8-24.9,37.6-24.9c20.8,0,37.6,11.1,37.6,24.9
		C2433.3,1662.9,2416.5,1674,2395.7,1674z"/>
	<path class="st1" d="M2176.8,1674c-20.8,0-37.6-11.1-37.6-24.9c0-13.7,16.8-24.9,37.6-24.9c20.8,0,37.6,11.1,37.6,24.9
		C2214.4,1662.9,2197.5,1674,2176.8,1674z"/>
</g>
<g>
	<path class="st4" d="M4286.7,1741.5h-507.5c-37.8,0-68.4-30.6-68.4-68.4v-47.9c0-37.8,30.6-68.5,68.4-68.5h507.5
		c37.8,0,68.5,30.6,68.5,68.5v47.9C4355.2,1710.9,4324.5,1741.5,4286.7,1741.5z"/>
	<path d="M4208.6,1761.2c0-4.4-5.4-8-12.1-8h-327.2c-6.7,0-12.1,3.6-12.1,8l0,0.2l-12.6,58.9h376.5l-12.6-59V1761.2z"/>
	<path d="M4327.2,1557.7h-588.5c-15.4,0-28,8.3-28,18.5v220.1c0,10.2,12.6,18.5,28,18.5h93.1l12.6-59.3c0.1-6.3,7.9-11.4,17.5-11.4
		H4204c9.6,0,17.4,5.1,17.5,11.4l12.6,59.3h93.1c15.4,0,28-8.3,28-18.5v-220.1C4355.2,1566,4342.6,1557.7,4327.2,1557.7z
		 M4334.2,1708.1c0,5.9-7.2,10.7-16.1,10.7h-570.2c-8.9,0-16.1-4.8-16.1-10.7v-126.6c0-5.9,7.2-10.7,16.1-10.7h570.2
		c8.9,0,16.1,4.8,16.1,10.7V1708.1z"/>
	<path d="M4195.4,1618.4h-324.8c-3.7,0-6.7,2-6.7,4.4v52.7c0,2.4,3,4.4,6.7,4.4h324.8c3.7,0,6.7-2,6.7-4.4v-52.7
		C4202.1,1620.4,4199.1,1618.4,4195.4,1618.4z"/>
	<path class="st1" d="M4140.4,1674c-20.8,0-37.6-11.1-37.6-24.9c0-13.7,16.8-24.9,37.6-24.9c20.8,0,37.6,11.1,37.6,24.9
		C4178,1662.9,4161.2,1674,4140.4,1674z"/>
	<path class="st1" d="M3921.5,1674c-20.8,0-37.6-11.1-37.6-24.9c0-13.7,16.8-24.9,37.6-24.9c20.8,0,37.6,11.1,37.6,24.9
		C3959.1,1662.9,3942.3,1674,3921.5,1674z"/>
</g>
<g>
	<path class="st4" d="M782.7,2614.7H275.2c-37.8,0-68.5-30.6-68.5-68.5v-47.9c0-37.8,30.6-68.4,68.5-68.4h507.5
		c37.8,0,68.5,30.6,68.5,68.4v47.9C851.2,2584.1,820.5,2614.7,782.7,2614.7z"/>
	<path d="M704.6,2634.4c0-4.4-5.4-8-12.1-8H365.4c-6.7,0-12.1,3.6-12.1,8l0,0.2l-12.6,58.9h376.5l-12.6-59V2634.4z"/>
	<path d="M823.2,2430.9H234.8c-15.4,0-28,8.3-28,18.5v220.1c0,10.2,12.6,18.5,28,18.5h93.1l12.6-59.3c0.1-6.3,7.9-11.4,17.5-11.4
		H700c9.6,0,17.4,5.1,17.5,11.4l12.6,59.3h93.1c15.4,0,28-8.3,28-18.5v-220.1C851.2,2439.3,838.6,2430.9,823.2,2430.9z
		 M830.2,2581.3c0,5.9-7.2,10.7-16.1,10.7H243.9c-8.9,0-16.1-4.8-16.1-10.7v-126.6c0-5.9,7.2-10.7,16.1-10.7h570.2
		c8.9,0,16.1,4.8,16.1,10.7V2581.3z"/>
	<path d="M691.4,2491.6H366.6c-3.7,0-6.7,2-6.7,4.4v52.7c0,2.4,3,4.4,6.7,4.4h324.8c3.7,0,6.7-2,6.7-4.4V2496
		C698.1,2493.6,695.1,2491.6,691.4,2491.6z"/>
	<path class="st1" d="M636.4,2547.2c-20.8,0-37.6-11.1-37.6-24.9s16.8-24.9,37.6-24.9c20.8,0,37.6,11.1,37.6,24.9
		C674,2536.1,657.2,2547.2,636.4,2547.2z"/>
	<path class="st1" d="M417.5,2547.2c-20.8,0-37.6-11.1-37.6-24.9s16.8-24.9,37.6-24.9c20.8,0,37.6,11.1,37.6,24.9
		C455.1,2536.1,438.3,2547.2,417.5,2547.2z"/>
</g>
<g>
	<path class="st4" d="M782.7,3462.2H275.2c-37.8,0-68.5-30.6-68.5-68.4v-47.9c0-37.8,30.6-68.5,68.5-68.5h507.5
		c37.8,0,68.5,30.6,68.5,68.5v47.9C851.2,3431.6,820.5,3462.2,782.7,3462.2z"/>
	<path d="M704.6,3481.9c0-4.4-5.4-8-12.1-8H365.4c-6.7,0-12.1,3.6-12.1,8l0,0.2l-12.6,58.9h376.5l-12.6-59V3481.9z"/>
	<path d="M823.2,3278.4H234.8c-15.4,0-28,8.3-28,18.5V3517c0,10.2,12.6,18.5,28,18.5h93.1l12.6-59.3c0.1-6.3,7.9-11.4,17.5-11.4H700
		c9.6,0,17.4,5.1,17.5,11.4l12.6,59.3h93.1c15.4,0,28-8.3,28-18.5v-220.1C851.2,3286.7,838.6,3278.4,823.2,3278.4z M830.2,3428.8
		c0,5.9-7.2,10.7-16.1,10.7H243.9c-8.9,0-16.1-4.8-16.1-10.7v-126.6c0-5.9,7.2-10.7,16.1-10.7h570.2c8.9,0,16.1,4.8,16.1,10.7
		V3428.8z"/>
	<path d="M691.4,3339.1H366.6c-3.7,0-6.7,2-6.7,4.4v52.7c0,2.4,3,4.4,6.7,4.4h324.8c3.7,0,6.7-2,6.7-4.4v-52.7
		C698.1,3341.1,695.1,3339.1,691.4,3339.1z"/>
	<path class="st1" d="M636.4,3394.7c-20.8,0-37.6-11.1-37.6-24.9s16.8-24.9,37.6-24.9c20.8,0,37.6,11.1,37.6,24.9
		C674,3383.6,657.2,3394.7,636.4,3394.7z"/>
	<path class="st1" d="M417.5,3394.7c-20.8,0-37.6-11.1-37.6-24.9s16.8-24.9,37.6-24.9c20.8,0,37.6,11.1,37.6,24.9
		C455.1,3383.6,438.3,3394.7,417.5,3394.7z"/>
</g>
<g>
	<path class="st0" d="M2542.7,460.5h-508.8c-37.4,0-67.8-30.4-67.8-67.8v-38.6c0-37.4,30.4-67.8,67.8-67.8h508.8
		c37.4,0,67.8,30.4,67.8,67.8v38.6C2610.5,430.1,2580.1,460.5,2542.7,460.5z"/>
	<path d="M2463.9,489.8c0-4.4-5.4-8-12.1-8h-327.1c-6.7,0-12.1,3.6-12.1,8l0,0.2l-12.6,58.9h376.5l-12.6-59V489.8z"/>
	<path d="M2582.5,286.2h-588.4c-15.4,0-28,8.3-28,18.5v220.1c0,10.2,12.6,18.5,28,18.5h93.1l12.6-59.3c0.1-6.3,7.9-11.4,17.5-11.4
		h342.1c9.6,0,17.4,5.1,17.5,11.4l12.6,59.3h93.1c15.4,0,28-8.3,28-18.5V304.8C2610.5,294.6,2597.9,286.2,2582.5,286.2z
		 M2589.5,436.7c0,5.9-7.2,10.7-16.1,10.7h-570.1c-8.9,0-16.1-4.8-16.1-10.7V310.1c0-5.9,7.2-10.7,16.1-10.7h570.1
		c8.9,0,16.1,4.8,16.1,10.7V436.7z"/>
	<path d="M2450.7,346.9h-324.8c-3.7,0-6.7,2-6.7,4.4V404c0,2.4,3,4.4,6.7,4.4h324.8c3.7,0,6.7-2,6.7-4.4v-52.7
		C2457.4,348.9,2454.3,346.9,2450.7,346.9z"/>
	<path class="st1" d="M2179.1,402.5c-20.8,0-37.6-11.1-37.6-24.9c0-13.7,16.8-24.9,37.6-24.9c20.8,0,37.6,11.1,37.6,24.9
		C2216.7,391.4,2199.8,402.5,2179.1,402.5z"/>
	<path class="st1" d="M2393.6,403.2c-20.8,0-37.6-11.1-37.6-24.9s16.8-24.9,37.6-24.9c20.8,0,37.6,11.1,37.6,24.9
		C2431.2,392.1,2414.3,403.2,2393.6,403.2z"/>
</g>
<g>
	<path class="st0" d="M783.4,1313.4H274.6c-37.4,0-67.8-30.4-67.8-67.8v-38.6c0-37.4,30.4-67.8,67.8-67.8h508.8
		c37.4,0,67.8,30.4,67.8,67.8v38.6C851.2,1283,820.8,1313.4,783.4,1313.4z"/>
	<path d="M704.6,1342.6c0-4.4-5.4-8-12.1-8H365.4c-6.7,0-12.1,3.6-12.1,8l0,0.2l-12.6,58.9h376.5l-12.6-59V1342.6z"/>
	<path d="M823.2,1139.1H234.8c-15.4,0-28,8.3-28,18.5v220.1c0,10.2,12.6,18.5,28,18.5h93.1l12.6-59.3c0.1-6.3,7.9-11.4,17.5-11.4
		H700c9.6,0,17.4,5.1,17.5,11.4l12.6,59.3h93.1c15.4,0,28-8.3,28-18.5v-220.1C851.2,1147.4,838.6,1139.1,823.2,1139.1z
		 M830.2,1289.5c0,5.9-7.2,10.7-16.1,10.7H243.9c-8.9,0-16.1-4.8-16.1-10.7v-126.6c0-5.9,7.2-10.7,16.1-10.7h570.1
		c8.9,0,16.1,4.8,16.1,10.7V1289.5z"/>
	<path d="M691.4,1199.8H366.6c-3.7,0-6.7,2-6.7,4.4v52.7c0,2.4,3,4.4,6.7,4.4h324.8c3.7,0,6.7-2,6.7-4.4v-52.7
		C698.1,1201.8,695,1199.8,691.4,1199.8z"/>
	<path class="st1" d="M419.8,1255.4c-20.8,0-37.6-11.1-37.6-24.9c0-13.7,16.8-24.9,37.6-24.9c20.8,0,37.6,11.1,37.6,24.9
		C457.4,1244.3,440.5,1255.4,419.8,1255.4z"/>
	<path class="st1" d="M634.3,1256.1c-20.8,0-37.6-11.1-37.6-24.9c0-13.7,16.8-24.9,37.6-24.9c20.8,0,37.6,11.1,37.6,24.9
		C671.9,1245,655,1256.1,634.3,1256.1z"/>
</g>
<g>
	<path class="st0" d="M4287.4,460.5h-508.8c-37.4,0-67.8-30.4-67.8-67.8v-38.6c0-37.4,30.4-67.8,67.8-67.8h508.8
		c37.4,0,67.8,30.4,67.8,67.8v38.6C4355.2,430.1,4324.8,460.5,4287.4,460.5z"/>
	<path d="M4208.6,489.8c0-4.4-5.4-8-12.1-8h-327.2c-6.7,0-12.1,3.6-12.1,8l0,0.2l-12.6,58.9h376.5l-12.6-59V489.8z"/>
	<path d="M4327.2,286.2h-588.5c-15.4,0-28,8.3-28,18.5v220.1c0,10.2,12.6,18.5,28,18.5h93.1l12.6-59.3c0.1-6.3,7.9-11.4,17.5-11.4
		H4204c9.6,0,17.4,5.1,17.5,11.4l12.6,59.3h93.1c15.4,0,28-8.3,28-18.5V304.8C4355.2,294.6,4342.6,286.2,4327.2,286.2z
		 M4334.2,436.7c0,5.9-7.2,10.7-16.1,10.7h-570.1c-8.9,0-16.1-4.8-16.1-10.7V310.1c0-5.9,7.2-10.7,16.1-10.7h570.1
		c8.9,0,16.1,4.8,16.1,10.7V436.7z"/>
	<path d="M4195.4,346.9h-324.8c-3.7,0-6.7,2-6.7,4.4V404c0,2.4,3,4.4,6.7,4.4h324.8c3.7,0,6.7-2,6.7-4.4v-52.7
		C4202.1,348.9,4199.1,346.9,4195.4,346.9z"/>
	<path class="st1" d="M3923.8,402.5c-20.8,0-37.6-11.1-37.6-24.9c0-13.7,16.8-24.9,37.6-24.9c20.8,0,37.6,11.1,37.6,24.9
		C3961.4,391.4,3944.6,402.5,3923.8,402.5z"/>
	<path class="st1" d="M4138.3,403.2c-20.8,0-37.6-11.1-37.6-24.9s16.8-24.9,37.6-24.9c20.8,0,37.6,11.1,37.6,24.9
		C4175.9,392.1,4159,403.2,4138.3,403.2z"/>
</g>
<g>
	<path class="st0" d="M2542.7,1313.4h-508.8c-37.4,0-67.8-30.4-67.8-67.8v-38.6c0-37.4,30.4-67.8,67.8-67.8h508.8
		c37.4,0,67.8,30.4,67.8,67.8v38.6C2610.5,1283,2580.2,1313.4,2542.7,1313.4z"/>
	<path d="M2464,1342.6c0-4.4-5.4-8-12.1-8h-327.1c-6.7,0-12.1,3.6-12.1,8l0,0.2l-12.6,58.9h376.5l-12.6-59V1342.6z"/>
	<path d="M2582.6,1139.1h-588.4c-15.4,0-28,8.3-28,18.5v220.1c0,10.2,12.6,18.5,28,18.5h93.1l12.6-59.3c0.1-6.3,7.9-11.4,17.5-11.4
		h342.1c9.6,0,17.4,5.1,17.5,11.4l12.6,59.3h93.1c15.4,0,28-8.3,28-18.5v-220.1C2610.6,1147.4,2598,1139.1,2582.6,1139.1z
		 M2589.5,1289.5c0,5.9-7.2,10.7-16.1,10.7h-570.1c-8.9,0-16.1-4.8-16.1-10.7v-126.6c0-5.9,7.2-10.7,16.1-10.7h570.1
		c8.9,0,16.1,4.8,16.1,10.7V1289.5z"/>
	<path d="M2450.7,1199.8h-324.8c-3.7,0-6.7,2-6.7,4.4v52.7c0,2.4,3,4.4,6.7,4.4h324.8c3.7,0,6.7-2,6.7-4.4v-52.7
		C2457.4,1201.8,2454.4,1199.8,2450.7,1199.8z"/>
	<path class="st1" d="M2179.1,1255.4c-20.8,0-37.6-11.1-37.6-24.9c0-13.7,16.8-24.9,37.6-24.9c20.8,0,37.6,11.1,37.6,24.9
		C2216.7,1244.3,2199.9,1255.4,2179.1,1255.4z"/>
	<path class="st1" d="M2393.6,1256.1c-20.8,0-37.6-11.1-37.6-24.9c0-13.7,16.8-24.9,37.6-24.9c20.8,0,37.6,11.1,37.6,24.9
		C2431.2,1245,2414.4,1256.1,2393.6,1256.1z"/>
</g>
<g>
	<path class="st0" d="M4287.4,1313.4h-508.8c-37.4,0-67.8-30.4-67.8-67.8v-38.6c0-37.4,30.4-67.8,67.8-67.8h508.8
		c37.4,0,67.8,30.4,67.8,67.8v38.6C4355.2,1283,4324.8,1313.4,4287.4,1313.4z"/>
	<path d="M4208.6,1342.6c0-4.4-5.4-8-12.1-8h-327.2c-6.7,0-12.1,3.6-12.1,8l0,0.2l-12.6,58.9h376.5l-12.6-59V1342.6z"/>
	<path d="M4327.2,1139.1h-588.5c-15.4,0-28,8.3-28,18.5v220.1c0,10.2,12.6,18.5,28,18.5h93.1l12.6-59.3c0.1-6.3,7.9-11.4,17.5-11.4
		H4204c9.6,0,17.4,5.1,17.5,11.4l12.6,59.3h93.1c15.4,0,28-8.3,28-18.5v-220.1C4355.2,1147.4,4342.6,1139.1,4327.2,1139.1z
		 M4334.2,1289.5c0,5.9-7.2,10.7-16.1,10.7h-570.1c-8.9,0-16.1-4.8-16.1-10.7v-126.6c0-5.9,7.2-10.7,16.1-10.7h570.1
		c8.9,0,16.1,4.8,16.1,10.7V1289.5z"/>
	<path d="M4195.4,1199.8h-324.8c-3.7,0-6.7,2-6.7,4.4v52.7c0,2.4,3,4.4,6.7,4.4h324.8c3.7,0,6.7-2,6.7-4.4v-52.7
		C4202.1,1201.8,4199.1,1199.8,4195.4,1199.8z"/>
	<path class="st1" d="M3923.8,1255.4c-20.8,0-37.6-11.1-37.6-24.9c0-13.7,16.8-24.9,37.6-24.9c20.8,0,37.6,11.1,37.6,24.9
		C3961.4,1244.3,3944.6,1255.4,3923.8,1255.4z"/>
	<path class="st1" d="M4138.3,1256.1c-20.8,0-37.6-11.1-37.6-24.9c0-13.7,16.8-24.9,37.6-24.9c20.8,0,37.6,11.1,37.6,24.9
		C4175.9,1245,4159,1256.1,4138.3,1256.1z"/>
</g>
</svg>
