<?xml version="1.0" encoding="utf-8"?>
<!-- Generator: Adobe Illustrator 25.2.0, SVG Export Plug-In . SVG Version: 6.00 Build 0)  -->
<svg version="1.1" id="Layer_1" xmlns="http://www.w3.org/2000/svg" xmlns:xlink="http://www.w3.org/1999/xlink" x="0px" y="0px"
	 viewBox="0 0 7379.1 4432.9" style="enable-background:new 0 0 7379.1 4432.9;" xml:space="preserve">
<style type="text/css">
	.st0{font-family:'HelveticaNeue-Bold';}
	.st1{font-size:5px;}
	.st2{fill:#C43939;}
	.st3{fill:#FFFFFF;}
	.st4{fill:#D7E022;}
	.st5{fill:#EADE88;}
	.st6{fill:#638DEA;}
</style>
<text transform="matrix(1 0 0 1 126.3108 4100.3462)" class="st0 st1">Created by Alvaro Cabrera</text>
<text transform="matrix(1 0 0 1 126.3108 4105.3462)" class="st0 st1">from the Noun Project</text>
<g>
	<path class="st2" d="M1509.4,1761.2H394.9c-63.4,0-114.9-51.4-114.9-114.9v-312.2c0-63.4,51.4-114.9,114.9-114.9h1114.6
		c63.4,0,114.9,51.4,114.9,114.9v312.2C1624.3,1709.8,1572.9,1761.2,1509.4,1761.2z"/>
	<path d="M1327.2,1852.3c0-13.7-11.8-24.9-26.3-24.9H589.2c-14.5,0-26.3,11.2-26.3,24.9l0,0.8l-27.3,183.2h819l-27.4-183.5V1852.3z"
		/>
	<path d="M1585.2,1219.3H305.1c-33.5,0-60.9,25.9-60.9,57.6v684.4c0,31.7,27.4,57.6,60.9,57.6h202.5l27.4-184.4
		c0.2-19.6,17.2-35.6,38-35.6h744.2c20.8,0,37.8,15.9,38,35.6l27.4,184.4h202.5c33.5,0,60.9-25.9,60.9-57.6V1277
		C1646.1,1245.3,1618.7,1219.3,1585.2,1219.3z M1600.4,1687.1c0,18.2-15.8,33.1-35.1,33.1H325c-19.3,0-35-14.9-35-33.1v-393.6
		c0-18.2,15.8-33.1,35-33.1h1240.3c19.3,0,35.1,14.9,35.1,33.1V1687.1z"/>
	<path d="M1298.3,1408H591.8c-8,0-14.6,6.2-14.6,13.8v163.9c0,7.6,6.6,13.8,14.6,13.8h706.6c8,0,14.6-6.2,14.6-13.8v-163.9
		C1313,1414.2,1306.4,1408,1298.3,1408z"/>
	<path class="st3" d="M1178.8,1581c-45.2,0-81.8-34.6-81.8-77.3s36.6-77.3,81.8-77.3s81.8,34.6,81.8,77.3
		C1260.7,1546.4,1224,1581,1178.8,1581z"/>
	<path class="st3" d="M702.6,1581c-45.2,0-81.8-34.6-81.8-77.3s36.6-77.3,81.8-77.3c45.2,0,81.8,34.6,81.8,77.3
		C784.4,1546.4,747.8,1581,702.6,1581z"/>
</g>
<g>
	<path class="st4" d="M1505.1,748.6H394.9c-63.4,0-114.9-51.4-114.9-114.9V321.5c0-63.4,51.4-114.9,114.9-114.9h1110.2
		c63.4,0,114.9,51.4,114.9,114.9v312.2C1619.9,697.1,1568.5,748.6,1505.1,748.6z"/>
	<path d="M1327.3,839.6c0-13.7-11.8-24.9-26.3-24.9H589.3c-14.5,0-26.3,11.2-26.3,24.9l0,0.8l-27.3,183.2h819L1327.3,840V839.6z"/>
	<path d="M1585.2,206.7H305.1c-33.5,0-60.9,25.9-60.9,57.6v684.4c0,31.7,27.4,57.6,60.9,57.6h202.5L535,821.8
		c0.2-19.6,17.2-35.6,38-35.6h744.2c20.8,0,37.8,15.9,38,35.6l27.4,184.4h202.5c33.5,0,60.9-25.9,60.9-57.6V264.3
		C1646.1,232.6,1618.7,206.7,1585.2,206.7z M1600.4,674.4c0,18.2-15.8,33.1-35.1,33.1H325c-19.3,0-35-14.9-35-33.1V280.8
		c0-18.2,15.8-33.1,35-33.1h1240.3c19.3,0,35.1,14.9,35.1,33.1V674.4z"/>
	<path d="M1298.4,395.3H591.8c-8,0-14.6,6.2-14.6,13.8V573c0,7.6,6.6,13.8,14.6,13.8h706.6c8,0,14.6-6.2,14.6-13.8V409.1
		C1313,401.5,1306.4,395.3,1298.4,395.3z"/>
	<path class="st3" d="M707.5,568.3c-45.2,0-81.8-34.6-81.8-77.3s36.6-77.3,81.8-77.3c45.2,0,81.8,34.6,81.8,77.3
		C789.4,533.7,752.8,568.3,707.5,568.3z"/>
	<path class="st3" d="M1174.1,570.5c-45.2,0-81.8-34.6-81.8-77.3s36.6-77.3,81.8-77.3s81.8,34.6,81.8,77.3
		C1256,535.9,1219.4,570.5,1174.1,570.5z"/>
</g>
<g>
	<path class="st5" d="M3390.1,1747.5H2258.3c-63.4,0-114.9-51.4-114.9-114.9v-298.4c0-63.4,51.4-114.9,114.9-114.9h1131.8
		c63.4,0,114.9,51.4,114.9,114.9v298.4C3504.9,1696.1,3453.5,1747.5,3390.1,1747.5z"/>
	<path d="M3207.9,1852.3c0-13.7-11.8-24.9-26.3-24.9h-711.7c-14.5,0-26.3,11.2-26.3,24.9l0,0.8l-27.3,183.2h819l-27.4-183.5V1852.3z
		"/>
	<path d="M3465.8,1219.3H2185.7c-33.5,0-60.9,25.9-60.9,57.6v684.4c0,31.7,27.4,57.6,60.9,57.6h202.5l27.4-184.4
		c0.2-19.6,17.2-35.6,38-35.6h744.2c20.8,0,37.8,15.9,38,35.6l27.4,184.4h202.5c33.5,0,60.9-25.9,60.9-57.6V1277
		C3526.8,1245.3,3499.4,1219.3,3465.8,1219.3z M3481,1687.1c0,18.2-15.8,33.1-35.1,33.1H2205.6c-19.3,0-35-14.9-35-33.1v-393.6
		c0-18.2,15.8-33.1,35-33.1h1240.3c19.3,0,35.1,14.9,35.1,33.1V1687.1z"/>
	<path d="M3179,1408h-706.6c-8,0-14.6,6.2-14.6,13.8v163.9c0,7.6,6.6,13.8,14.6,13.8H3179c8,0,14.6-6.2,14.6-13.8v-163.9
		C3193.6,1414.2,3187,1408,3179,1408z"/>
	<path class="st3" d="M3059.5,1581c-45.2,0-81.8-34.6-81.8-77.3s36.6-77.3,81.8-77.3c45.2,0,81.8,34.6,81.8,77.3
		C3141.3,1546.4,3104.7,1581,3059.5,1581z"/>
	<path class="st3" d="M2583.2,1581c-45.2,0-81.8-34.6-81.8-77.3s36.6-77.3,81.8-77.3s81.8,34.6,81.8,77.3
		C2665,1546.4,2628.4,1581,2583.2,1581z"/>
</g>
<g>
	<path class="st6" d="M3385.7,745.1H2258.3c-63.4,0-114.9-51.4-114.9-114.9V321.5c0-63.4,51.4-114.9,114.9-114.9h1127.4
		c63.4,0,114.9,51.4,114.9,114.9v308.7C3500.6,693.7,3449.1,745.1,3385.7,745.1z"/>
	<path d="M3207.9,839.6c0-13.7-11.8-24.9-26.3-24.9h-711.7c-14.5,0-26.3,11.2-26.3,24.9l0,0.8l-27.3,183.2h819L3207.9,840V839.6z"/>
	<path d="M3465.9,206.7H2185.7c-33.5,0-60.9,25.9-60.9,57.6v684.4c0,31.7,27.4,57.6,60.9,57.6h202.5l27.4-184.4
		c0.2-19.6,17.2-35.6,38-35.6h744.2c20.8,0,37.8,15.9,38,35.6l27.4,184.4h202.5c33.5,0,60.9-25.9,60.9-57.6V264.3
		C3526.8,232.6,3499.4,206.7,3465.9,206.7z M3481,674.4c0,18.2-15.8,33.1-35.1,33.1H2205.6c-19.3,0-35-14.9-35-33.1V280.8
		c0-18.2,15.8-33.1,35-33.1H3446c19.3,0,35.1,14.9,35.1,33.1V674.4z"/>
	<path d="M3179,395.3h-706.6c-8,0-14.6,6.2-14.6,13.8V573c0,7.6,6.6,13.8,14.6,13.8h706.6c8,0,14.6-6.2,14.6-13.8V409.1
		C3193.6,401.5,3187.1,395.3,3179,395.3z"/>
	<path class="st3" d="M2588.2,568.3c-45.2,0-81.8-34.6-81.8-77.3s36.6-77.3,81.8-77.3s81.8,34.6,81.8,77.3
		C2670,533.7,2633.4,568.3,2588.2,568.3z"/>
	<path class="st3" d="M3054.8,570.5c-45.2,0-81.8-34.6-81.8-77.3s36.6-77.3,81.8-77.3c45.2,0,81.8,34.6,81.8,77.3
		C3136.6,535.9,3100,570.5,3054.8,570.5z"/>
</g>
<g>
	<path class="st2" d="M1509.4,3792.3H394.9c-63.4,0-114.9-51.4-114.9-114.9v-312.2c0-63.4,51.4-114.9,114.9-114.9h1114.6
		c63.4,0,114.9,51.4,114.9,114.9v312.2C1624.3,3740.9,1572.9,3792.3,1509.4,3792.3z"/>
	<path d="M1327.2,3883.3c0-13.7-11.8-24.9-26.3-24.9H589.2c-14.5,0-26.3,11.2-26.3,24.9l0,0.8l-27.3,183.2h819l-27.4-183.5V3883.3z"
		/>
	<path d="M1585.2,3250.4H305.1c-33.5,0-60.9,25.9-60.9,57.6v684.4c0,31.7,27.4,57.6,60.9,57.6h202.5l27.4-184.4
		c0.2-19.6,17.2-35.6,38-35.6h744.2c20.8,0,37.8,15.9,38,35.6l27.4,184.4h202.5c33.5,0,60.9-25.9,60.9-57.6V3308
		C1646.1,3276.3,1618.7,3250.4,1585.2,3250.4z M1600.4,3718.1c0,18.2-15.8,33.1-35.1,33.1H325c-19.3,0-35-14.9-35-33.1v-393.6
		c0-18.2,15.8-33.1,35-33.1h1240.3c19.3,0,35.1,14.9,35.1,33.1V3718.1z"/>
	<path d="M1298.3,3439H591.8c-8,0-14.6,6.2-14.6,13.8v163.9c0,7.6,6.6,13.8,14.6,13.8h706.6c8,0,14.6-6.2,14.6-13.8v-163.9
		C1313,3445.2,1306.4,3439,1298.3,3439z"/>
	<path class="st3" d="M1178.8,3612c-45.2,0-81.8-34.6-81.8-77.3c0-42.7,36.6-77.3,81.8-77.3s81.8,34.6,81.8,77.3
		C1260.7,3577.4,1224,3612,1178.8,3612z"/>
	<path class="st3" d="M702.6,3612c-45.2,0-81.8-34.6-81.8-77.3c0-42.7,36.6-77.3,81.8-77.3c45.2,0,81.8,34.6,81.8,77.3
		C784.4,3577.4,747.8,3612,702.6,3612z"/>
</g>
<g>
	<path class="st4" d="M1505.1,2779.6H394.9c-63.4,0-114.9-51.4-114.9-114.9v-312.2c0-63.4,51.4-114.9,114.9-114.9h1110.2
		c63.4,0,114.9,51.4,114.9,114.9v312.2C1619.9,2728.2,1568.5,2779.6,1505.1,2779.6z"/>
	<path d="M1327.3,2870.6c0-13.7-11.8-24.9-26.3-24.9H589.3c-14.5,0-26.3,11.2-26.3,24.9l0,0.8l-27.3,183.2h819l-27.4-183.5V2870.6z"
		/>
	<path d="M1585.2,2237.7H305.1c-33.5,0-60.9,25.9-60.9,57.6v684.4c0,31.7,27.4,57.6,60.9,57.6h202.5l27.4-184.4
		c0.2-19.6,17.2-35.6,38-35.6h744.2c20.8,0,37.8,15.9,38,35.6l27.4,184.4h202.5c33.5,0,60.9-25.9,60.9-57.6v-684.4
		C1646.1,2263.6,1618.7,2237.7,1585.2,2237.7z M1600.4,2705.4c0,18.2-15.8,33.1-35.1,33.1H325c-19.3,0-35-14.9-35-33.1v-393.6
		c0-18.2,15.8-33.1,35-33.1h1240.3c19.3,0,35.1,14.9,35.1,33.1V2705.4z"/>
	<path d="M1298.4,2426.3H591.8c-8,0-14.6,6.2-14.6,13.8V2604c0,7.6,6.6,13.8,14.6,13.8h706.6c8,0,14.6-6.2,14.6-13.8v-163.9
		C1313,2432.5,1306.4,2426.3,1298.4,2426.3z"/>
	<path class="st3" d="M707.5,2599.3c-45.2,0-81.8-34.6-81.8-77.3c0-42.7,36.6-77.3,81.8-77.3c45.2,0,81.8,34.6,81.8,77.3
		C789.4,2564.7,752.8,2599.3,707.5,2599.3z"/>
	<path class="st3" d="M1174.1,2601.5c-45.2,0-81.8-34.6-81.8-77.3c0-42.7,36.6-77.3,81.8-77.3s81.8,34.6,81.8,77.3
		C1256,2566.9,1219.4,2601.5,1174.1,2601.5z"/>
</g>
<g>
	<path class="st5" d="M3390.1,3778.5H2258.3c-63.4,0-114.9-51.4-114.9-114.9v-298.4c0-63.4,51.4-114.9,114.9-114.9h1131.8
		c63.4,0,114.9,51.4,114.9,114.9v298.4C3504.9,3727.1,3453.5,3778.5,3390.1,3778.5z"/>
	<path d="M3207.9,3883.3c0-13.7-11.8-24.9-26.3-24.9h-711.7c-14.5,0-26.3,11.2-26.3,24.9l0,0.8l-27.3,183.2h819l-27.4-183.5V3883.3z
		"/>
	<path d="M3465.8,3250.4H2185.7c-33.5,0-60.9,25.9-60.9,57.6v684.4c0,31.7,27.4,57.6,60.9,57.6h202.5l27.4-184.4
		c0.2-19.6,17.2-35.6,38-35.6h744.2c20.8,0,37.8,15.9,38,35.6l27.4,184.4h202.5c33.5,0,60.9-25.9,60.9-57.6V3308
		C3526.8,3276.3,3499.4,3250.4,3465.8,3250.4z M3481,3718.1c0,18.2-15.8,33.1-35.1,33.1H2205.6c-19.3,0-35-14.9-35-33.1v-393.6
		c0-18.2,15.8-33.1,35-33.1h1240.3c19.3,0,35.1,14.9,35.1,33.1V3718.1z"/>
	<path d="M3179,3439h-706.6c-8,0-14.6,6.2-14.6,13.8v163.9c0,7.6,6.6,13.8,14.6,13.8H3179c8,0,14.6-6.2,14.6-13.8v-163.9
		C3193.6,3445.2,3187,3439,3179,3439z"/>
	<path class="st3" d="M3059.5,3612c-45.2,0-81.8-34.6-81.8-77.3c0-42.7,36.6-77.3,81.8-77.3c45.2,0,81.8,34.6,81.8,77.3
		C3141.3,3577.4,3104.7,3612,3059.5,3612z"/>
	<path class="st3" d="M2583.2,3612c-45.2,0-81.8-34.6-81.8-77.3c0-42.7,36.6-77.3,81.8-77.3s81.8,34.6,81.8,77.3
		C2665,3577.4,2628.4,3612,2583.2,3612z"/>
</g>
<g>
	<path class="st6" d="M3385.7,2776.1H2258.3c-63.4,0-114.9-51.4-114.9-114.9v-308.7c0-63.4,51.4-114.9,114.9-114.9h1127.4
		c63.4,0,114.9,51.4,114.9,114.9v308.7C3500.6,2724.7,3449.1,2776.1,3385.7,2776.1z"/>
	<path d="M3207.9,2870.6c0-13.7-11.8-24.9-26.3-24.9h-711.7c-14.5,0-26.3,11.2-26.3,24.9l0,0.8l-27.3,183.2h819l-27.4-183.5V2870.6z
		"/>
	<path d="M3465.9,2237.7H2185.7c-33.5,0-60.9,25.9-60.9,57.6v684.4c0,31.7,27.4,57.6,60.9,57.6h202.5l27.4-184.4
		c0.2-19.6,17.2-35.6,38-35.6h744.2c20.8,0,37.8,15.9,38,35.6l27.4,184.4h202.5c33.5,0,60.9-25.9,60.9-57.6v-684.4
		C3526.8,2263.6,3499.4,2237.7,3465.9,2237.7z M3481,2705.4c0,18.2-15.8,33.1-35.1,33.1H2205.6c-19.3,0-35-14.9-35-33.1v-393.6
		c0-18.2,15.8-33.1,35-33.1H3446c19.3,0,35.1,14.9,35.1,33.1V2705.4z"/>
	<path d="M3179,2426.3h-706.6c-8,0-14.6,6.2-14.6,13.8V2604c0,7.6,6.6,13.8,14.6,13.8h706.6c8,0,14.6-6.2,14.6-13.8v-163.9
		C3193.6,2432.5,3187.1,2426.3,3179,2426.3z"/>
	<path class="st3" d="M2588.2,2599.3c-45.2,0-81.8-34.6-81.8-77.3c0-42.7,36.6-77.3,81.8-77.3s81.8,34.6,81.8,77.3
		C2670,2564.7,2633.4,2599.3,2588.2,2599.3z"/>
	<path class="st3" d="M3054.8,2601.5c-45.2,0-81.8-34.6-81.8-77.3c0-42.7,36.6-77.3,81.8-77.3c45.2,0,81.8,34.6,81.8,77.3
		C3136.6,2566.9,3100,2601.5,3054.8,2601.5z"/>
</g>
<text transform="matrix(1 0 0 1 4617.2739 4052.072)" class="st0 st1">Created by Alvaro Cabrera</text>
<g>
	<path class="st2" d="M5197.8,1761.2H4083.2c-63.4,0-114.9-51.4-114.9-114.9v-312.2c0-63.4,51.4-114.9,114.9-114.9h1114.6
		c63.4,0,114.9,51.4,114.9,114.9v312.2C5312.7,1709.8,5261.2,1761.2,5197.8,1761.2z"/>
	<path d="M5015.6,1852.3c0-13.7-11.8-24.9-26.3-24.9h-711.7c-14.5,0-26.3,11.2-26.3,24.9l0,0.8l-27.3,183.2h819l-27.4-183.5V1852.3z
		"/>
	<path d="M5273.6,1219.3H3993.4c-33.5,0-60.9,25.9-60.9,57.6v684.4c0,31.7,27.4,57.6,60.9,57.6h202.5l27.4-184.4
		c0.2-19.6,17.2-35.6,38-35.6h744.2c20.8,0,37.8,15.9,38,35.6l27.4,184.4h202.5c33.5,0,60.9-25.9,60.9-57.6V1277
		C5334.5,1245.3,5307.1,1219.3,5273.6,1219.3z M5288.7,1687.1c0,18.2-15.8,33.1-35.1,33.1H4013.3c-19.3,0-35-14.9-35-33.1v-393.6
		c0-18.2,15.8-33.1,35-33.1h1240.3c19.3,0,35.1,14.9,35.1,33.1V1687.1z"/>
	<path d="M4986.7,1408h-706.6c-8,0-14.6,6.2-14.6,13.8v163.9c0,7.6,6.6,13.8,14.6,13.8h706.6c8,0,14.6-6.2,14.6-13.8v-163.9
		C5001.3,1414.2,4994.8,1408,4986.7,1408z"/>
	<path class="st3" d="M4867.2,1581c-45.2,0-81.8-34.6-81.8-77.3s36.6-77.3,81.8-77.3s81.8,34.6,81.8,77.3
		C4949,1546.4,4912.4,1581,4867.2,1581z"/>
	<path class="st3" d="M4390.9,1581c-45.2,0-81.8-34.6-81.8-77.3s36.6-77.3,81.8-77.3s81.8,34.6,81.8,77.3
		C4472.8,1546.4,4436.1,1581,4390.9,1581z"/>
</g>
<g>
	<path class="st4" d="M5193.5,748.6H4083.2c-63.4,0-114.9-51.4-114.9-114.9V321.5c0-63.4,51.4-114.9,114.9-114.9h1110.2
		c63.4,0,114.9,51.4,114.9,114.9v312.2C5308.3,697.1,5256.9,748.6,5193.5,748.6z"/>
	<path d="M5015.6,839.6c0-13.7-11.8-24.9-26.3-24.9h-711.7c-14.5,0-26.3,11.2-26.3,24.9l0,0.8l-27.3,183.2h819L5015.6,840V839.6z"/>
	<path d="M5273.6,206.7H3993.5c-33.5,0-60.9,25.9-60.9,57.6v684.4c0,31.7,27.4,57.6,60.9,57.6h202.5l27.4-184.4
		c0.2-19.6,17.2-35.6,38-35.6h744.2c20.8,0,37.8,15.9,38,35.6l27.4,184.4h202.5c33.5,0,60.9-25.9,60.9-57.6V264.3
		C5334.5,232.6,5307.1,206.7,5273.6,206.7z M5288.8,674.4c0,18.2-15.8,33.1-35.1,33.1H4013.4c-19.3,0-35-14.9-35-33.1V280.8
		c0-18.2,15.8-33.1,35-33.1h1240.3c19.3,0,35.1,14.9,35.1,33.1V674.4z"/>
	<path d="M4986.8,395.3h-706.6c-8,0-14.6,6.2-14.6,13.8V573c0,7.6,6.6,13.8,14.6,13.8h706.6c8,0,14.6-6.2,14.6-13.8V409.1
		C5001.4,401.5,4994.8,395.3,4986.8,395.3z"/>
	<path class="st3" d="M4395.9,568.3c-45.2,0-81.8-34.6-81.8-77.3s36.6-77.3,81.8-77.3s81.8,34.6,81.8,77.3
		C4477.8,533.7,4441.1,568.3,4395.9,568.3z"/>
	<path class="st3" d="M4862.5,570.5c-45.2,0-81.8-34.6-81.8-77.3s36.6-77.3,81.8-77.3s81.8,34.6,81.8,77.3
		C4944.4,535.9,4907.7,570.5,4862.5,570.5z"/>
</g>
<g>
	<path class="st5" d="M7045.7,1733.2H5913.9c-63.4,0-114.9-51.4-114.9-114.9v-298.4c0-63.4,51.4-114.9,114.9-114.9h1131.8
		c63.4,0,114.9,51.4,114.9,114.9v298.4C7160.6,1681.8,7109.1,1733.2,7045.7,1733.2z"/>
	<path d="M6863.5,1838c0-13.7-11.8-24.9-26.3-24.9h-711.7c-14.5,0-26.3,11.2-26.3,24.9l0,0.8l-27.3,183.2h819l-27.4-183.5V1838z"/>
	<path d="M7121.5,1205.1H5841.3c-33.5,0-60.9,25.9-60.9,57.6V1947c0,31.7,27.4,57.6,60.9,57.6h202.5l27.4-184.4
		c0.2-19.6,17.2-35.6,38-35.6h744.2c20.8,0,37.8,15.9,38,35.6l27.4,184.4h202.5c33.5,0,60.9-25.9,60.9-57.6v-684.4
		C7182.4,1231,7155,1205.1,7121.5,1205.1z M7136.6,1672.8c0,18.2-15.8,33.1-35.1,33.1H5861.2c-19.3,0-35-14.9-35-33.1v-393.6
		c0-18.2,15.8-33.1,35-33.1h1240.3c19.3,0,35.1,14.9,35.1,33.1V1672.8z"/>
	<path d="M6834.6,1393.7H6128c-8,0-14.6,6.2-14.6,13.8v163.9c0,7.6,6.6,13.8,14.6,13.8h706.6c8,0,14.6-6.2,14.6-13.8v-163.9
		C6849.2,1399.9,6842.7,1393.7,6834.6,1393.7z"/>
	<path class="st3" d="M6715.1,1566.7c-45.2,0-81.8-34.6-81.8-77.3s36.6-77.3,81.8-77.3s81.8,34.6,81.8,77.3
		C6796.9,1532.1,6760.3,1566.7,6715.1,1566.7z"/>
	<path class="st3" d="M6238.8,1566.7c-45.2,0-81.8-34.6-81.8-77.3s36.6-77.3,81.8-77.3s81.8,34.6,81.8,77.3
		C6320.7,1532.1,6284,1566.7,6238.8,1566.7z"/>
</g>
<g>
	<path class="st6" d="M7041.4,730.8H5913.9c-63.4,0-114.9-51.4-114.9-114.9V307.2c0-63.4,51.4-114.9,114.9-114.9h1127.4
		c63.4,0,114.9,51.4,114.9,114.9V616C7156.2,679.4,7104.8,730.8,7041.4,730.8z"/>
	<path d="M6863.5,825.3c0-13.7-11.8-24.9-26.3-24.9h-711.7c-14.5,0-26.3,11.2-26.3,24.9l0,0.8l-27.3,183.2h819l-27.4-183.5V825.3z"
		/>
	<path d="M7121.5,192.4H5841.4c-33.5,0-60.9,25.9-60.9,57.6v684.4c0,31.7,27.4,57.6,60.9,57.6h202.5l27.4-184.4
		c0.2-19.6,17.2-35.6,38-35.6h744.2c20.8,0,37.8,15.9,38,35.6l27.4,184.4h202.5c33.5,0,60.9-25.9,60.9-57.6V250
		C7182.4,218.3,7155,192.4,7121.5,192.4z M7136.7,660.1c0,18.2-15.8,33.1-35.1,33.1H5861.3c-19.3,0-35-14.9-35-33.1V266.5
		c0-18.2,15.8-33.1,35-33.1h1240.3c19.3,0,35.1,14.9,35.1,33.1V660.1z"/>
	<path d="M6834.7,381h-706.6c-8,0-14.6,6.2-14.6,13.8v163.9c0,7.6,6.6,13.8,14.6,13.8h706.6c8,0,14.6-6.2,14.6-13.8V394.8
		C6849.3,387.2,6842.7,381,6834.7,381z"/>
	<path class="st3" d="M6243.8,554c-45.2,0-81.8-34.6-81.8-77.3s36.6-77.3,81.8-77.3s81.8,34.6,81.8,77.3
		C6325.7,519.4,6289,554,6243.8,554z"/>
	<path class="st3" d="M6710.4,556.2c-45.2,0-81.8-34.6-81.8-77.3s36.6-77.3,81.8-77.3s81.8,34.6,81.8,77.3
		C6792.3,521.6,6755.6,556.2,6710.4,556.2z"/>
</g>
<g>
	<path class="st2" d="M5197.8,3792.3H4083.2c-63.4,0-114.9-51.4-114.9-114.9v-312.2c0-63.4,51.4-114.9,114.9-114.9h1114.6
		c63.4,0,114.9,51.4,114.9,114.9v312.2C5312.7,3740.9,5261.2,3792.3,5197.8,3792.3z"/>
	<path d="M5015.6,3883.3c0-13.7-11.8-24.9-26.3-24.9h-711.7c-14.5,0-26.3,11.2-26.3,24.9l0,0.8l-27.3,183.2h819l-27.4-183.5V3883.3z
		"/>
	<path d="M5273.6,3250.4H3993.4c-33.5,0-60.9,25.9-60.9,57.6v684.4c0,31.7,27.4,57.6,60.9,57.6h202.5l27.4-184.4
		c0.2-19.6,17.2-35.6,38-35.6h744.2c20.8,0,37.8,15.9,38,35.6l27.4,184.4h202.5c33.5,0,60.9-25.9,60.9-57.6V3308
		C5334.5,3276.3,5307.1,3250.4,5273.6,3250.4z M5288.7,3718.1c0,18.2-15.8,33.1-35.1,33.1H4013.3c-19.3,0-35-14.9-35-33.1v-393.6
		c0-18.2,15.8-33.1,35-33.1h1240.3c19.3,0,35.1,14.9,35.1,33.1V3718.1z"/>
	<path d="M4986.7,3439h-706.6c-8,0-14.6,6.2-14.6,13.8v163.9c0,7.6,6.6,13.8,14.6,13.8h706.6c8,0,14.6-6.2,14.6-13.8v-163.9
		C5001.3,3445.2,4994.8,3439,4986.7,3439z"/>
	<path class="st3" d="M4867.2,3612c-45.2,0-81.8-34.6-81.8-77.3c0-42.7,36.6-77.3,81.8-77.3s81.8,34.6,81.8,77.3
		C4949,3577.4,4912.4,3612,4867.2,3612z"/>
	<path class="st3" d="M4390.9,3612c-45.2,0-81.8-34.6-81.8-77.3c0-42.7,36.6-77.3,81.8-77.3s81.8,34.6,81.8,77.3
		C4472.8,3577.4,4436.1,3612,4390.9,3612z"/>
</g>
<g>
	<path class="st4" d="M5193.5,2779.6H4083.2c-63.4,0-114.9-51.4-114.9-114.9v-312.2c0-63.4,51.4-114.9,114.9-114.9h1110.2
		c63.4,0,114.9,51.4,114.9,114.9v312.2C5308.3,2728.2,5256.9,2779.6,5193.5,2779.6z"/>
	<path d="M5015.6,2870.6c0-13.7-11.8-24.9-26.3-24.9h-711.7c-14.5,0-26.3,11.2-26.3,24.9l0,0.8l-27.3,183.2h819l-27.4-183.5V2870.6z
		"/>
	<path d="M5273.6,2237.7H3993.5c-33.5,0-60.9,25.9-60.9,57.6v684.4c0,31.7,27.4,57.6,60.9,57.6h202.5l27.4-184.4
		c0.2-19.6,17.2-35.6,38-35.6h744.2c20.8,0,37.8,15.9,38,35.6l27.4,184.4h202.5c33.5,0,60.9-25.9,60.9-57.6v-684.4
		C5334.5,2263.6,5307.1,2237.7,5273.6,2237.7z M5288.8,2705.4c0,18.2-15.8,33.1-35.1,33.1H4013.4c-19.3,0-35-14.9-35-33.1v-393.6
		c0-18.2,15.8-33.1,35-33.1h1240.3c19.3,0,35.1,14.9,35.1,33.1V2705.4z"/>
	<path d="M4986.8,2426.3h-706.6c-8,0-14.6,6.2-14.6,13.8V2604c0,7.6,6.6,13.8,14.6,13.8h706.6c8,0,14.6-6.2,14.6-13.8v-163.9
		C5001.4,2432.5,4994.8,2426.3,4986.8,2426.3z"/>
	<path class="st3" d="M4395.9,2599.3c-45.2,0-81.8-34.6-81.8-77.3c0-42.7,36.6-77.3,81.8-77.3s81.8,34.6,81.8,77.3
		C4477.8,2564.7,4441.1,2599.3,4395.9,2599.3z"/>
	<path class="st3" d="M4862.5,2601.5c-45.2,0-81.8-34.6-81.8-77.3c0-42.7,36.6-77.3,81.8-77.3s81.8,34.6,81.8,77.3
		C4944.4,2566.9,4907.7,2601.5,4862.5,2601.5z"/>
</g>
<g>
	<path class="st5" d="M7045.7,3764.2H5913.9c-63.4,0-114.9-51.4-114.9-114.9v-298.4c0-63.4,51.4-114.9,114.9-114.9h1131.8
		c63.4,0,114.9,51.4,114.9,114.9v298.4C7160.6,3712.8,7109.1,3764.2,7045.7,3764.2z"/>
	<path d="M6863.5,3869c0-13.7-11.8-24.9-26.3-24.9h-711.7c-14.5,0-26.3,11.2-26.3,24.9l0,0.8l-27.3,183.2h819l-27.4-183.5V3869z"/>
	<path d="M7121.5,3236.1H5841.3c-33.5,0-60.9,25.9-60.9,57.6v684.4c0,31.7,27.4,57.6,60.9,57.6h202.5l27.4-184.4
		c0.2-19.6,17.2-35.6,38-35.6h744.2c20.8,0,37.8,15.9,38,35.6l27.4,184.4h202.5c33.5,0,60.9-25.9,60.9-57.6v-684.4
		C7182.4,3262,7155,3236.1,7121.5,3236.1z M7136.6,3703.8c0,18.2-15.8,33.1-35.1,33.1H5861.2c-19.3,0-35-14.9-35-33.1v-393.6
		c0-18.2,15.8-33.1,35-33.1h1240.3c19.3,0,35.1,14.9,35.1,33.1V3703.8z"/>
	<path d="M6834.6,3424.7H6128c-8,0-14.6,6.2-14.6,13.8v163.9c0,7.6,6.6,13.8,14.6,13.8h706.6c8,0,14.6-6.2,14.6-13.8v-163.9
		C6849.2,3430.9,6842.7,3424.7,6834.6,3424.7z"/>
	<path class="st3" d="M6715.1,3597.7c-45.2,0-81.8-34.6-81.8-77.3c0-42.7,36.6-77.3,81.8-77.3s81.8,34.6,81.8,77.3
		C6796.9,3563.1,6760.3,3597.7,6715.1,3597.7z"/>
	<path class="st3" d="M6238.8,3597.7c-45.2,0-81.8-34.6-81.8-77.3c0-42.7,36.6-77.3,81.8-77.3s81.8,34.6,81.8,77.3
		C6320.7,3563.1,6284,3597.7,6238.8,3597.7z"/>
</g>
<g>
	<path class="st6" d="M7041.4,2761.9H5913.9c-63.4,0-114.9-51.4-114.9-114.9v-308.7c0-63.4,51.4-114.9,114.9-114.9h1127.4
		c63.4,0,114.9,51.4,114.9,114.9V2647C7156.2,2710.4,7104.8,2761.9,7041.4,2761.9z"/>
	<path d="M6863.5,2856.3c0-13.7-11.8-24.9-26.3-24.9h-711.7c-14.5,0-26.3,11.2-26.3,24.9l0,0.8l-27.3,183.2h819l-27.4-183.5V2856.3z
		"/>
	<path d="M7121.5,2223.4H5841.4c-33.5,0-60.9,25.9-60.9,57.6v684.4c0,31.7,27.4,57.6,60.9,57.6h202.5l27.4-184.4
		c0.2-19.6,17.2-35.6,38-35.6h744.2c20.8,0,37.8,15.9,38,35.6l27.4,184.4h202.5c33.5,0,60.9-25.9,60.9-57.6V2281
		C7182.4,2249.3,7155,2223.4,7121.5,2223.4z M7136.7,2691.2c0,18.2-15.8,33.1-35.1,33.1H5861.3c-19.3,0-35-14.9-35-33.1v-393.6
		c0-18.2,15.8-33.1,35-33.1h1240.3c19.3,0,35.1,14.9,35.1,33.1V2691.2z"/>
	<path d="M6834.7,2412h-706.6c-8,0-14.6,6.2-14.6,13.8v163.9c0,7.6,6.6,13.8,14.6,13.8h706.6c8,0,14.6-6.2,14.6-13.8v-163.9
		C6849.3,2418.2,6842.7,2412,6834.7,2412z"/>
	<path class="st3" d="M6243.8,2585c-45.2,0-81.8-34.6-81.8-77.3c0-42.7,36.6-77.3,81.8-77.3s81.8,34.6,81.8,77.3
		C6325.7,2550.4,6289,2585,6243.8,2585z"/>
	<path class="st3" d="M6710.4,2587.2c-45.2,0-81.8-34.6-81.8-77.3c0-42.7,36.6-77.3,81.8-77.3s81.8,34.6,81.8,77.3
		C6792.3,2552.6,6755.6,2587.2,6710.4,2587.2z"/>
</g>
</svg>
