<?xml version="1.0" encoding="utf-8"?>
<!-- Generator: Adobe Illustrator 25.2.0, SVG Export Plug-In . SVG Version: 6.00 Build 0)  -->
<svg version="1.1" id="Layer_1" xmlns="http://www.w3.org/2000/svg" xmlns:xlink="http://www.w3.org/1999/xlink" x="0px" y="0px"
	 viewBox="0 0 6991.7 3703.1" style="enable-background:new 0 0 6991.7 3703.1;" xml:space="preserve">
<style type="text/css">
	.st0{fill:#C43939;}
	.st1{fill:#FFFFFF;}
	.st2{fill:#D7E022;}
	.st3{fill:#EADE88;}
	.st4{fill:#638DEA;}
</style>
<g>
	<path class="st0" d="M762.7,893.5H295.4c-48.9,0-88.6-39.7-88.6-88.6v0c0-48.9,39.7-88.6,88.6-88.6h467.3
		c48.9,0,88.6,39.7,88.6,88.6v0C851.3,853.9,811.6,893.5,762.7,893.5z"/>
	<path d="M704.7,919.9c0-4.4-5.4-8-12.1-8H365.4c-6.7,0-12.1,3.6-12.1,8l0,0.2L340.8,979h376.5l-12.6-59V919.9z"/>
	<path d="M823.3,713.5H234.8c-15.4,0-28,8.5-28,18.9v224.8c0,10.4,12.6,18.9,28,18.9h93.1l12.6-60.6c0.1-6.5,7.9-11.7,17.5-11.7
		h342.1c9.6,0,17.4,5.2,17.5,11.7l12.6,60.6h93.1c15.4,0,28-8.5,28-18.9V732.5C851.3,722.1,838.7,713.5,823.3,713.5z M830.2,867.2
		c0,6-7.2,10.9-16.1,10.9H244c-8.9,0-16.1-4.9-16.1-10.9V737.9c0-6,7.2-10.9,16.1-10.9h570.2c8.9,0,16.1,4.9,16.1,10.9V867.2z"/>
	<path d="M691.4,777H366.6c-3.7,0-6.7,2-6.7,4.4v52.7c0,2.4,3,4.4,6.7,4.4h324.8c3.7,0,6.7-2,6.7-4.4v-52.7
		C698.1,779,695.1,777,691.4,777z"/>
	<path class="st1" d="M636.5,832.6c-20.8,0-37.6-11.1-37.6-24.9s16.8-24.9,37.6-24.9s37.6,11.1,37.6,24.9
		C674.1,821.5,657.2,832.6,636.5,832.6z"/>
	<path class="st1" d="M417.5,832.6c-20.8,0-37.6-11.1-37.6-24.9s16.8-24.9,37.6-24.9c20.8,0,37.6,11.1,37.6,24.9
		C455.1,821.5,438.3,832.6,417.5,832.6z"/>
</g>
<g>
	<path class="st2" d="M764.1,460.5H293.9c-48.1,0-87.1-39-87.1-87.1v0c0-48.1,39-87.1,87.1-87.1h470.2c48.1,0,87.1,39,87.1,87.1v0
		C851.2,421.5,812.2,460.5,764.1,460.5z"/>
	<path d="M704.6,489.8c0-4.4-5.4-8-12.1-8H365.4c-6.7,0-12.1,3.6-12.1,8l0,0.2l-12.6,58.9h376.5l-12.6-59V489.8z"/>
	<path d="M823.2,286.2H234.8c-15.4,0-28,8.3-28,18.5v220.1c0,10.2,12.6,18.5,28,18.5h93.1l12.6-59.3c0.1-6.3,7.9-11.4,17.5-11.4H700
		c9.6,0,17.4,5.1,17.5,11.4l12.6,59.3h93.1c15.4,0,28-8.3,28-18.5V304.8C851.2,294.6,838.6,286.2,823.2,286.2z M830.2,436.7
		c0,5.9-7.2,10.7-16.1,10.7H243.9c-8.9,0-16.1-4.8-16.1-10.7V310.1c0-5.9,7.2-10.7,16.1-10.7h570.1c8.9,0,16.1,4.8,16.1,10.7V436.7z
		"/>
	<path d="M691.4,346.9H366.6c-3.7,0-6.7,2-6.7,4.4V404c0,2.4,3,4.4,6.7,4.4h324.8c3.7,0,6.7-2,6.7-4.4v-52.7
		C698.1,348.9,695.1,346.9,691.4,346.9z"/>
	<path class="st1" d="M419.8,402.5c-20.8,0-37.6-11.1-37.6-24.9c0-13.7,16.8-24.9,37.6-24.9c20.8,0,37.6,11.1,37.6,24.9
		C457.4,391.4,440.6,402.5,419.8,402.5z"/>
	<path class="st1" d="M634.3,403.2c-20.8,0-37.6-11.1-37.6-24.9s16.8-24.9,37.6-24.9s37.6,11.1,37.6,24.9
		C671.9,392.1,655,403.2,634.3,403.2z"/>
</g>
<g>
	<path class="st3" d="M1653.4,868.4h-474.1c-46.6,0-84.4-37.8-84.4-84.4v0c0-46.6,37.8-84.4,84.4-84.4h474.1
		c46.6,0,84.4,37.8,84.4,84.4v0C1737.8,830.6,1700,868.4,1653.4,868.4z"/>
	<path d="M1591.6,901.9c0-4.4-5.4-7.9-12.1-7.9h-326.4c-6.7,0-12.1,3.6-12.1,7.9l0,0.2l-12.5,58.6h375.6l-12.5-58.7V901.9z"/>
	<path d="M1709.9,699.5h-587.1c-15.4,0-27.9,8.3-27.9,18.4v218.8c0,10.1,12.6,18.4,27.9,18.4h92.9l12.6-58.9
		c0.1-6.3,7.9-11.4,17.4-11.4H1587c9.6,0,17.3,5.1,17.4,11.4l12.6,58.9h92.9c15.4,0,27.9-8.3,27.9-18.4V718
		C1737.9,707.8,1725.3,699.5,1709.9,699.5z M1716.9,849.1c0,5.8-7.2,10.6-16.1,10.6H1132c-8.8,0-16.1-4.8-16.1-10.6V723.2
		c0-5.8,7.2-10.6,16.1-10.6h568.8c8.8,0,16.1,4.8,16.1,10.6V849.1z"/>
	<path d="M1578.4,759.8h-324c-3.7,0-6.7,2-6.7,4.4v52.4c0,2.4,3,4.4,6.7,4.4h324.1c3.7,0,6.7-2,6.7-4.4v-52.4
		C1585.1,761.8,1582.1,759.8,1578.4,759.8z"/>
	<path class="st1" d="M1523.6,815.1c-20.7,0-37.5-11.1-37.5-24.7c0-13.6,16.8-24.7,37.5-24.7c20.7,0,37.5,11.1,37.5,24.7
		C1561.1,804.1,1544.3,815.1,1523.6,815.1z"/>
	<path class="st1" d="M1305.1,815.1c-20.7,0-37.5-11.1-37.5-24.7c0-13.6,16.8-24.7,37.5-24.7s37.5,11.1,37.5,24.7
		C1342.7,804.1,1325.9,815.1,1305.1,815.1z"/>
</g>
<g>
	<path class="st4" d="M1651.2,446.6h-469.7c-47.8,0-86.6-38.8-86.6-86.6v0c0-47.8,38.8-86.6,86.6-86.6h469.7
		c47.8,0,86.6,38.8,86.6,86.6v0C1737.8,407.8,1699.1,446.6,1651.2,446.6z"/>
	<path d="M1591.6,475.7c0-4.4-5.4-7.9-12.1-7.9h-326.4c-6.7,0-12.1,3.6-12.1,7.9l0,0.2l-12.5,58.6h375.6l-12.5-58.7V475.7z"/>
	<path d="M1709.9,273.3h-587.1c-15.4,0-27.9,8.3-27.9,18.4v218.8c0,10.1,12.6,18.4,27.9,18.4h92.9l12.6-58.9
		c0.1-6.3,7.9-11.4,17.4-11.4H1587c9.5,0,17.3,5.1,17.4,11.4l12.6,58.9h92.9c15.4,0,27.9-8.3,27.9-18.4V291.8
		C1737.9,281.6,1725.3,273.3,1709.9,273.3z M1716.9,422.9c0,5.8-7.2,10.6-16.1,10.6H1132c-8.8,0-16.1-4.8-16.1-10.6V297
		c0-5.8,7.2-10.6,16.1-10.6h568.8c8.8,0,16.1,4.8,16.1,10.6V422.9z"/>
	<path d="M1578.4,333.6h-324c-3.7,0-6.7,2-6.7,4.4v52.4c0,2.4,3,4.4,6.7,4.4h324.1c3.7,0,6.7-2,6.7-4.4v-52.4
		C1585.1,335.6,1582.1,333.6,1578.4,333.6z"/>
	<path class="st1" d="M1307.4,388.9c-20.7,0-37.5-11.1-37.5-24.7c0-13.6,16.8-24.7,37.5-24.7c20.7,0,37.5,11.1,37.5,24.7
		C1345,377.9,1328.2,388.9,1307.4,388.9z"/>
	<path class="st1" d="M1521.4,389.6c-20.7,0-37.5-11.1-37.5-24.7c0-13.6,16.8-24.7,37.5-24.7c20.7,0,37.5,11.1,37.5,24.7
		C1558.9,378.6,1542.1,389.6,1521.4,389.6z"/>
</g>
<g>
	<path class="st0" d="M758.8,1742.5H299.2c-51,0-92.4-41.4-92.4-92.4v0c0-51,41.4-92.4,92.4-92.4h459.7c51,0,92.4,41.4,92.4,92.4v0
		C851.2,1701.1,809.8,1742.5,758.8,1742.5z"/>
	<path d="M704.6,1761.2c0-4.4-5.4-8-12.1-8H365.4c-6.7,0-12.1,3.6-12.1,8l0,0.2l-12.6,58.9h376.5l-12.6-59V1761.2z"/>
	<path d="M823.2,1557.7H234.8c-15.4,0-28,8.3-28,18.5v220.1c0,10.2,12.6,18.5,28,18.5h93.1l12.6-59.3c0.1-6.3,7.9-11.4,17.5-11.4
		H700c9.6,0,17.4,5.1,17.5,11.4l12.6,59.3h93.1c15.4,0,28-8.3,28-18.5v-220.1C851.2,1566.1,838.6,1557.7,823.2,1557.7z
		 M830.2,1708.1c0,5.9-7.2,10.7-16.1,10.7H243.9c-8.9,0-16.1-4.8-16.1-10.7v-126.6c0-5.9,7.2-10.7,16.1-10.7h570.2
		c8.9,0,16.1,4.8,16.1,10.7V1708.1z"/>
	<path d="M691.4,1618.4H366.6c-3.7,0-6.7,2-6.7,4.4v52.7c0,2.4,3,4.4,6.7,4.4h324.8c3.7,0,6.7-2,6.7-4.4v-52.7
		C698.1,1620.4,695.1,1618.4,691.4,1618.4z"/>
	<path class="st1" d="M636.4,1674c-20.8,0-37.6-11.1-37.6-24.9c0-13.7,16.8-24.9,37.6-24.9s37.6,11.1,37.6,24.9
		C674,1662.9,657.2,1674,636.4,1674z"/>
	<path class="st1" d="M417.5,1674c-20.8,0-37.6-11.1-37.6-24.9c0-13.7,16.8-24.9,37.6-24.9c20.8,0,37.6,11.1,37.6,24.9
		C455.1,1662.9,438.3,1674,417.5,1674z"/>
</g>
<g>
	<path class="st2" d="M775.6,1325.5H317.5c-51.5,0-93.2-41.7-93.2-93.2v0c0-51.5,41.7-93.2,93.2-93.2h458.1
		c51.5,0,93.2,41.7,93.2,93.2v0C868.8,1283.8,827.1,1325.5,775.6,1325.5z"/>
	<path d="M722.2,1342.6c0-4.4-5.4-8-12.1-8H383c-6.7,0-12.1,3.6-12.1,8l0,0.2l-12.6,58.9h376.5l-12.6-59V1342.6z"/>
	<path d="M840.8,1139.1H252.3c-15.4,0-28,8.3-28,18.5v220.1c0,10.2,12.6,18.5,28,18.5h93.1l12.6-59.3c0.1-6.3,7.9-11.4,17.5-11.4
		h342.1c9.6,0,17.4,5.1,17.5,11.4l12.6,59.3h93.1c15.4,0,28-8.3,28-18.5v-220.1C868.8,1147.4,856.2,1139.1,840.8,1139.1z
		 M847.8,1289.5c0,5.9-7.2,10.7-16.1,10.7H261.5c-8.9,0-16.1-4.8-16.1-10.7v-126.6c0-5.9,7.2-10.7,16.1-10.7h570.2
		c8.9,0,16.1,4.8,16.1,10.7V1289.5z"/>
	<path d="M708.9,1199.8H384.1c-3.7,0-6.7,2-6.7,4.4v52.7c0,2.4,3,4.4,6.7,4.4H709c3.7,0,6.7-2,6.7-4.4v-52.7
		C715.7,1201.8,712.6,1199.8,708.9,1199.8z"/>
	<path class="st1" d="M437.3,1255.4c-20.8,0-37.6-11.1-37.6-24.9c0-13.7,16.8-24.9,37.6-24.9c20.8,0,37.6,11.1,37.6,24.9
		C475,1244.3,458.1,1255.4,437.3,1255.4z"/>
	<path class="st1" d="M651.8,1256.1c-20.8,0-37.6-11.1-37.6-24.9c0-13.7,16.8-24.9,37.6-24.9s37.6,11.1,37.6,24.9
		C689.5,1245,672.6,1256.1,651.8,1256.1z"/>
</g>
<g>
	<path class="st3" d="M1663.5,1708h-459.7c-48.2,0-87.3-39.1-87.3-87.3v0c0-48.2,39.1-87.3,87.3-87.3h459.7
		c48.2,0,87.3,39.1,87.3,87.3v0C1750.9,1668.9,1711.8,1708,1663.5,1708z"/>
	<path d="M1604.6,1735.7c0-4.4-5.4-7.9-12.1-7.9h-326.4c-6.7,0-12.1,3.6-12.1,7.9l0,0.2l-12.5,58.6h375.6l-12.5-58.7V1735.7z"/>
	<path d="M1722.9,1533.4h-587.1c-15.4,0-27.9,8.3-27.9,18.4v218.8c0,10.1,12.6,18.4,27.9,18.4h92.9l12.6-58.9
		c0.1-6.3,7.9-11.4,17.4-11.4H1600c9.5,0,17.3,5.1,17.4,11.4l12.6,58.9h92.9c15.4,0,27.9-8.3,27.9-18.4v-218.8
		C1750.9,1541.6,1738.3,1533.4,1722.9,1533.4z M1729.9,1682.9c0,5.8-7.2,10.6-16.1,10.6H1145c-8.8,0-16.1-4.8-16.1-10.6v-125.8
		c0-5.8,7.2-10.6,16.1-10.6h568.8c8.8,0,16.1,4.8,16.1,10.6V1682.9z"/>
	<path d="M1591.4,1593.7h-324c-3.7,0-6.7,2-6.7,4.4v52.4c0,2.4,3,4.4,6.7,4.4h324.1c3.7,0,6.7-2,6.7-4.4v-52.4
		C1598.1,1595.6,1595.1,1593.7,1591.4,1593.7z"/>
	<path class="st1" d="M1536.6,1649c-20.7,0-37.5-11.1-37.5-24.7s16.8-24.7,37.5-24.7s37.5,11.1,37.5,24.7
		C1574.1,1637.9,1557.3,1649,1536.6,1649z"/>
	<path class="st1" d="M1318.1,1649c-20.7,0-37.5-11.1-37.5-24.7s16.8-24.7,37.5-24.7s37.5,11.1,37.5,24.7
		C1355.7,1637.9,1338.9,1649,1318.1,1649z"/>
</g>
<g>
	<path class="st4" d="M1651.8,1300.3H1181c-47.5,0-86.1-38.5-86.1-86.1v0c0-47.5,38.5-86.1,86.1-86.1h470.8
		c47.5,0,86.1,38.5,86.1,86.1v0C1737.8,1261.7,1699.3,1300.3,1651.8,1300.3z"/>
	<path d="M1591.6,1330.5c0-4.4-5.4-7.9-12.1-7.9h-326.4c-6.7,0-12.1,3.6-12.1,7.9l0,0.2l-12.5,58.6h375.6l-12.5-58.7V1330.5z"/>
	<path d="M1709.9,1128.1h-587.1c-15.4,0-27.9,8.3-27.9,18.4v218.8c0,10.1,12.6,18.4,27.9,18.4h92.9l12.6-58.9
		c0.1-6.3,7.9-11.4,17.4-11.4H1587c9.5,0,17.3,5.1,17.4,11.4l12.6,58.9h92.9c15.4,0,27.9-8.3,27.9-18.4v-218.8
		C1737.9,1136.4,1725.3,1128.1,1709.9,1128.1z M1716.9,1277.7c0,5.8-7.2,10.6-16.1,10.6H1132c-8.8,0-16.1-4.8-16.1-10.6v-125.8
		c0-5.8,7.2-10.6,16.1-10.6h568.8c8.8,0,16.1,4.8,16.1,10.6V1277.7z"/>
	<path d="M1578.4,1188.4h-324c-3.7,0-6.7,2-6.7,4.4v52.4c0,2.4,3,4.4,6.7,4.4h324.1c3.7,0,6.7-2,6.7-4.4v-52.4
		C1585.1,1190.4,1582.1,1188.4,1578.4,1188.4z"/>
	<path class="st1" d="M1307.4,1243.7c-20.7,0-37.5-11.1-37.5-24.7s16.8-24.7,37.5-24.7s37.5,11.1,37.5,24.7
		C1345,1232.7,1328.2,1243.7,1307.4,1243.7z"/>
	<path class="st1" d="M1521.4,1244.4c-20.7,0-37.5-11.1-37.5-24.7s16.8-24.7,37.5-24.7s37.5,11.1,37.5,24.7
		C1558.9,1233.4,1542.1,1244.4,1521.4,1244.4z"/>
</g>
<g>
	<path class="st0" d="M762.6,2613.7H295.3c-48.9,0-88.6-39.7-88.6-88.6v0c0-48.9,39.7-88.6,88.6-88.6h467.3
		c48.9,0,88.6,39.7,88.6,88.6v0C851.2,2574.1,811.5,2613.7,762.6,2613.7z"/>
	<path d="M704.6,2640.1c0-4.4-5.4-8-12.1-8H365.4c-6.7,0-12.1,3.6-12.1,8l0,0.2l-12.6,58.9h376.5l-12.6-59V2640.1z"/>
	<path d="M823.2,2433.8H234.8c-15.4,0-28,8.5-28,18.9v224.8c0,10.4,12.6,18.9,28,18.9h93.1l12.6-60.6c0.1-6.5,7.9-11.7,17.5-11.7
		H700c9.6,0,17.4,5.2,17.5,11.7l12.6,60.6h93.1c15.4,0,28-8.5,28-18.9v-224.8C851.2,2442.3,838.6,2433.8,823.2,2433.8z
		 M830.2,2587.4c0,6-7.2,10.9-16.1,10.9H243.9c-8.9,0-16.1-4.9-16.1-10.9v-129.3c0-6,7.2-10.9,16.1-10.9h570.2
		c8.9,0,16.1,4.9,16.1,10.9V2587.4z"/>
	<path d="M691.4,2497.2H366.6c-3.7,0-6.7,2-6.7,4.4v52.7c0,2.4,3,4.4,6.7,4.4h324.8c3.7,0,6.7-2,6.7-4.4v-52.7
		C698.1,2499.2,695.1,2497.2,691.4,2497.2z"/>
	<path class="st1" d="M636.4,2552.8c-20.8,0-37.6-11.1-37.6-24.9s16.8-24.9,37.6-24.9s37.6,11.1,37.6,24.9
		C674,2541.7,657.2,2552.8,636.4,2552.8z"/>
	<path class="st1" d="M417.5,2552.8c-20.8,0-37.6-11.1-37.6-24.9s16.8-24.9,37.6-24.9c20.8,0,37.6,11.1,37.6,24.9
		C455.1,2541.7,438.3,2552.8,417.5,2552.8z"/>
</g>
<g>
	<path class="st2" d="M764.1,2180.7H293.9c-48.1,0-87.1-39-87.1-87.1v0c0-48.1,39-87.1,87.1-87.1h470.2c48.1,0,87.1,39,87.1,87.1v0
		C851.2,2141.7,812.2,2180.7,764.1,2180.7z"/>
	<path d="M704.6,2210c0-4.4-5.4-8-12.1-8H365.4c-6.7,0-12.1,3.6-12.1,8l0,0.2l-12.6,58.9h376.5l-12.6-59V2210z"/>
	<path d="M823.2,2006.4H234.8c-15.4,0-28,8.3-28,18.5V2245c0,10.2,12.6,18.5,28,18.5h93.1l12.6-59.3c0.1-6.3,7.9-11.4,17.5-11.4H700
		c9.6,0,17.4,5.1,17.5,11.4l12.6,59.3h93.1c15.4,0,28-8.3,28-18.5V2025C851.2,2014.8,838.6,2006.4,823.2,2006.4z M830.2,2156.9
		c0,5.9-7.2,10.7-16.1,10.7H243.9c-8.9,0-16.1-4.8-16.1-10.7v-126.6c0-5.9,7.2-10.7,16.1-10.7h570.1c8.9,0,16.1,4.8,16.1,10.7
		V2156.9z"/>
	<path d="M691.4,2067.1H366.6c-3.7,0-6.7,2-6.7,4.4v52.7c0,2.4,3,4.4,6.7,4.4h324.8c3.7,0,6.7-2,6.7-4.4v-52.7
		C698.1,2069.1,695.1,2067.1,691.4,2067.1z"/>
	<path class="st1" d="M419.8,2122.7c-20.8,0-37.6-11.1-37.6-24.9c0-13.7,16.8-24.9,37.6-24.9c20.8,0,37.6,11.1,37.6,24.9
		C457.4,2111.6,440.6,2122.7,419.8,2122.7z"/>
	<path class="st1" d="M634.3,2123.4c-20.8,0-37.6-11.1-37.6-24.9c0-13.7,16.8-24.9,37.6-24.9s37.6,11.1,37.6,24.9
		C671.9,2112.3,655,2123.4,634.3,2123.4z"/>
</g>
<g>
	<path class="st0" d="M758.8,3462.7H299.2c-51,0-92.4-41.4-92.4-92.4v0c0-51,41.4-92.4,92.4-92.4h459.7c51,0,92.4,41.4,92.4,92.4v0
		C851.2,3421.3,809.8,3462.7,758.8,3462.7z"/>
	<path d="M704.6,3481.4c0-4.4-5.4-8-12.1-8H365.4c-6.7,0-12.1,3.6-12.1,8l0,0.2l-12.6,58.9h376.5l-12.6-59V3481.4z"/>
	<path d="M823.2,3277.9H234.8c-15.4,0-28,8.3-28,18.5v220.1c0,10.2,12.6,18.5,28,18.5h93.1l12.6-59.3c0.1-6.3,7.9-11.4,17.5-11.4
		H700c9.6,0,17.4,5.1,17.5,11.4l12.6,59.3h93.1c15.4,0,28-8.3,28-18.5v-220.1C851.2,3286.3,838.6,3277.9,823.2,3277.9z
		 M830.2,3428.3c0,5.9-7.2,10.7-16.1,10.7H243.9c-8.9,0-16.1-4.8-16.1-10.7v-126.6c0-5.9,7.2-10.7,16.1-10.7h570.2
		c8.9,0,16.1,4.8,16.1,10.7V3428.3z"/>
	<path d="M691.4,3338.6H366.6c-3.7,0-6.7,2-6.7,4.4v52.7c0,2.4,3,4.4,6.7,4.4h324.8c3.7,0,6.7-2,6.7-4.4V3343
		C698.1,3340.6,695.1,3338.6,691.4,3338.6z"/>
	<path class="st1" d="M636.4,3394.2c-20.8,0-37.6-11.1-37.6-24.9c0-13.7,16.8-24.9,37.6-24.9s37.6,11.1,37.6,24.9
		C674,3383.1,657.2,3394.2,636.4,3394.2z"/>
	<path class="st1" d="M417.5,3394.2c-20.8,0-37.6-11.1-37.6-24.9c0-13.7,16.8-24.9,37.6-24.9c20.8,0,37.6,11.1,37.6,24.9
		C455.1,3383.1,438.3,3394.2,417.5,3394.2z"/>
</g>
<g>
	<path class="st2" d="M758,3045.7H299.9c-51.5,0-93.2-41.7-93.2-93.2v0c0-51.5,41.7-93.2,93.2-93.2H758c51.5,0,93.2,41.7,93.2,93.2
		v0C851.2,3004,809.5,3045.7,758,3045.7z"/>
	<path d="M704.6,3062.8c0-4.4-5.4-8-12.1-8H365.4c-6.7,0-12.1,3.6-12.1,8l0,0.2l-12.6,58.9h376.5l-12.6-59V3062.8z"/>
	<path d="M823.2,2859.3H234.8c-15.4,0-28,8.3-28,18.5v220.1c0,10.2,12.6,18.5,28,18.5h93.1l12.6-59.3c0.1-6.3,7.9-11.4,17.5-11.4
		H700c9.6,0,17.4,5.1,17.5,11.4l12.6,59.3h93.1c15.4,0,28-8.3,28-18.5v-220.1C851.2,2867.6,838.6,2859.3,823.2,2859.3z
		 M830.2,3009.7c0,5.9-7.2,10.7-16.1,10.7H243.9c-8.9,0-16.1-4.8-16.1-10.7v-126.6c0-5.9,7.2-10.7,16.1-10.7h570.2
		c8.9,0,16.1,4.8,16.1,10.7V3009.7z"/>
	<path d="M691.4,2920H366.6c-3.7,0-6.7,2-6.7,4.4v52.7c0,2.4,3,4.4,6.7,4.4h324.8c3.7,0,6.7-2,6.7-4.4v-52.7
		C698.1,2922,695.1,2920,691.4,2920z"/>
	<path class="st1" d="M419.8,2975.6c-20.8,0-37.6-11.1-37.6-24.9c0-13.7,16.8-24.9,37.6-24.9c20.8,0,37.6,11.1,37.6,24.9
		C457.4,2964.5,440.5,2975.6,419.8,2975.6z"/>
	<path class="st1" d="M634.3,2976.3c-20.8,0-37.6-11.1-37.6-24.9c0-13.7,16.8-24.9,37.6-24.9c20.8,0,37.6,11.1,37.6,24.9
		C671.9,2965.2,655,2976.3,634.3,2976.3z"/>
</g>
<g>
	<path class="st3" d="M1661.2,2600h-474.1c-46.6,0-84.4-37.8-84.4-84.4l0,0c0-46.6,37.8-84.4,84.4-84.4h474.1
		c46.6,0,84.4,37.8,84.4,84.4l0,0C1745.6,2562.2,1707.8,2600,1661.2,2600z"/>
	<path d="M1599.4,2633.5c0-4.4-5.4-7.9-12.1-7.9h-326.4c-6.7,0-12.1,3.6-12.1,7.9l0,0.2l-12.5,58.6h375.6l-12.5-58.7V2633.5z"/>
	<path d="M1717.7,2431.2h-587.1c-15.4,0-27.9,8.3-27.9,18.4v218.8c0,10.1,12.6,18.4,27.9,18.4h92.9l12.6-58.9
		c0.1-6.3,7.9-11.4,17.4-11.4h341.3c9.6,0,17.3,5.1,17.4,11.4l12.6,58.9h92.9c15.4,0,27.9-8.3,27.9-18.4v-218.8
		C1745.6,2439.5,1733,2431.2,1717.7,2431.2z M1724.6,2580.7c0,5.8-7.2,10.6-16.1,10.6h-568.8c-8.8,0-16.1-4.8-16.1-10.6v-125.8
		c0-5.8,7.2-10.6,16.1-10.6h568.8c8.8,0,16.1,4.8,16.1,10.6V2580.7z"/>
	<path d="M1586.1,2491.5h-324c-3.7,0-6.7,2-6.7,4.4v52.4c0,2.4,3,4.4,6.7,4.4h324.1c3.7,0,6.7-2,6.7-4.4v-52.4
		C1592.8,2493.5,1589.8,2491.5,1586.1,2491.5z"/>
	<path class="st1" d="M1531.3,2546.8c-20.7,0-37.5-11.1-37.5-24.7c0-13.6,16.8-24.7,37.5-24.7c20.7,0,37.5,11.1,37.5,24.7
		C1568.8,2535.7,1552,2546.8,1531.3,2546.8z"/>
	<path class="st1" d="M1312.9,2546.8c-20.7,0-37.5-11.1-37.5-24.7c0-13.6,16.8-24.7,37.5-24.7s37.5,11.1,37.5,24.7
		C1350.4,2535.7,1333.6,2546.8,1312.9,2546.8z"/>
</g>
<g>
	<path class="st4" d="M1659,2178.2h-469.7c-47.8,0-86.6-38.8-86.6-86.6v0c0-47.8,38.8-86.6,86.6-86.6H1659
		c47.8,0,86.6,38.8,86.6,86.6v0C1745.6,2139.4,1706.8,2178.2,1659,2178.2z"/>
	<path d="M1599.4,2207.3c0-4.4-5.4-7.9-12.1-7.9h-326.4c-6.7,0-12.1,3.6-12.1,7.9l0,0.2l-12.5,58.6h375.6l-12.5-58.7V2207.3z"/>
	<path d="M1717.7,2005h-587.1c-15.4,0-27.9,8.3-27.9,18.4v218.8c0,10.1,12.6,18.4,27.9,18.4h92.9l12.6-58.9
		c0.1-6.3,7.9-11.4,17.4-11.4h341.3c9.5,0,17.3,5.1,17.4,11.4l12.6,58.9h92.9c15.4,0,27.9-8.3,27.9-18.4v-218.8
		C1745.6,2013.3,1733.1,2005,1717.7,2005z M1724.6,2154.5c0,5.8-7.2,10.6-16.1,10.6h-568.8c-8.8,0-16.1-4.8-16.1-10.6v-125.8
		c0-5.8,7.2-10.6,16.1-10.6h568.8c8.8,0,16.1,4.8,16.1,10.6V2154.5z"/>
	<path d="M1586.1,2065.3h-324c-3.7,0-6.7,2-6.7,4.4v52.4c0,2.4,3,4.4,6.7,4.4h324.1c3.7,0,6.7-2,6.7-4.4v-52.4
		C1592.8,2067.3,1589.8,2065.3,1586.1,2065.3z"/>
	<path class="st1" d="M1315.2,2120.6c-20.7,0-37.5-11.1-37.5-24.7s16.8-24.7,37.5-24.7c20.7,0,37.5,11.1,37.5,24.7
		C1352.7,2109.5,1335.9,2120.6,1315.2,2120.6z"/>
	<path class="st1" d="M1529.2,2121.3c-20.7,0-37.5-11.1-37.5-24.7c0-13.6,16.8-24.7,37.5-24.7c20.7,0,37.5,11.1,37.5,24.7
		C1566.7,2110.2,1549.9,2121.3,1529.2,2121.3z"/>
</g>
<g>
	<path class="st3" d="M1658.3,3439.7h-459.7c-48.2,0-87.3-39.1-87.3-87.3v0c0-48.2,39.1-87.3,87.3-87.3h459.7
		c48.2,0,87.3,39.1,87.3,87.3v0C1745.6,3400.6,1706.5,3439.7,1658.3,3439.7z"/>
	<path d="M1599.4,3467.3c0-4.4-5.4-7.9-12.1-7.9h-326.4c-6.7,0-12.1,3.6-12.1,7.9l0,0.2l-12.5,58.6h375.6l-12.5-58.7V3467.3z"/>
	<path d="M1717.7,3265h-587.1c-15.4,0-27.9,8.3-27.9,18.4v218.8c0,10.1,12.6,18.4,27.9,18.4h92.9l12.6-58.9
		c0.1-6.3,7.9-11.4,17.4-11.4h341.3c9.5,0,17.3,5.1,17.4,11.4l12.6,58.9h92.9c15.4,0,27.9-8.3,27.9-18.4v-218.8
		C1745.6,3273.3,1733.1,3265,1717.7,3265z M1724.6,3414.5c0,5.8-7.2,10.6-16.1,10.6h-568.8c-8.8,0-16.1-4.8-16.1-10.6v-125.8
		c0-5.8,7.2-10.6,16.1-10.6h568.8c8.8,0,16.1,4.8,16.1,10.6V3414.5z"/>
	<path d="M1586.1,3325.3h-324c-3.7,0-6.7,2-6.7,4.4v52.4c0,2.4,3,4.4,6.7,4.4h324.1c3.7,0,6.7-2,6.7-4.4v-52.4
		C1592.8,3327.3,1589.8,3325.3,1586.1,3325.3z"/>
	<path class="st1" d="M1531.3,3380.6c-20.7,0-37.5-11.1-37.5-24.7s16.8-24.7,37.5-24.7s37.5,11.1,37.5,24.7
		C1568.8,3369.5,1552,3380.6,1531.3,3380.6z"/>
	<path class="st1" d="M1312.9,3380.6c-20.7,0-37.5-11.1-37.5-24.7s16.8-24.7,37.5-24.7s37.5,11.1,37.5,24.7
		C1350.4,3369.5,1333.6,3380.6,1312.9,3380.6z"/>
</g>
<g>
	<path class="st4" d="M1659.5,3031.9h-470.8c-47.5,0-86.1-38.5-86.1-86.1v0c0-47.5,38.5-86.1,86.1-86.1h470.8
		c47.5,0,86.1,38.5,86.1,86.1v0C1745.6,2993.4,1707.1,3031.9,1659.5,3031.9z"/>
	<path d="M1599.4,3062.1c0-4.4-5.4-7.9-12.1-7.9h-326.4c-6.7,0-12.1,3.6-12.1,7.9l0,0.2l-12.5,58.6h375.6l-12.5-58.7V3062.1z"/>
	<path d="M1717.7,2859.8h-587.1c-15.4,0-27.9,8.3-27.9,18.4V3097c0,10.1,12.6,18.4,27.9,18.4h92.9l12.6-58.9
		c0.1-6.3,7.9-11.4,17.4-11.4h341.3c9.5,0,17.3,5.1,17.4,11.4l12.6,58.9h92.9c15.4,0,27.9-8.3,27.9-18.4v-218.8
		C1745.6,2868.1,1733.1,2859.8,1717.7,2859.8z M1724.6,3009.3c0,5.8-7.2,10.6-16.1,10.6h-568.8c-8.8,0-16.1-4.8-16.1-10.6v-125.8
		c0-5.8,7.2-10.6,16.1-10.6h568.8c8.8,0,16.1,4.8,16.1,10.6V3009.3z"/>
	<path d="M1586.1,2920.1h-324c-3.7,0-6.7,2-6.7,4.4v52.4c0,2.4,3,4.4,6.7,4.4h324.1c3.7,0,6.7-2,6.7-4.4v-52.4
		C1592.8,2922.1,1589.8,2920.1,1586.1,2920.1z"/>
	<path class="st1" d="M1315.2,2975.4c-20.7,0-37.5-11.1-37.5-24.7s16.8-24.7,37.5-24.7s37.5,11.1,37.5,24.7
		C1352.7,2964.3,1335.9,2975.4,1315.2,2975.4z"/>
	<path class="st1" d="M1529.2,2976.1c-20.7,0-37.5-11.1-37.5-24.7s16.8-24.7,37.5-24.7s37.5,11.1,37.5,24.7
		C1566.7,2965,1549.9,2976.1,1529.2,2976.1z"/>
</g>
<g>
	<path class="st0" d="M2522,894h-467.3c-48.9,0-88.6-39.7-88.6-88.6v0c0-48.9,39.7-88.6,88.6-88.6H2522c48.9,0,88.6,39.7,88.6,88.6
		v0C2610.5,854.3,2570.9,894,2522,894z"/>
	<path d="M2464,920.3c0-4.4-5.4-8-12.1-8h-327.2c-6.7,0-12.1,3.6-12.1,8l0,0.2l-12.6,58.9h376.5l-12.6-59V920.3z"/>
	<path d="M2582.6,714h-588.5c-15.4,0-28,8.5-28,18.9v224.8c0,10.4,12.6,18.9,28,18.9h93.1l12.6-60.6c0.1-6.5,7.9-11.7,17.5-11.7
		h342.1c9.6,0,17.4,5.2,17.5,11.7l12.6,60.6h93.1c15.4,0,28-8.5,28-18.9V732.9C2610.6,722.5,2598,714,2582.6,714z M2589.5,867.7
		c0,6-7.2,10.9-16.1,10.9h-570.2c-8.9,0-16.1-4.9-16.1-10.9V738.4c0-6,7.2-10.9,16.1-10.9h570.2c8.9,0,16.1,4.9,16.1,10.9V867.7z"/>
	<path d="M2450.7,777.4h-324.8c-3.7,0-6.7,2-6.7,4.4v52.7c0,2.4,3,4.4,6.7,4.4h324.8c3.7,0,6.7-2,6.7-4.4v-52.7
		C2457.4,779.4,2454.4,777.4,2450.7,777.4z"/>
	<path class="st1" d="M2395.8,833.1c-20.8,0-37.6-11.1-37.6-24.9s16.8-24.9,37.6-24.9c20.8,0,37.6,11.1,37.6,24.9
		C2433.4,821.9,2416.5,833.1,2395.8,833.1z"/>
	<path class="st1" d="M2176.8,833.1c-20.8,0-37.6-11.1-37.6-24.9s16.8-24.9,37.6-24.9s37.6,11.1,37.6,24.9
		C2214.4,821.9,2197.6,833.1,2176.8,833.1z"/>
</g>
<g>
	<path class="st2" d="M2523.4,460.9h-470.2c-48.1,0-87.1-39-87.1-87.1v0c0-48.1,39-87.1,87.1-87.1h470.2c48.1,0,87.1,39,87.1,87.1v0
		C2610.5,421.9,2571.5,460.9,2523.4,460.9z"/>
	<path d="M2463.9,490.2c0-4.4-5.4-8-12.1-8h-327.1c-6.7,0-12.1,3.6-12.1,8l0,0.2l-12.6,58.9h376.5l-12.6-59V490.2z"/>
	<path d="M2582.5,286.7h-588.4c-15.4,0-28,8.3-28,18.5v220.1c0,10.2,12.6,18.5,28,18.5h93.1l12.6-59.3c0.1-6.3,7.9-11.4,17.5-11.4
		h342.1c9.6,0,17.4,5.1,17.5,11.4l12.6,59.3h93.1c15.4,0,28-8.3,28-18.5V305.2C2610.5,295,2597.9,286.7,2582.5,286.7z M2589.5,437.1
		c0,5.9-7.2,10.7-16.1,10.7h-570.1c-8.9,0-16.1-4.8-16.1-10.7V310.5c0-5.9,7.2-10.7,16.1-10.7h570.1c8.9,0,16.1,4.8,16.1,10.7V437.1
		z"/>
	<path d="M2450.7,347.4h-324.8c-3.7,0-6.7,2-6.7,4.4v52.7c0,2.4,3,4.4,6.7,4.4h324.8c3.7,0,6.7-2,6.7-4.4v-52.7
		C2457.4,349.3,2454.3,347.4,2450.7,347.4z"/>
	<path class="st1" d="M2179.1,403c-20.8,0-37.6-11.1-37.6-24.9s16.8-24.9,37.6-24.9c20.8,0,37.6,11.1,37.6,24.9
		C2216.7,391.9,2199.8,403,2179.1,403z"/>
	<path class="st1" d="M2393.6,403.7c-20.8,0-37.6-11.1-37.6-24.9c0-13.7,16.8-24.9,37.6-24.9s37.6,11.1,37.6,24.9
		C2431.2,392.5,2414.3,403.7,2393.6,403.7z"/>
</g>
<g>
	<path class="st3" d="M3404.8,861.1h-474.1c-46.6,0-84.4-37.8-84.4-84.4v0c0-46.6,37.8-84.4,84.4-84.4h474.1
		c46.6,0,84.4,37.8,84.4,84.4v0C3489.3,823.3,3451.5,861.1,3404.8,861.1z"/>
	<path d="M3343,894.6c0-4.4-5.4-7.9-12.1-7.9h-326.4c-6.7,0-12.1,3.6-12.1,7.9l0,0.2l-12.5,58.6h375.6l-12.5-58.7V894.6z"/>
	<path d="M3461.3,692.3h-587.1c-15.4,0-27.9,8.3-27.9,18.4v218.8c0,10.1,12.6,18.4,27.9,18.4h92.9l12.6-58.9
		c0.1-6.3,7.9-11.4,17.4-11.4h341.3c9.6,0,17.3,5.1,17.4,11.4l12.6,58.9h92.9c15.4,0,27.9-8.3,27.9-18.4V710.7
		C3489.3,700.5,3476.7,692.3,3461.3,692.3z M3468.3,841.8c0,5.8-7.2,10.6-16.1,10.6h-568.8c-8.8,0-16.1-4.8-16.1-10.6V716
		c0-5.8,7.2-10.6,16.1-10.6h568.8c8.8,0,16.1,4.8,16.1,10.6V841.8z"/>
	<path d="M3329.8,752.6h-324c-3.7,0-6.7,2-6.7,4.4v52.4c0,2.4,3,4.4,6.7,4.4h324.1c3.7,0,6.7-2,6.7-4.4V757
		C3336.5,754.5,3333.5,752.6,3329.8,752.6z"/>
	<path class="st1" d="M3275,807.9c-20.7,0-37.5-11.1-37.5-24.7c0-13.6,16.8-24.7,37.5-24.7c20.7,0,37.5,11.1,37.5,24.7
		C3312.5,796.8,3295.7,807.9,3275,807.9z"/>
	<path class="st1" d="M3056.5,807.9c-20.7,0-37.5-11.1-37.5-24.7c0-13.6,16.8-24.7,37.5-24.7c20.7,0,37.5,11.1,37.5,24.7
		C3094.1,796.8,3077.3,807.9,3056.5,807.9z"/>
</g>
<g>
	<path class="st4" d="M3402.6,439.3h-469.7c-47.8,0-86.6-38.8-86.6-86.6v0c0-47.8,38.8-86.6,86.6-86.6h469.7
		c47.8,0,86.6,38.8,86.6,86.6v0C3489.2,400.5,3450.5,439.3,3402.6,439.3z"/>
	<path d="M3343,468.4c0-4.4-5.4-7.9-12.1-7.9h-326.4c-6.7,0-12.1,3.6-12.1,7.9l0,0.2l-12.5,58.6h375.6l-12.5-58.7V468.4z"/>
	<path d="M3461.3,266.1h-587.1c-15.4,0-27.9,8.3-27.9,18.4v218.8c0,10.1,12.6,18.4,27.9,18.4h92.9l12.6-58.9
		c0.1-6.3,7.9-11.4,17.4-11.4h341.3c9.5,0,17.3,5.1,17.4,11.4l12.6,58.9h92.9c15.4,0,27.9-8.3,27.9-18.4V284.5
		C3489.3,274.3,3476.7,266.1,3461.3,266.1z M3468.3,415.6c0,5.8-7.2,10.6-16.1,10.6h-568.8c-8.8,0-16.1-4.8-16.1-10.6V289.8
		c0-5.8,7.2-10.6,16.1-10.6h568.8c8.8,0,16.1,4.8,16.1,10.6V415.6z"/>
	<path d="M3329.8,326.4h-324c-3.7,0-6.7,2-6.7,4.4v52.4c0,2.4,3,4.4,6.7,4.4h324.1c3.7,0,6.7-2,6.7-4.4v-52.4
		C3336.5,328.3,3333.5,326.4,3329.8,326.4z"/>
	<path class="st1" d="M3058.8,381.7c-20.7,0-37.5-11.1-37.5-24.7c0-13.6,16.8-24.7,37.5-24.7s37.5,11.1,37.5,24.7
		C3096.4,370.6,3079.6,381.7,3058.8,381.7z"/>
	<path class="st1" d="M3272.8,382.4c-20.7,0-37.5-11.1-37.5-24.7c0-13.6,16.8-24.7,37.5-24.7s37.5,11.1,37.5,24.7
		C3310.4,371.3,3293.6,382.4,3272.8,382.4z"/>
</g>
<g>
	<path class="st0" d="M2518.1,1743h-459.7c-51,0-92.4-41.4-92.4-92.4v0c0-51,41.4-92.4,92.4-92.4h459.7c51,0,92.4,41.4,92.4,92.4v0
		C2610.5,1701.6,2569.1,1743,2518.1,1743z"/>
	<path d="M2463.9,1761.7c0-4.4-5.4-8-12.1-8h-327.2c-6.7,0-12.1,3.6-12.1,8l0,0.2l-12.6,58.9h376.5l-12.6-59V1761.7z"/>
	<path d="M2582.5,1558.2H1994c-15.4,0-28,8.3-28,18.5v220.1c0,10.2,12.6,18.5,28,18.5h93.1l12.6-59.3c0.1-6.3,7.9-11.4,17.5-11.4
		h342.1c9.6,0,17.4,5.1,17.5,11.4l12.6,59.3h93.1c15.4,0,28-8.3,28-18.5v-220.1C2610.5,1566.5,2597.9,1558.2,2582.5,1558.2z
		 M2589.5,1708.6c0,5.9-7.2,10.7-16.1,10.7h-570.2c-8.9,0-16.1-4.8-16.1-10.7V1582c0-5.9,7.2-10.7,16.1-10.7h570.2
		c8.9,0,16.1,4.8,16.1,10.7V1708.6z"/>
	<path d="M2450.6,1618.8h-324.8c-3.7,0-6.7,2-6.7,4.4v52.7c0,2.4,3,4.4,6.7,4.4h324.8c3.7,0,6.7-2,6.7-4.4v-52.7
		C2457.4,1620.8,2454.3,1618.8,2450.6,1618.8z"/>
	<path class="st1" d="M2395.7,1674.5c-20.8,0-37.6-11.1-37.6-24.9c0-13.7,16.8-24.9,37.6-24.9c20.8,0,37.6,11.1,37.6,24.9
		C2433.3,1663.3,2416.5,1674.5,2395.7,1674.5z"/>
	<path class="st1" d="M2176.8,1674.5c-20.8,0-37.6-11.1-37.6-24.9c0-13.7,16.8-24.9,37.6-24.9s37.6,11.1,37.6,24.9
		C2214.4,1663.3,2197.6,1674.5,2176.8,1674.5z"/>
</g>
<g>
	<path class="st2" d="M2534.9,1325.9h-458.1c-51.5,0-93.2-41.7-93.2-93.2v0c0-51.5,41.7-93.2,93.2-93.2h458.1
		c51.5,0,93.2,41.7,93.2,93.2v0C2628.1,1284.2,2586.3,1325.9,2534.9,1325.9z"/>
	<path d="M2481.5,1343.1c0-4.4-5.4-8-12.1-8h-327.2c-6.7,0-12.1,3.6-12.1,8l0,0.2l-12.6,58.9h376.5l-12.6-59V1343.1z"/>
	<path d="M2600.1,1139.6h-588.5c-15.4,0-28,8.3-28,18.5v220.1c0,10.2,12.6,18.5,28,18.5h93.1l12.6-59.3c0.1-6.3,7.9-11.4,17.5-11.4
		h342.1c9.6,0,17.4,5.1,17.5,11.4l12.6,59.3h93.1c15.4,0,28-8.3,28-18.5v-220.1C2628.1,1147.9,2615.5,1139.6,2600.1,1139.6z
		 M2607.1,1290c0,5.9-7.2,10.7-16.1,10.7h-570.2c-8.9,0-16.1-4.8-16.1-10.7v-126.6c0-5.9,7.2-10.7,16.1-10.7h570.2
		c8.9,0,16.1,4.8,16.1,10.7V1290z"/>
	<path d="M2468.2,1200.2h-324.8c-3.7,0-6.7,2-6.7,4.4v52.7c0,2.4,3,4.4,6.7,4.4h324.8c3.7,0,6.7-2,6.7-4.4v-52.7
		C2475,1202.2,2471.9,1200.2,2468.2,1200.2z"/>
	<path class="st1" d="M2196.6,1255.8c-20.8,0-37.6-11.1-37.6-24.9c0-13.7,16.8-24.9,37.6-24.9c20.8,0,37.6,11.1,37.6,24.9
		C2234.3,1244.7,2217.4,1255.8,2196.6,1255.8z"/>
	<path class="st1" d="M2411.1,1256.5c-20.8,0-37.6-11.1-37.6-24.9c0-13.7,16.8-24.9,37.6-24.9c20.8,0,37.6,11.1,37.6,24.9
		C2448.7,1245.4,2431.9,1256.5,2411.1,1256.5z"/>
</g>
<g>
	<path class="st3" d="M3414.9,1700.8h-459.7c-48.2,0-87.3-39.1-87.3-87.3v0c0-48.2,39.1-87.3,87.3-87.3h459.7
		c48.2,0,87.3,39.1,87.3,87.3v0C3502.3,1661.6,3463.2,1700.8,3414.9,1700.8z"/>
	<path d="M3356.1,1728.4c0-4.4-5.4-7.9-12.1-7.9h-326.4c-6.7,0-12.1,3.6-12.1,7.9l0,0.2l-12.5,58.6h375.6l-12.5-58.7V1728.4z"/>
	<path d="M3474.4,1526.1h-587.1c-15.4,0-27.9,8.3-27.9,18.4v218.8c0,10.1,12.6,18.4,27.9,18.4h92.9l12.6-58.9
		c0.1-6.3,7.9-11.4,17.4-11.4h341.3c9.6,0,17.3,5.1,17.4,11.4l12.6,58.9h92.9c15.4,0,27.9-8.3,27.9-18.4v-218.8
		C3502.3,1534.4,3489.7,1526.1,3474.4,1526.1z M3481.3,1675.6c0,5.8-7.2,10.6-16.1,10.6h-568.8c-8.8,0-16.1-4.8-16.1-10.6v-125.8
		c0-5.8,7.2-10.6,16.1-10.6h568.8c8.8,0,16.1,4.8,16.1,10.6V1675.6z"/>
	<path d="M3342.8,1586.4h-324c-3.7,0-6.7,2-6.7,4.4v52.4c0,2.4,3,4.4,6.7,4.4h324.1c3.7,0,6.7-2,6.7-4.4v-52.4
		C3349.5,1588.4,3346.5,1586.4,3342.8,1586.4z"/>
	<path class="st1" d="M3288,1641.7c-20.7,0-37.5-11.1-37.5-24.7c0-13.6,16.8-24.7,37.5-24.7c20.7,0,37.5,11.1,37.5,24.7
		C3325.5,1630.6,3308.7,1641.7,3288,1641.7z"/>
	<path class="st1" d="M3069.6,1641.7c-20.7,0-37.5-11.1-37.5-24.7c0-13.6,16.8-24.7,37.5-24.7c20.7,0,37.5,11.1,37.5,24.7
		C3107.1,1630.6,3090.3,1641.7,3069.6,1641.7z"/>
</g>
<g>
	<path class="st4" d="M3403.2,1293h-470.8c-47.5,0-86.1-38.5-86.1-86.1v0c0-47.5,38.5-86.1,86.1-86.1h470.8
		c47.5,0,86.1,38.5,86.1,86.1v0C3489.3,1254.4,3450.7,1293,3403.2,1293z"/>
	<path d="M3343,1323.2c0-4.4-5.4-7.9-12.1-7.9h-326.4c-6.7,0-12.1,3.6-12.1,7.9l0,0.2L2980,1382h375.6l-12.5-58.7V1323.2z"/>
	<path d="M3461.4,1120.8h-587.1c-15.4,0-27.9,8.3-27.9,18.4V1358c0,10.1,12.6,18.4,27.9,18.4h92.9l12.6-58.9
		c0.1-6.3,7.9-11.4,17.4-11.4h341.3c9.5,0,17.3,5.1,17.4,11.4l12.6,58.9h92.9c15.4,0,27.9-8.3,27.9-18.4v-218.8
		C3489.3,1129.1,3476.7,1120.8,3461.4,1120.8z M3468.3,1270.4c0,5.8-7.2,10.6-16.1,10.6h-568.8c-8.8,0-16.1-4.8-16.1-10.6v-125.8
		c0-5.8,7.2-10.6,16.1-10.6h568.8c8.8,0,16.1,4.8,16.1,10.6V1270.4z"/>
	<path d="M3329.8,1181.1h-324c-3.7,0-6.7,2-6.7,4.4v52.4c0,2.4,3,4.4,6.7,4.4h324.1c3.7,0,6.7-2,6.7-4.4v-52.4
		C3336.5,1183.1,3333.5,1181.1,3329.8,1181.1z"/>
	<path class="st1" d="M3058.8,1236.4c-20.7,0-37.5-11.1-37.5-24.7c0-13.6,16.8-24.7,37.5-24.7c20.7,0,37.5,11.1,37.5,24.7
		C3096.4,1225.4,3079.6,1236.4,3058.8,1236.4z"/>
	<path class="st1" d="M3272.8,1237.1c-20.7,0-37.5-11.1-37.5-24.7s16.8-24.7,37.5-24.7c20.7,0,37.5,11.1,37.5,24.7
		C3310.4,1226.1,3293.6,1237.1,3272.8,1237.1z"/>
</g>
<g>
	<path class="st0" d="M2521.9,2614.2h-467.3c-48.9,0-88.6-39.7-88.6-88.6v0c0-48.9,39.7-88.6,88.6-88.6h467.3
		c48.9,0,88.6,39.7,88.6,88.6v0C2610.5,2574.5,2570.8,2614.2,2521.9,2614.2z"/>
	<path d="M2463.9,2640.5c0-4.4-5.4-8-12.1-8h-327.2c-6.7,0-12.1,3.6-12.1,8l0,0.2l-12.6,58.9h376.5l-12.6-59V2640.5z"/>
	<path d="M2582.5,2434.2H1994c-15.4,0-28,8.5-28,18.9V2678c0,10.4,12.6,18.9,28,18.9h93.1l12.6-60.6c0.1-6.5,7.9-11.7,17.5-11.7
		h342.1c9.6,0,17.4,5.2,17.5,11.7l12.6,60.6h93.1c15.4,0,28-8.5,28-18.9v-224.8C2610.5,2442.7,2597.9,2434.2,2582.5,2434.2z
		 M2589.5,2587.9c0,6-7.2,10.9-16.1,10.9h-570.2c-8.9,0-16.1-4.9-16.1-10.9v-129.3c0-6,7.2-10.9,16.1-10.9h570.2
		c8.9,0,16.1,4.9,16.1,10.9V2587.9z"/>
	<path d="M2450.6,2497.6h-324.8c-3.7,0-6.7,2-6.7,4.4v52.7c0,2.4,3,4.4,6.7,4.4h324.8c3.7,0,6.7-2,6.7-4.4v-52.7
		C2457.4,2499.6,2454.3,2497.6,2450.6,2497.6z"/>
	<path class="st1" d="M2395.7,2553.3c-20.8,0-37.6-11.1-37.6-24.9s16.8-24.9,37.6-24.9c20.8,0,37.6,11.1,37.6,24.9
		C2433.3,2542.1,2416.5,2553.3,2395.7,2553.3z"/>
	<path class="st1" d="M2176.8,2553.3c-20.8,0-37.6-11.1-37.6-24.9s16.8-24.9,37.6-24.9s37.6,11.1,37.6,24.9
		C2214.4,2542.1,2197.6,2553.3,2176.8,2553.3z"/>
</g>
<g>
	<path class="st2" d="M2523.4,2181.1h-470.2c-48.1,0-87.1-39-87.1-87.1v0c0-48.1,39-87.1,87.1-87.1h470.2c48.1,0,87.1,39,87.1,87.1
		v0C2610.5,2142.1,2571.5,2181.1,2523.4,2181.1z"/>
	<path d="M2463.9,2210.4c0-4.4-5.4-8-12.1-8h-327.1c-6.7,0-12.1,3.6-12.1,8l0,0.2l-12.6,58.9h376.5l-12.6-59V2210.4z"/>
	<path d="M2582.5,2006.9h-588.4c-15.4,0-28,8.3-28,18.5v220.1c0,10.2,12.6,18.5,28,18.5h93.1l12.6-59.3c0.1-6.3,7.9-11.4,17.5-11.4
		h342.1c9.6,0,17.4,5.1,17.5,11.4l12.6,59.3h93.1c15.4,0,28-8.3,28-18.5v-220.1C2610.5,2015.2,2597.9,2006.9,2582.5,2006.9z
		 M2589.5,2157.3c0,5.9-7.2,10.7-16.1,10.7h-570.1c-8.9,0-16.1-4.8-16.1-10.7v-126.6c0-5.9,7.2-10.7,16.1-10.7h570.1
		c8.9,0,16.1,4.8,16.1,10.7V2157.3z"/>
	<path d="M2450.7,2067.6h-324.8c-3.7,0-6.7,2-6.7,4.4v52.7c0,2.4,3,4.4,6.7,4.4h324.8c3.7,0,6.7-2,6.7-4.4V2072
		C2457.4,2069.6,2454.3,2067.6,2450.7,2067.6z"/>
	<path class="st1" d="M2179.1,2123.2c-20.8,0-37.6-11.1-37.6-24.9s16.8-24.9,37.6-24.9c20.8,0,37.6,11.1,37.6,24.9
		C2216.7,2112.1,2199.8,2123.2,2179.1,2123.2z"/>
	<path class="st1" d="M2393.6,2123.9c-20.8,0-37.6-11.1-37.6-24.9s16.8-24.9,37.6-24.9s37.6,11.1,37.6,24.9
		C2431.2,2112.7,2414.3,2123.9,2393.6,2123.9z"/>
</g>
<g>
	<path class="st0" d="M2518.1,3463.2h-459.7c-51,0-92.4-41.4-92.4-92.4v0c0-51,41.4-92.4,92.4-92.4h459.7c51,0,92.4,41.4,92.4,92.4
		v0C2610.5,3421.8,2569.1,3463.2,2518.1,3463.2z"/>
	<path d="M2463.9,3481.9c0-4.4-5.4-8-12.1-8h-327.2c-6.7,0-12.1,3.6-12.1,8l0,0.2L2100,3541h376.5l-12.6-59V3481.9z"/>
	<path d="M2582.5,3278.4H1994c-15.4,0-28,8.3-28,18.5v220.1c0,10.2,12.6,18.5,28,18.5h93.1l12.6-59.3c0.1-6.3,7.9-11.4,17.5-11.4
		h342.1c9.6,0,17.4,5.1,17.5,11.4l12.6,59.3h93.1c15.4,0,28-8.3,28-18.5v-220.1C2610.5,3286.7,2597.9,3278.4,2582.5,3278.4z
		 M2589.5,3428.8c0,5.9-7.2,10.7-16.1,10.7h-570.2c-8.9,0-16.1-4.8-16.1-10.7v-126.6c0-5.9,7.2-10.7,16.1-10.7h570.2
		c8.9,0,16.1,4.8,16.1,10.7V3428.8z"/>
	<path d="M2450.6,3339h-324.8c-3.7,0-6.7,2-6.7,4.4v52.7c0,2.4,3,4.4,6.7,4.4h324.8c3.7,0,6.7-2,6.7-4.4v-52.7
		C2457.4,3341,2454.3,3339,2450.6,3339z"/>
	<path class="st1" d="M2395.7,3394.7c-20.8,0-37.6-11.1-37.6-24.9s16.8-24.9,37.6-24.9c20.8,0,37.6,11.1,37.6,24.9
		C2433.3,3383.5,2416.5,3394.7,2395.7,3394.7z"/>
	<path class="st1" d="M2176.8,3394.7c-20.8,0-37.6-11.1-37.6-24.9s16.8-24.9,37.6-24.9s37.6,11.1,37.6,24.9
		C2214.4,3383.5,2197.6,3394.7,2176.8,3394.7z"/>
</g>
<g>
	<path class="st2" d="M2517.3,3046.1h-458.1c-51.5,0-93.2-41.7-93.2-93.2v0c0-51.5,41.7-93.2,93.2-93.2h458.1
		c51.5,0,93.2,41.7,93.2,93.2v0C2610.5,3004.4,2568.8,3046.1,2517.3,3046.1z"/>
	<path d="M2463.9,3063.3c0-4.4-5.4-8-12.1-8h-327.2c-6.7,0-12.1,3.6-12.1,8l0,0.2l-12.6,58.9h376.5l-12.6-59V3063.3z"/>
	<path d="M2582.5,2859.8H1994c-15.4,0-28,8.3-28,18.5v220.1c0,10.2,12.6,18.5,28,18.5h93.1l12.6-59.3c0.1-6.3,7.9-11.4,17.5-11.4
		h342.1c9.6,0,17.4,5.1,17.5,11.4l12.6,59.3h93.1c15.4,0,28-8.3,28-18.5v-220.1C2610.5,2868.1,2597.9,2859.8,2582.5,2859.8z
		 M2589.5,3010.2c0,5.9-7.2,10.7-16.1,10.7h-570.2c-8.9,0-16.1-4.8-16.1-10.7v-126.6c0-5.9,7.2-10.7,16.1-10.7h570.2
		c8.9,0,16.1,4.8,16.1,10.7V3010.2z"/>
	<path d="M2450.6,2920.4h-324.8c-3.7,0-6.7,2-6.7,4.4v52.7c0,2.4,3,4.4,6.7,4.4h324.8c3.7,0,6.7-2,6.7-4.4v-52.7
		C2457.4,2922.4,2454.3,2920.4,2450.6,2920.4z"/>
	<path class="st1" d="M2179.1,2976c-20.8,0-37.6-11.1-37.6-24.9s16.8-24.9,37.6-24.9c20.8,0,37.6,11.1,37.6,24.9
		C2216.7,2964.9,2199.8,2976,2179.1,2976z"/>
	<path class="st1" d="M2393.5,2976.7c-20.8,0-37.6-11.1-37.6-24.9c0-13.7,16.8-24.9,37.6-24.9c20.8,0,37.6,11.1,37.6,24.9
		C2431.2,2965.6,2414.3,2976.7,2393.5,2976.7z"/>
</g>
<g>
	<path class="st3" d="M3412.6,2592.7h-474.1c-46.6,0-84.4-37.8-84.4-84.4v0c0-46.6,37.8-84.4,84.4-84.4h474.1
		c46.6,0,84.4,37.8,84.4,84.4v0C3497,2554.9,3459.2,2592.7,3412.6,2592.7z"/>
	<path d="M3350.8,2626.2c0-4.4-5.4-7.9-12.1-7.9h-326.4c-6.7,0-12.1,3.6-12.1,7.9l0,0.2l-12.5,58.6h375.6l-12.5-58.7V2626.2z"/>
	<path d="M3469.1,2423.9H2882c-15.4,0-27.9,8.3-27.9,18.4v218.8c0,10.1,12.6,18.4,27.9,18.4h92.9l12.6-58.9
		c0.1-6.3,7.9-11.4,17.4-11.4h341.3c9.5,0,17.3,5.1,17.4,11.4l12.6,58.9h92.9c15.4,0,27.9-8.3,27.9-18.4v-218.8
		C3497,2432.2,3484.5,2423.9,3469.1,2423.9z M3476,2573.4c0,5.8-7.2,10.6-16.1,10.6h-568.8c-8.8,0-16.1-4.8-16.1-10.6v-125.8
		c0-5.8,7.2-10.6,16.1-10.6H3460c8.8,0,16.1,4.8,16.1,10.6V2573.4z"/>
	<path d="M3337.5,2484.2h-324c-3.7,0-6.7,2-6.7,4.4v52.4c0,2.4,3,4.4,6.7,4.4h324.1c3.7,0,6.7-2,6.7-4.4v-52.4
		C3344.2,2486.2,3341.2,2484.2,3337.5,2484.2z"/>
	<path class="st1" d="M3282.7,2539.5c-20.7,0-37.5-11.1-37.5-24.7s16.8-24.7,37.5-24.7c20.7,0,37.5,11.1,37.5,24.7
		C3320.3,2528.5,3303.5,2539.5,3282.7,2539.5z"/>
	<path class="st1" d="M3064.3,2539.5c-20.7,0-37.5-11.1-37.5-24.7s16.8-24.7,37.5-24.7c20.7,0,37.5,11.1,37.5,24.7
		C3101.8,2528.5,3085,2539.5,3064.3,2539.5z"/>
</g>
<g>
	<path class="st4" d="M3410.4,2170.9h-469.7c-47.8,0-86.6-38.8-86.6-86.6v0c0-47.8,38.8-86.6,86.6-86.6h469.7
		c47.8,0,86.6,38.8,86.6,86.6v0C3497,2132.2,3458.2,2170.9,3410.4,2170.9z"/>
	<path d="M3350.8,2200c0-4.4-5.4-7.9-12.1-7.9h-326.4c-6.7,0-12.1,3.6-12.1,7.9l0,0.2l-12.5,58.6h375.6l-12.5-58.7V2200z"/>
	<path d="M3469.1,1997.7H2882c-15.4,0-27.9,8.3-27.9,18.4v218.8c0,10.1,12.6,18.4,27.9,18.4h92.9l12.6-58.9
		c0.1-6.3,7.9-11.4,17.4-11.4h341.3c9.5,0,17.3,5.1,17.4,11.4l12.6,58.9h92.9c15.4,0,27.9-8.3,27.9-18.4v-218.8
		C3497,2006,3484.5,1997.7,3469.1,1997.7z M3476.1,2147.2c0,5.8-7.2,10.6-16.1,10.6h-568.8c-8.8,0-16.1-4.8-16.1-10.6v-125.8
		c0-5.8,7.2-10.6,16.1-10.6H3460c8.8,0,16.1,4.8,16.1,10.6V2147.2z"/>
	<path d="M3337.6,2058h-324c-3.7,0-6.7,2-6.7,4.4v52.4c0,2.4,3,4.4,6.7,4.4h324.1c3.7,0,6.7-2,6.7-4.4v-52.4
		C3344.3,2060,3341.2,2058,3337.6,2058z"/>
	<path class="st1" d="M3066.6,2113.3c-20.7,0-37.5-11.1-37.5-24.7s16.8-24.7,37.5-24.7s37.5,11.1,37.5,24.7
		C3104.1,2102.3,3087.3,2113.3,3066.6,2113.3z"/>
	<path class="st1" d="M3280.6,2114c-20.7,0-37.5-11.1-37.5-24.7s16.8-24.7,37.5-24.7c20.7,0,37.5,11.1,37.5,24.7
		C3318.1,2102.9,3301.3,2114,3280.6,2114z"/>
</g>
<g>
	<path class="st3" d="M3409.7,3432.4H2950c-48.2,0-87.3-39.1-87.3-87.3v0c0-48.2,39.1-87.3,87.3-87.3h459.7
		c48.2,0,87.3,39.1,87.3,87.3v0C3497,3393.3,3457.9,3432.4,3409.7,3432.4z"/>
	<path d="M3350.8,3460c0-4.4-5.4-7.9-12.1-7.9h-326.4c-6.7,0-12.1,3.6-12.1,7.9l0,0.2l-12.5,58.6h375.6l-12.5-58.7V3460z"/>
	<path d="M3469.1,3257.7H2882c-15.4,0-27.9,8.3-27.9,18.4v218.8c0,10.1,12.6,18.4,27.9,18.4h92.9l12.6-58.9
		c0.1-6.3,7.9-11.4,17.4-11.4h341.3c9.6,0,17.3,5.1,17.4,11.4l12.6,58.9h92.9c15.4,0,27.9-8.3,27.9-18.4v-218.8
		C3497,3266,3484.5,3257.7,3469.1,3257.7z M3476.1,3407.3c0,5.8-7.2,10.6-16.1,10.6h-568.8c-8.8,0-16.1-4.8-16.1-10.6v-125.8
		c0-5.8,7.2-10.6,16.1-10.6H3460c8.8,0,16.1,4.8,16.1,10.6V3407.3z"/>
	<path d="M3337.5,3318h-324c-3.7,0-6.7,2-6.7,4.4v52.4c0,2.4,3,4.4,6.7,4.4h324.1c3.7,0,6.7-2,6.7-4.4v-52.4
		C3344.3,3320,3341.2,3318,3337.5,3318z"/>
	<path class="st1" d="M3282.7,3373.3c-20.7,0-37.5-11.1-37.5-24.7c0-13.6,16.8-24.7,37.5-24.7c20.7,0,37.5,11.1,37.5,24.7
		C3320.3,3362.3,3303.5,3373.3,3282.7,3373.3z"/>
	<path class="st1" d="M3064.3,3373.3c-20.7,0-37.5-11.1-37.5-24.7c0-13.6,16.8-24.7,37.5-24.7c20.7,0,37.5,11.1,37.5,24.7
		C3101.8,3362.3,3085,3373.3,3064.3,3373.3z"/>
</g>
<g>
	<path class="st4" d="M3410.9,3024.6h-470.8c-47.5,0-86.1-38.5-86.1-86.1l0,0c0-47.5,38.5-86.1,86.1-86.1h470.8
		c47.5,0,86.1,38.5,86.1,86.1l0,0C3497,2986.1,3458.5,3024.6,3410.9,3024.6z"/>
	<path d="M3350.8,3054.8c0-4.4-5.4-7.9-12.1-7.9h-326.4c-6.7,0-12.1,3.6-12.1,7.9l0,0.2l-12.5,58.6h375.6l-12.5-58.7V3054.8z"/>
	<path d="M3469.1,2852.5H2882c-15.4,0-27.9,8.3-27.9,18.4v218.8c0,10.1,12.6,18.4,27.9,18.4h92.9l12.6-58.9
		c0.1-6.3,7.9-11.4,17.4-11.4h341.3c9.6,0,17.3,5.1,17.4,11.4l12.6,58.9h92.9c15.4,0,27.9-8.3,27.9-18.4v-218.8
		C3497,2860.8,3484.5,2852.5,3469.1,2852.5z M3476.1,3002c0,5.8-7.2,10.6-16.1,10.6h-568.8c-8.8,0-16.1-4.8-16.1-10.6v-125.8
		c0-5.8,7.2-10.6,16.1-10.6H3460c8.8,0,16.1,4.8,16.1,10.6V3002z"/>
	<path d="M3337.6,2912.8h-324c-3.7,0-6.7,2-6.7,4.4v52.4c0,2.4,3,4.4,6.7,4.4h324.1c3.7,0,6.7-2,6.7-4.4v-52.4
		C3344.3,2914.8,3341.2,2912.8,3337.6,2912.8z"/>
	<path class="st1" d="M3066.6,2968.1c-20.7,0-37.5-11.1-37.5-24.7c0-13.6,16.8-24.7,37.5-24.7c20.7,0,37.5,11.1,37.5,24.7
		C3104.1,2957,3087.3,2968.1,3066.6,2968.1z"/>
	<path class="st1" d="M3280.6,2968.8c-20.7,0-37.5-11.1-37.5-24.7s16.8-24.7,37.5-24.7c20.7,0,37.5,11.1,37.5,24.7
		C3318.1,2957.7,3301.3,2968.8,3280.6,2968.8z"/>
</g>
<g>
	<path class="st0" d="M4284.6,871.1h-467.3c-48.9,0-88.6-39.7-88.6-88.6v0c0-48.9,39.7-88.6,88.6-88.6h467.3
		c48.9,0,88.6,39.7,88.6,88.6v0C4373.2,831.5,4333.5,871.1,4284.6,871.1z"/>
	<path d="M4226.6,897.5c0-4.4-5.4-8-12.1-8h-327.2c-6.7,0-12.1,3.6-12.1,8l0,0.2l-12.6,58.9h376.5l-12.6-59V897.5z"/>
	<path d="M4345.2,691.2h-588.5c-15.4,0-28,8.5-28,18.9v224.8c0,10.4,12.6,18.9,28,18.9h93.1l12.6-60.6c0.1-6.5,7.9-11.7,17.5-11.7
		H4222c9.6,0,17.4,5.2,17.5,11.7l12.6,60.6h93.1c15.4,0,28-8.5,28-18.9V710.1C4373.2,699.7,4360.6,691.2,4345.2,691.2z
		 M4352.2,844.8c0,6-7.2,10.9-16.1,10.9h-570.2c-8.9,0-16.1-4.9-16.1-10.9V715.5c0-6,7.2-10.9,16.1-10.9h570.2
		c8.9,0,16.1,4.9,16.1,10.9V844.8z"/>
	<path d="M4213.4,754.6h-324.8c-3.7,0-6.7,2-6.7,4.4v52.7c0,2.4,3,4.4,6.7,4.4h324.8c3.7,0,6.7-2,6.7-4.4V759
		C4220.1,756.6,4217.1,754.6,4213.4,754.6z"/>
	<path class="st1" d="M4158.4,810.2c-20.8,0-37.6-11.1-37.6-24.9s16.8-24.9,37.6-24.9c20.8,0,37.6,11.1,37.6,24.9
		C4196,799.1,4179.2,810.2,4158.4,810.2z"/>
	<path class="st1" d="M3939.5,810.2c-20.8,0-37.6-11.1-37.6-24.9s16.8-24.9,37.6-24.9c20.8,0,37.6,11.1,37.6,24.9
		C3977.1,799.1,3960.3,810.2,3939.5,810.2z"/>
</g>
<g>
	<path class="st2" d="M4286,438.1h-470.2c-48.1,0-87.1-39-87.1-87.1v0c0-48.1,39-87.1,87.1-87.1H4286c48.1,0,87.1,39,87.1,87.1v0
		C4373.2,399.1,4334.1,438.1,4286,438.1z"/>
	<path d="M4226.6,467.4c0-4.4-5.4-8-12.1-8h-327.2c-6.7,0-12.1,3.6-12.1,8l0,0.2l-12.6,58.9h376.5l-12.6-59V467.4z"/>
	<path d="M4345.2,263.9h-588.5c-15.4,0-28,8.3-28,18.5v220.1c0,10.2,12.6,18.5,28,18.5h93.1l12.6-59.3c0.1-6.3,7.9-11.4,17.5-11.4
		H4222c9.6,0,17.4,5.1,17.5,11.4l12.6,59.3h93.1c15.4,0,28-8.3,28-18.5V282.4C4373.2,272.2,4360.6,263.9,4345.2,263.9z
		 M4352.1,414.3c0,5.9-7.2,10.7-16.1,10.7h-570.1c-8.9,0-16.1-4.8-16.1-10.7V287.7c0-5.9,7.2-10.7,16.1-10.7H4336
		c8.9,0,16.1,4.8,16.1,10.7V414.3z"/>
	<path d="M4213.3,324.5h-324.8c-3.7,0-6.7,2-6.7,4.4v52.7c0,2.4,3,4.4,6.7,4.4h324.8c3.7,0,6.7-2,6.7-4.4V329
		C4220,326.5,4217,324.5,4213.3,324.5z"/>
	<path class="st1" d="M3941.7,380.1c-20.8,0-37.6-11.1-37.6-24.9s16.8-24.9,37.6-24.9s37.6,11.1,37.6,24.9
		C3979.3,369,3962.5,380.1,3941.7,380.1z"/>
	<path class="st1" d="M4156.2,380.8c-20.8,0-37.6-11.1-37.6-24.9c0-13.7,16.8-24.9,37.6-24.9c20.8,0,37.6,11.1,37.6,24.9
		C4193.8,369.7,4177,380.8,4156.2,380.8z"/>
</g>
<g>
	<path class="st3" d="M5218.8,848.5h-474.1c-46.6,0-84.4-37.8-84.4-84.4v0c0-46.6,37.8-84.4,84.4-84.4h474.1
		c46.6,0,84.4,37.8,84.4,84.4v0C5303.2,810.7,5265.4,848.5,5218.8,848.5z"/>
	<path d="M5157,882c0-4.4-5.4-7.9-12.1-7.9h-326.4c-6.7,0-12.1,3.6-12.1,7.9l0,0.2l-12.5,58.6h375.6l-12.5-58.7V882z"/>
	<path d="M5275.3,679.6h-587.1c-15.4,0-27.9,8.3-27.9,18.4v218.8c0,10.1,12.6,18.4,27.9,18.4h92.9l12.6-58.9
		c0.1-6.3,7.9-11.4,17.4-11.4h341.3c9.6,0,17.3,5.1,17.4,11.4l12.6,58.9h92.9c15.4,0,27.9-8.3,27.9-18.4V698
		C5303.2,687.9,5290.6,679.6,5275.3,679.6z M5282.2,829.2c0,5.8-7.2,10.6-16.1,10.6h-568.8c-8.8,0-16.1-4.8-16.1-10.6V703.3
		c0-5.8,7.2-10.6,16.1-10.6h568.8c8.8,0,16.1,4.8,16.1,10.6V829.2z"/>
	<path d="M5143.7,739.9h-324c-3.7,0-6.7,2-6.7,4.4v52.4c0,2.4,3,4.4,6.7,4.4h324.1c3.7,0,6.7-2,6.7-4.4v-52.4
		C5150.4,741.9,5147.4,739.9,5143.7,739.9z"/>
	<path class="st1" d="M5088.9,795.2c-20.7,0-37.5-11.1-37.5-24.7c0-13.6,16.8-24.7,37.5-24.7s37.5,11.1,37.5,24.7
		C5126.4,784.2,5109.6,795.2,5088.9,795.2z"/>
	<path class="st1" d="M4870.5,795.2c-20.7,0-37.5-11.1-37.5-24.7c0-13.6,16.8-24.7,37.5-24.7s37.5,11.1,37.5,24.7
		C4908,784.2,4891.2,795.2,4870.5,795.2z"/>
</g>
<g>
	<path class="st4" d="M5216.6,426.7h-469.7c-47.8,0-86.6-38.8-86.6-86.6v0c0-47.8,38.8-86.6,86.6-86.6h469.7
		c47.8,0,86.6,38.8,86.6,86.6v0C5303.2,387.9,5264.4,426.7,5216.6,426.7z"/>
	<path d="M5157,455.8c0-4.4-5.4-7.9-12.1-7.9h-326.4c-6.7,0-12.1,3.6-12.1,7.9l0,0.2l-12.5,58.6h375.6l-12.5-58.7V455.8z"/>
	<path d="M5275.3,253.4h-587.1c-15.4,0-27.9,8.3-27.9,18.4v218.8c0,10.1,12.6,18.4,27.9,18.4h92.9l12.6-58.9
		c0.1-6.3,7.9-11.4,17.4-11.4h341.3c9.5,0,17.3,5.1,17.4,11.4l12.6,58.9h92.9c15.4,0,27.9-8.3,27.9-18.4V271.8
		C5303.2,261.7,5290.7,253.4,5275.3,253.4z M5282.2,403c0,5.8-7.2,10.6-16.1,10.6h-568.8c-8.8,0-16.1-4.8-16.1-10.6V277.1
		c0-5.8,7.2-10.6,16.1-10.6h568.8c8.8,0,16.1,4.8,16.1,10.6V403z"/>
	<path d="M5143.7,313.7h-324c-3.7,0-6.7,2-6.7,4.4v52.4c0,2.4,3,4.4,6.7,4.4h324.1c3.7,0,6.7-2,6.7-4.4v-52.4
		C5150.4,315.7,5147.4,313.7,5143.7,313.7z"/>
	<path class="st1" d="M4872.8,369c-20.7,0-37.5-11.1-37.5-24.7c0-13.6,16.8-24.7,37.5-24.7c20.7,0,37.5,11.1,37.5,24.7
		C4910.3,358,4893.5,369,4872.8,369z"/>
	<path class="st1" d="M5086.8,369.7c-20.7,0-37.5-11.1-37.5-24.7c0-13.6,16.8-24.7,37.5-24.7c20.7,0,37.5,11.1,37.5,24.7
		C5124.3,358.7,5107.5,369.7,5086.8,369.7z"/>
</g>
<g>
	<path class="st0" d="M4280.8,1720.1h-459.7c-51,0-92.4-41.4-92.4-92.4v0c0-51,41.4-92.4,92.4-92.4h459.7c51,0,92.4,41.4,92.4,92.4
		v0C4373.2,1678.8,4331.8,1720.1,4280.8,1720.1z"/>
	<path d="M4226.6,1738.8c0-4.4-5.4-8-12.1-8h-327.2c-6.7,0-12.1,3.6-12.1,8l0,0.2l-12.6,58.9h376.5l-12.6-59V1738.8z"/>
	<path d="M4345.2,1535.3h-588.5c-15.4,0-28,8.3-28,18.5v220.1c0,10.2,12.6,18.5,28,18.5h93.1l12.6-59.3c0.1-6.3,7.9-11.4,17.5-11.4
		H4222c9.6,0,17.4,5.1,17.5,11.4l12.6,59.3h93.1c15.4,0,28-8.3,28-18.5v-220.1C4373.2,1543.7,4360.6,1535.3,4345.2,1535.3z
		 M4352.1,1685.7c0,5.9-7.2,10.7-16.1,10.7h-570.2c-8.9,0-16.1-4.8-16.1-10.7v-126.6c0-5.9,7.2-10.7,16.1-10.7H4336
		c8.9,0,16.1,4.8,16.1,10.7V1685.7z"/>
	<path d="M4213.3,1596h-324.8c-3.7,0-6.7,2-6.7,4.4v52.7c0,2.4,3,4.4,6.7,4.4h324.8c3.7,0,6.7-2,6.7-4.4v-52.7
		C4220,1598,4217,1596,4213.3,1596z"/>
	<path class="st1" d="M4158.4,1651.6c-20.8,0-37.6-11.1-37.6-24.9c0-13.7,16.8-24.9,37.6-24.9s37.6,11.1,37.6,24.9
		C4196,1640.5,4179.1,1651.6,4158.4,1651.6z"/>
	<path class="st1" d="M3939.4,1651.6c-20.8,0-37.6-11.1-37.6-24.9c0-13.7,16.8-24.9,37.6-24.9c20.8,0,37.6,11.1,37.6,24.9
		C3977,1640.5,3960.2,1651.6,3939.4,1651.6z"/>
</g>
<g>
	<path class="st2" d="M4297.5,1303.1h-458.1c-51.5,0-93.2-41.7-93.2-93.2v0c0-51.5,41.7-93.2,93.2-93.2h458.1
		c51.5,0,93.2,41.7,93.2,93.2v0C4390.7,1261.4,4349,1303.1,4297.5,1303.1z"/>
	<path d="M4244.2,1320.2c0-4.4-5.4-8-12.1-8h-327.2c-6.7,0-12.1,3.6-12.1,8l0,0.2l-12.6,58.9h376.5l-12.6-59V1320.2z"/>
	<path d="M4362.8,1116.7h-588.5c-15.4,0-28,8.3-28,18.5v220.1c0,10.2,12.6,18.5,28,18.5h93.1l12.6-59.3c0.1-6.3,7.9-11.4,17.5-11.4
		h342.1c9.6,0,17.4,5.1,17.5,11.4l12.6,59.3h93.1c15.4,0,28-8.3,28-18.5v-220.1C4390.8,1125.1,4378.2,1116.7,4362.8,1116.7z
		 M4369.7,1267.1c0,5.9-7.2,10.7-16.1,10.7h-570.2c-8.9,0-16.1-4.8-16.1-10.7v-126.6c0-5.9,7.2-10.7,16.1-10.7h570.2
		c8.9,0,16.1,4.8,16.1,10.7V1267.1z"/>
	<path d="M4230.9,1177.4h-324.8c-3.7,0-6.7,2-6.7,4.4v52.7c0,2.4,3,4.4,6.7,4.4h324.8c3.7,0,6.7-2,6.7-4.4v-52.7
		C4237.6,1179.4,4234.6,1177.4,4230.9,1177.4z"/>
	<path class="st1" d="M3959.3,1233c-20.8,0-37.6-11.1-37.6-24.9c0-13.7,16.8-24.9,37.6-24.9c20.8,0,37.6,11.1,37.6,24.9
		C3996.9,1221.9,3980.1,1233,3959.3,1233z"/>
	<path class="st1" d="M4173.8,1233.7c-20.8,0-37.6-11.1-37.6-24.9c0-13.7,16.8-24.9,37.6-24.9s37.6,11.1,37.6,24.9
		C4211.4,1222.6,4194.6,1233.7,4173.8,1233.7z"/>
</g>
<g>
	<path class="st3" d="M5228.9,1688.1h-459.7c-48.2,0-87.3-39.1-87.3-87.3v0c0-48.2,39.1-87.3,87.3-87.3h459.7
		c48.2,0,87.3,39.1,87.3,87.3v0C5316.2,1649,5277.1,1688.1,5228.9,1688.1z"/>
	<path d="M5170,1715.8c0-4.4-5.4-7.9-12.1-7.9h-326.4c-6.7,0-12.1,3.6-12.1,7.9l0,0.2l-12.5,58.6h375.6l-12.5-58.7V1715.8z"/>
	<path d="M5288.3,1513.4h-587.1c-15.4,0-27.9,8.3-27.9,18.4v218.8c0,10.1,12.6,18.4,27.9,18.4h92.9l12.6-58.9
		c0.1-6.3,7.9-11.4,17.4-11.4h341.3c9.6,0,17.3,5.1,17.4,11.4l12.6,58.9h92.9c15.4,0,27.9-8.3,27.9-18.4v-218.8
		C5316.2,1521.7,5303.7,1513.4,5288.3,1513.4z M5295.2,1663c0,5.8-7.2,10.6-16.1,10.6h-568.8c-8.8,0-16.1-4.8-16.1-10.6v-125.8
		c0-5.8,7.2-10.6,16.1-10.6h568.8c8.8,0,16.1,4.8,16.1,10.6V1663z"/>
	<path d="M5156.7,1573.7h-324c-3.7,0-6.7,2-6.7,4.4v52.4c0,2.4,3,4.4,6.7,4.4h324.1c3.7,0,6.7-2,6.7-4.4v-52.4
		C5163.4,1575.7,5160.4,1573.7,5156.7,1573.7z"/>
	<path class="st1" d="M5101.9,1629c-20.7,0-37.5-11.1-37.5-24.7s16.8-24.7,37.5-24.7c20.7,0,37.5,11.1,37.5,24.7
		C5139.5,1618,5122.7,1629,5101.9,1629z"/>
	<path class="st1" d="M4883.5,1629c-20.7,0-37.5-11.1-37.5-24.7s16.8-24.7,37.5-24.7s37.5,11.1,37.5,24.7
		C4921,1618,4904.2,1629,4883.5,1629z"/>
</g>
<g>
	<path class="st4" d="M5217.1,1280.3h-470.8c-47.5,0-86.1-38.5-86.1-86.1v0c0-47.5,38.5-86.1,86.1-86.1h470.8
		c47.5,0,86.1,38.5,86.1,86.1v0C5303.2,1241.8,5264.7,1280.3,5217.1,1280.3z"/>
	<path d="M5157,1310.5c0-4.4-5.4-7.9-12.1-7.9h-326.4c-6.7,0-12.1,3.6-12.1,7.9l0,0.2l-12.5,58.6h375.6l-12.5-58.7V1310.5z"/>
	<path d="M5275.3,1108.2h-587.1c-15.4,0-27.9,8.3-27.9,18.4v218.8c0,10.1,12.6,18.4,27.9,18.4h92.9l12.6-58.9
		c0.1-6.3,7.9-11.4,17.4-11.4h341.3c9.6,0,17.3,5.1,17.4,11.4l12.6,58.9h92.9c15.4,0,27.9-8.3,27.9-18.4v-218.8
		C5303.2,1116.5,5290.7,1108.2,5275.3,1108.2z M5282.2,1257.7c0,5.8-7.2,10.6-16.1,10.6h-568.8c-8.8,0-16.1-4.8-16.1-10.6v-125.8
		c0-5.8,7.2-10.6,16.1-10.6h568.8c8.8,0,16.1,4.8,16.1,10.6V1257.7z"/>
	<path d="M5143.7,1168.5h-324c-3.7,0-6.7,2-6.7,4.4v52.4c0,2.4,3,4.4,6.7,4.4h324.1c3.7,0,6.7-2,6.7-4.4v-52.4
		C5150.4,1170.5,5147.4,1168.5,5143.7,1168.5z"/>
	<path class="st1" d="M4872.8,1223.8c-20.7,0-37.5-11.1-37.5-24.7s16.8-24.7,37.5-24.7c20.7,0,37.5,11.1,37.5,24.7
		C4910.3,1212.8,4893.5,1223.8,4872.8,1223.8z"/>
	<path class="st1" d="M5086.8,1224.5c-20.7,0-37.5-11.1-37.5-24.7c0-13.6,16.8-24.7,37.5-24.7c20.7,0,37.5,11.1,37.5,24.7
		C5124.3,1213.4,5107.5,1224.5,5086.8,1224.5z"/>
</g>
<g>
	<path class="st0" d="M4284.6,2591.3h-467.3c-48.9,0-88.6-39.7-88.6-88.6l0,0c0-48.9,39.7-88.6,88.6-88.6h467.3
		c48.9,0,88.6,39.7,88.6,88.6l0,0C4373.2,2551.7,4333.5,2591.3,4284.6,2591.3z"/>
	<path d="M4226.6,2617.7c0-4.4-5.4-8-12.1-8h-327.2c-6.7,0-12.1,3.6-12.1,8l0,0.2l-12.6,58.9h376.5l-12.6-59V2617.7z"/>
	<path d="M4345.2,2411.4h-588.5c-15.4,0-28,8.5-28,18.9v224.8c0,10.4,12.6,18.9,28,18.9h93.1l12.6-60.6c0.1-6.5,7.9-11.7,17.5-11.7
		H4222c9.6,0,17.4,5.2,17.5,11.7l12.6,60.6h93.1c15.4,0,28-8.5,28-18.9v-224.8C4373.2,2419.9,4360.6,2411.4,4345.2,2411.4z
		 M4352.1,2565c0,6-7.2,10.9-16.1,10.9h-570.2c-8.9,0-16.1-4.9-16.1-10.9v-129.3c0-6,7.2-10.9,16.1-10.9H4336
		c8.9,0,16.1,4.9,16.1,10.9V2565z"/>
	<path d="M4213.3,2474.8h-324.8c-3.7,0-6.7,2-6.7,4.4v52.7c0,2.4,3,4.4,6.7,4.4h324.8c3.7,0,6.7-2,6.7-4.4v-52.7
		C4220,2476.8,4217,2474.8,4213.3,2474.8z"/>
	<path class="st1" d="M4158.4,2530.4c-20.8,0-37.6-11.1-37.6-24.9c0-13.7,16.8-24.9,37.6-24.9s37.6,11.1,37.6,24.9
		C4196,2519.3,4179.1,2530.4,4158.4,2530.4z"/>
	<path class="st1" d="M3939.4,2530.4c-20.8,0-37.6-11.1-37.6-24.9c0-13.7,16.8-24.9,37.6-24.9c20.8,0,37.6,11.1,37.6,24.9
		C3977,2519.3,3960.2,2530.4,3939.4,2530.4z"/>
</g>
<g>
	<path class="st2" d="M4286,2158.3h-470.2c-48.1,0-87.1-39-87.1-87.1v0c0-48.1,39-87.1,87.1-87.1H4286c48.1,0,87.1,39,87.1,87.1v0
		C4373.2,2119.3,4334.1,2158.3,4286,2158.3z"/>
	<path d="M4226.6,2187.6c0-4.4-5.4-8-12.1-8h-327.2c-6.7,0-12.1,3.6-12.1,8l0,0.2l-12.6,58.9h376.5l-12.6-59V2187.6z"/>
	<path d="M4345.2,1984.1h-588.5c-15.4,0-28,8.3-28,18.5v220.1c0,10.2,12.6,18.5,28,18.5h93.1l12.6-59.3c0.1-6.3,7.9-11.4,17.5-11.4
		H4222c9.6,0,17.4,5.1,17.5,11.4l12.6,59.3h93.1c15.4,0,28-8.3,28-18.5v-220.1C4373.2,1992.4,4360.6,1984.1,4345.2,1984.1z
		 M4352.1,2134.5c0,5.9-7.2,10.7-16.1,10.7h-570.1c-8.9,0-16.1-4.8-16.1-10.7v-126.6c0-5.9,7.2-10.7,16.1-10.7H4336
		c8.9,0,16.1,4.8,16.1,10.7V2134.5z"/>
	<path d="M4213.3,2044.7h-324.8c-3.7,0-6.7,2-6.7,4.4v52.7c0,2.4,3,4.4,6.7,4.4h324.8c3.7,0,6.7-2,6.7-4.4v-52.7
		C4220,2046.7,4217,2044.7,4213.3,2044.7z"/>
	<path class="st1" d="M3941.7,2100.3c-20.8,0-37.6-11.1-37.6-24.9c0-13.7,16.8-24.9,37.6-24.9s37.6,11.1,37.6,24.9
		C3979.3,2089.2,3962.5,2100.3,3941.7,2100.3z"/>
	<path class="st1" d="M4156.2,2101c-20.8,0-37.6-11.1-37.6-24.9c0-13.7,16.8-24.9,37.6-24.9c20.8,0,37.6,11.1,37.6,24.9
		C4193.8,2089.9,4177,2101,4156.2,2101z"/>
</g>
<g>
	<path class="st0" d="M4280.8,3440.3h-459.7c-51,0-92.4-41.4-92.4-92.4v0c0-51,41.4-92.4,92.4-92.4h459.7c51,0,92.4,41.4,92.4,92.4
		v0C4373.2,3399,4331.8,3440.3,4280.8,3440.3z"/>
	<path d="M4226.6,3459c0-4.4-5.4-8-12.1-8h-327.2c-6.7,0-12.1,3.6-12.1,8l0,0.2l-12.6,58.9h376.5l-12.6-59V3459z"/>
	<path d="M4345.2,3255.5h-588.5c-15.4,0-28,8.3-28,18.5v220.1c0,10.2,12.6,18.5,28,18.5h93.1l12.6-59.3c0.1-6.3,7.9-11.4,17.5-11.4
		H4222c9.6,0,17.4,5.1,17.5,11.4l12.6,59.3h93.1c15.4,0,28-8.3,28-18.5v-220.1C4373.2,3263.9,4360.6,3255.5,4345.2,3255.5z
		 M4352.1,3405.9c0,5.9-7.2,10.7-16.1,10.7h-570.2c-8.9,0-16.1-4.8-16.1-10.7v-126.6c0-5.9,7.2-10.7,16.1-10.7H4336
		c8.9,0,16.1,4.8,16.1,10.7V3405.9z"/>
	<path d="M4213.3,3316.2h-324.8c-3.7,0-6.7,2-6.7,4.4v52.7c0,2.4,3,4.4,6.7,4.4h324.8c3.7,0,6.7-2,6.7-4.4v-52.7
		C4220,3318.2,4217,3316.2,4213.3,3316.2z"/>
	<path class="st1" d="M4158.4,3371.8c-20.8,0-37.6-11.1-37.6-24.9c0-13.7,16.8-24.9,37.6-24.9s37.6,11.1,37.6,24.9
		C4196,3360.7,4179.1,3371.8,4158.4,3371.8z"/>
	<path class="st1" d="M3939.4,3371.8c-20.8,0-37.6-11.1-37.6-24.9c0-13.7,16.8-24.9,37.6-24.9c20.8,0,37.6,11.1,37.6,24.9
		C3977,3360.7,3960.2,3371.8,3939.4,3371.8z"/>
</g>
<g>
	<path class="st2" d="M4280,3023.3h-458.1c-51.5,0-93.2-41.7-93.2-93.2v0c0-51.5,41.7-93.2,93.2-93.2H4280
		c51.5,0,93.2,41.7,93.2,93.2v0C4373.1,2981.6,4331.4,3023.3,4280,3023.3z"/>
	<path d="M4226.6,3040.4c0-4.4-5.4-8-12.1-8h-327.2c-6.7,0-12.1,3.6-12.1,8l0,0.2l-12.6,58.9h376.5l-12.6-59V3040.4z"/>
	<path d="M4345.2,2836.9h-588.5c-15.4,0-28,8.3-28,18.5v220.1c0,10.2,12.6,18.5,28,18.5h93.1l12.6-59.3c0.1-6.3,7.9-11.4,17.5-11.4
		H4222c9.6,0,17.4,5.1,17.5,11.4l12.6,59.3h93.1c15.4,0,28-8.3,28-18.5v-220.1C4373.2,2845.3,4360.6,2836.9,4345.2,2836.9z
		 M4352.1,2987.3c0,5.9-7.2,10.7-16.1,10.7h-570.2c-8.9,0-16.1-4.8-16.1-10.7v-126.6c0-5.9,7.2-10.7,16.1-10.7H4336
		c8.9,0,16.1,4.8,16.1,10.7V2987.3z"/>
	<path d="M4213.3,2897.6h-324.8c-3.7,0-6.7,2-6.7,4.4v52.7c0,2.4,3,4.4,6.7,4.4h324.8c3.7,0,6.7-2,6.7-4.4V2902
		C4220,2899.6,4217,2897.6,4213.3,2897.6z"/>
	<path class="st1" d="M3941.7,2953.2c-20.8,0-37.6-11.1-37.6-24.9s16.8-24.9,37.6-24.9c20.8,0,37.6,11.1,37.6,24.9
		C3979.3,2942.1,3962.5,2953.2,3941.7,2953.2z"/>
	<path class="st1" d="M4156.2,2953.9c-20.8,0-37.6-11.1-37.6-24.9s16.8-24.9,37.6-24.9c20.8,0,37.6,11.1,37.6,24.9
		C4193.8,2942.8,4177,2953.9,4156.2,2953.9z"/>
</g>
<g>
	<path class="st3" d="M5226.5,2580.1h-474.1c-46.6,0-84.4-37.8-84.4-84.4v0c0-46.6,37.8-84.4,84.4-84.4h474.1
		c46.6,0,84.4,37.8,84.4,84.4v0C5310.9,2542.3,5273.2,2580.1,5226.5,2580.1z"/>
	<path d="M5164.7,2613.6c0-4.4-5.4-7.9-12.1-7.9h-326.4c-6.7,0-12.1,3.6-12.1,7.9l0,0.2l-12.5,58.6h375.6l-12.5-58.7V2613.6z"/>
	<path d="M5283,2411.3h-587.1c-15.4,0-27.9,8.3-27.9,18.4v218.8c0,10.1,12.6,18.4,27.9,18.4h92.9l12.6-58.9
		c0.1-6.3,7.9-11.4,17.4-11.4h341.3c9.5,0,17.3,5.1,17.4,11.4l12.6,58.9h92.9c15.4,0,27.9-8.3,27.9-18.4v-218.8
		C5311,2419.6,5298.4,2411.3,5283,2411.3z M5290,2560.8c0,5.8-7.2,10.6-16.1,10.6h-568.8c-8.8,0-16.1-4.8-16.1-10.6V2435
		c0-5.8,7.2-10.6,16.1-10.6h568.8c8.8,0,16.1,4.8,16.1,10.6V2560.8z"/>
	<path d="M5151.5,2471.6h-324c-3.7,0-6.7,2-6.7,4.4v52.4c0,2.4,3,4.4,6.7,4.4h324.1c3.7,0,6.7-2,6.7-4.4V2476
		C5158.2,2473.6,5155.2,2471.6,5151.5,2471.6z"/>
	<path class="st1" d="M5096.7,2526.9c-20.7,0-37.5-11.1-37.5-24.7c0-13.6,16.8-24.7,37.5-24.7c20.7,0,37.5,11.1,37.5,24.7
		C5134.2,2515.8,5117.4,2526.9,5096.7,2526.9z"/>
	<path class="st1" d="M4878.2,2526.9c-20.7,0-37.5-11.1-37.5-24.7c0-13.6,16.8-24.7,37.5-24.7s37.5,11.1,37.5,24.7
		C4915.8,2515.8,4899,2526.9,4878.2,2526.9z"/>
</g>
<g>
	<path class="st4" d="M5224.3,2158.3h-469.7c-47.8,0-86.6-38.8-86.6-86.6v0c0-47.8,38.8-86.6,86.6-86.6h469.7
		c47.8,0,86.6,38.8,86.6,86.6v0C5310.9,2119.5,5272.2,2158.3,5224.3,2158.3z"/>
	<path d="M5164.7,2187.4c0-4.4-5.4-7.9-12.1-7.9h-326.4c-6.7,0-12.1,3.6-12.1,7.9l0,0.2l-12.5,58.6h375.6l-12.5-58.7V2187.4z"/>
	<path d="M5283,1985.1H4696c-15.4,0-27.9,8.3-27.9,18.4v218.8c0,10.1,12.6,18.4,27.9,18.4h92.9l12.6-58.9
		c0.1-6.3,7.9-11.4,17.4-11.4h341.3c9.5,0,17.3,5.1,17.4,11.4l12.6,58.9h92.9c15.4,0,27.9-8.3,27.9-18.4v-218.8
		C5311,1993.4,5298.4,1985.1,5283,1985.1z M5290,2134.6c0,5.8-7.2,10.6-16.1,10.6h-568.8c-8.8,0-16.1-4.8-16.1-10.6v-125.8
		c0-5.8,7.2-10.6,16.1-10.6h568.8c8.8,0,16.1,4.8,16.1,10.6V2134.6z"/>
	<path d="M5151.5,2045.4h-324c-3.7,0-6.7,2-6.7,4.4v52.4c0,2.4,3,4.4,6.7,4.4h324.1c3.7,0,6.7-2,6.7-4.4v-52.4
		C5158.2,2047.4,5155.2,2045.4,5151.5,2045.4z"/>
	<path class="st1" d="M4880.5,2100.7c-20.7,0-37.5-11.1-37.5-24.7s16.8-24.7,37.5-24.7s37.5,11.1,37.5,24.7
		C4918.1,2089.6,4901.3,2100.7,4880.5,2100.7z"/>
	<path class="st1" d="M5094.5,2101.4c-20.7,0-37.5-11.1-37.5-24.7c0-13.6,16.8-24.7,37.5-24.7s37.5,11.1,37.5,24.7
		C5132,2090.3,5115.3,2101.4,5094.5,2101.4z"/>
</g>
<g>
	<path class="st3" d="M5223.6,3419.8h-459.7c-48.2,0-87.3-39.1-87.3-87.3v0c0-48.2,39.1-87.3,87.3-87.3h459.7
		c48.2,0,87.3,39.1,87.3,87.3v0C5311,3380.7,5271.9,3419.8,5223.6,3419.8z"/>
	<path d="M5164.7,3447.4c0-4.4-5.4-7.9-12.1-7.9h-326.4c-6.7,0-12.1,3.6-12.1,7.9l0,0.2l-12.5,58.6h375.6l-12.5-58.7V3447.4z"/>
	<path d="M5283,3245.1h-587.1c-15.4,0-27.9,8.3-27.9,18.4v218.8c0,10.1,12.6,18.4,27.9,18.4h92.9l12.6-58.9
		c0.1-6.3,7.9-11.4,17.4-11.4h341.3c9.5,0,17.3,5.1,17.4,11.4l12.6,58.9h92.9c15.4,0,27.9-8.3,27.9-18.4v-218.8
		C5311,3253.4,5298.4,3245.1,5283,3245.1z M5290,3394.6c0,5.8-7.2,10.6-16.1,10.6h-568.8c-8.8,0-16.1-4.8-16.1-10.6v-125.8
		c0-5.8,7.2-10.6,16.1-10.6h568.8c8.8,0,16.1,4.8,16.1,10.6V3394.6z"/>
	<path d="M5151.5,3305.4h-324c-3.7,0-6.7,2-6.7,4.4v52.4c0,2.4,3,4.4,6.7,4.4h324.1c3.7,0,6.7-2,6.7-4.4v-52.4
		C5158.2,3307.4,5155.2,3305.4,5151.5,3305.4z"/>
	<path class="st1" d="M5096.7,3360.7c-20.7,0-37.5-11.1-37.5-24.7c0-13.6,16.8-24.7,37.5-24.7s37.5,11.1,37.5,24.7
		C5134.2,3349.6,5117.4,3360.7,5096.7,3360.7z"/>
	<path class="st1" d="M4878.2,3360.7c-20.7,0-37.5-11.1-37.5-24.7c0-13.6,16.8-24.7,37.5-24.7c20.7,0,37.5,11.1,37.5,24.7
		C4915.8,3349.6,4899,3360.7,4878.2,3360.7z"/>
</g>
<g>
	<path class="st4" d="M5224.9,3012h-470.8c-47.5,0-86.1-38.5-86.1-86.1l0,0c0-47.5,38.5-86.1,86.1-86.1h470.8
		c47.5,0,86.1,38.5,86.1,86.1l0,0C5310.9,2973.5,5272.4,3012,5224.9,3012z"/>
	<path d="M5164.7,3042.2c0-4.4-5.4-7.9-12.1-7.9h-326.4c-6.7,0-12.1,3.6-12.1,7.9l0,0.2l-12.5,58.6h375.6l-12.5-58.7V3042.2z"/>
	<path d="M5283,2839.9H4696c-15.4,0-27.9,8.3-27.9,18.4v218.8c0,10.1,12.6,18.4,27.9,18.4h92.9l12.6-58.9
		c0.1-6.3,7.9-11.4,17.4-11.4h341.3c9.6,0,17.3,5.1,17.4,11.4l12.6,58.9h92.9c15.4,0,27.9-8.3,27.9-18.4v-218.8
		C5311,2848.2,5298.4,2839.9,5283,2839.9z M5290,2989.4c0,5.8-7.2,10.6-16.1,10.6h-568.8c-8.8,0-16.1-4.8-16.1-10.6v-125.8
		c0-5.8,7.2-10.6,16.1-10.6h568.8c8.8,0,16.1,4.8,16.1,10.6V2989.4z"/>
	<path d="M5151.5,2900.2h-324c-3.7,0-6.7,2-6.7,4.4v52.4c0,2.4,3,4.4,6.7,4.4h324.1c3.7,0,6.7-2,6.7-4.4v-52.4
		C5158.2,2902.1,5155.2,2900.2,5151.5,2900.2z"/>
	<path class="st1" d="M4880.5,2955.5c-20.7,0-37.5-11.1-37.5-24.7c0-13.6,16.8-24.7,37.5-24.7c20.7,0,37.5,11.1,37.5,24.7
		C4918.1,2944.4,4901.3,2955.5,4880.5,2955.5z"/>
	<path class="st1" d="M5094.5,2956.2c-20.7,0-37.5-11.1-37.5-24.7s16.8-24.7,37.5-24.7c20.7,0,37.5,11.1,37.5,24.7
		C5132.1,2945.1,5115.3,2956.2,5094.5,2956.2z"/>
</g>
<g>
	<path class="st0" d="M6040.8,873.3h-467.3c-48.9,0-88.6-39.7-88.6-88.6v0c0-48.9,39.7-88.6,88.6-88.6h467.3
		c48.9,0,88.6,39.7,88.6,88.6v0C6129.4,833.7,6089.7,873.3,6040.8,873.3z"/>
	<path d="M5982.8,899.7c0-4.4-5.4-8-12.1-8h-327.2c-6.7,0-12.1,3.6-12.1,8l0,0.2l-12.6,58.9h376.5l-12.6-59V899.7z"/>
	<path d="M6101.4,693.4H5513c-15.4,0-28,8.5-28,18.9v224.8c0,10.4,12.6,18.9,28,18.9h93.1l12.6-60.6c0.1-6.5,7.9-11.7,17.5-11.7
		h342.1c9.6,0,17.4,5.2,17.5,11.7l12.6,60.6h93.1c15.4,0,28-8.5,28-18.9V712.3C6129.4,701.9,6116.8,693.4,6101.4,693.4z M6108.4,847
		c0,6-7.2,10.9-16.1,10.9h-570.2c-8.9,0-16.1-4.9-16.1-10.9V717.7c0-6,7.2-10.9,16.1-10.9h570.2c8.9,0,16.1,4.9,16.1,10.9V847z"/>
	<path d="M5969.6,756.8h-324.8c-3.7,0-6.7,2-6.7,4.4v52.7c0,2.4,3,4.4,6.7,4.4h324.8c3.7,0,6.7-2,6.7-4.4v-52.7
		C5976.3,758.8,5973.2,756.8,5969.6,756.8z"/>
	<path class="st1" d="M5914.6,812.4c-20.8,0-37.6-11.1-37.6-24.9s16.8-24.9,37.6-24.9s37.6,11.1,37.6,24.9
		C5952.2,801.3,5935.4,812.4,5914.6,812.4z"/>
	<path class="st1" d="M5695.7,812.4c-20.8,0-37.6-11.1-37.6-24.9s16.8-24.9,37.6-24.9c20.8,0,37.6,11.1,37.6,24.9
		C5733.3,801.3,5716.5,812.4,5695.7,812.4z"/>
</g>
<g>
	<path class="st2" d="M6042.2,440.3H5572c-48.1,0-87.1-39-87.1-87.1v0c0-48.1,39-87.1,87.1-87.1h470.2c48.1,0,87.1,39,87.1,87.1v0
		C6129.3,401.3,6090.3,440.3,6042.2,440.3z"/>
	<path d="M5982.8,469.6c0-4.4-5.4-8-12.1-8h-327.1c-6.7,0-12.1,3.6-12.1,8l0,0.2l-12.6,58.9h376.5l-12.6-59V469.6z"/>
	<path d="M6101.4,266.1h-588.5c-15.4,0-28,8.3-28,18.5v220.1c0,10.2,12.6,18.5,28,18.5h93.1l12.6-59.3c0.1-6.3,7.9-11.4,17.5-11.4
		h342.1c9.6,0,17.4,5.1,17.5,11.4l12.6,59.3h93.1c15.4,0,28-8.3,28-18.5V284.6C6129.4,274.4,6116.8,266.1,6101.4,266.1z
		 M6108.3,416.5c0,5.9-7.2,10.7-16.1,10.7h-570.1c-8.9,0-16.1-4.8-16.1-10.7V289.9c0-5.9,7.2-10.7,16.1-10.7h570.1
		c8.9,0,16.1,4.8,16.1,10.7V416.5z"/>
	<path d="M5969.5,326.7h-324.8c-3.7,0-6.7,2-6.7,4.4v52.7c0,2.4,3,4.4,6.7,4.4h324.8c3.7,0,6.7-2,6.7-4.4v-52.7
		C5976.2,328.7,5973.2,326.7,5969.5,326.7z"/>
	<path class="st1" d="M5697.9,382.3c-20.8,0-37.6-11.1-37.6-24.9c0-13.7,16.8-24.9,37.6-24.9s37.6,11.1,37.6,24.9
		C5735.5,371.2,5718.7,382.3,5697.9,382.3z"/>
	<path class="st1" d="M5912.4,383c-20.8,0-37.6-11.1-37.6-24.9s16.8-24.9,37.6-24.9c20.8,0,37.6,11.1,37.6,24.9
		C5950,371.9,5933.2,383,5912.4,383z"/>
</g>
<g>
	<path class="st3" d="M6843.5,834.8h-474.1c-46.6,0-84.4-37.8-84.4-84.4v0c0-46.6,37.8-84.4,84.4-84.4h474.1
		c46.6,0,84.4,37.8,84.4,84.4v0C6927.9,797,6890.1,834.8,6843.5,834.8z"/>
	<path d="M6781.7,868.3c0-4.4-5.4-7.9-12.1-7.9h-326.4c-6.7,0-12.1,3.6-12.1,7.9l0,0.2l-12.5,58.6h375.6l-12.5-58.7V868.3z"/>
	<path d="M6900,666h-587.1c-15.4,0-27.9,8.3-27.9,18.4v218.8c0,10.1,12.6,18.4,27.9,18.4h92.9l12.6-58.9c0.1-6.3,7.9-11.4,17.4-11.4
		h341.3c9.6,0,17.3,5.1,17.4,11.4l12.6,58.9h92.9c15.4,0,27.9-8.3,27.9-18.4V684.4C6927.9,674.3,6915.4,666,6900,666z M6907,815.5
		c0,5.8-7.2,10.6-16.1,10.6H6322c-8.8,0-16.1-4.8-16.1-10.6V689.7c0-5.8,7.2-10.6,16.1-10.6h568.8c8.8,0,16.1,4.8,16.1,10.6V815.5z"
		/>
	<path d="M6768.4,726.3h-324c-3.7,0-6.7,2-6.7,4.4v52.4c0,2.4,3,4.4,6.7,4.4h324.1c3.7,0,6.7-2,6.7-4.4v-52.4
		C6775.1,728.3,6772.1,726.3,6768.4,726.3z"/>
	<path class="st1" d="M6713.6,781.6c-20.7,0-37.5-11.1-37.5-24.7c0-13.6,16.8-24.7,37.5-24.7s37.5,11.1,37.5,24.7
		C6751.2,770.5,6734.4,781.6,6713.6,781.6z"/>
	<path class="st1" d="M6495.2,781.6c-20.7,0-37.5-11.1-37.5-24.7c0-13.6,16.8-24.7,37.5-24.7c20.7,0,37.5,11.1,37.5,24.7
		C6532.7,770.5,6515.9,781.6,6495.2,781.6z"/>
</g>
<g>
	<path class="st4" d="M6841.3,413h-469.7c-47.8,0-86.6-38.8-86.6-86.6v0c0-47.8,38.8-86.6,86.6-86.6h469.7
		c47.8,0,86.6,38.8,86.6,86.6v0C6927.9,374.2,6889.1,413,6841.3,413z"/>
	<path d="M6781.7,442.1c0-4.4-5.4-7.9-12.1-7.9h-326.4c-6.7,0-12.1,3.6-12.1,7.9l0,0.2l-12.5,58.6h375.6l-12.5-58.7V442.1z"/>
	<path d="M6900,239.8h-587.1c-15.4,0-27.9,8.3-27.9,18.4V477c0,10.1,12.6,18.4,27.9,18.4h92.9l12.6-58.9c0.1-6.3,7.9-11.4,17.4-11.4
		h341.3c9.5,0,17.3,5.1,17.4,11.4l12.6,58.9h92.9c15.4,0,27.9-8.3,27.9-18.4V258.2C6927.9,248.1,6915.4,239.8,6900,239.8z
		 M6907,389.3c0,5.8-7.2,10.6-16.1,10.6h-568.8c-8.8,0-16.1-4.8-16.1-10.6V263.5c0-5.8,7.2-10.6,16.1-10.6h568.8
		c8.8,0,16.1,4.8,16.1,10.6V389.3z"/>
	<path d="M6768.5,300.1h-324c-3.7,0-6.7,2-6.7,4.4v52.4c0,2.4,3,4.4,6.7,4.4h324.1c3.7,0,6.7-2,6.7-4.4v-52.4
		C6775.2,302.1,6772.1,300.1,6768.5,300.1z"/>
	<path class="st1" d="M6497.5,355.4c-20.7,0-37.5-11.1-37.5-24.7c0-13.6,16.8-24.7,37.5-24.7c20.7,0,37.5,11.1,37.5,24.7
		C6535,344.3,6518.2,355.4,6497.5,355.4z"/>
	<path class="st1" d="M6711.5,356.1c-20.7,0-37.5-11.1-37.5-24.7s16.8-24.7,37.5-24.7c20.7,0,37.5,11.1,37.5,24.7
		C6749,345,6732.2,356.1,6711.5,356.1z"/>
</g>
<g>
	<path class="st0" d="M6036.9,1722.3h-459.7c-51,0-92.4-41.4-92.4-92.4v0c0-51,41.4-92.4,92.4-92.4h459.7c51,0,92.4,41.4,92.4,92.4
		v0C6129.3,1680.9,6088,1722.3,6036.9,1722.3z"/>
	<path d="M5982.8,1741c0-4.4-5.4-8-12.1-8h-327.2c-6.7,0-12.1,3.6-12.1,8l0,0.2l-12.6,58.9h376.5l-12.6-59V1741z"/>
	<path d="M6101.4,1537.5h-588.5c-15.4,0-28,8.3-28,18.5v220.1c0,10.2,12.6,18.5,28,18.5h93.1l12.6-59.3c0.1-6.3,7.9-11.4,17.5-11.4
		h342.1c9.6,0,17.4,5.1,17.5,11.4l12.6,59.3h93.1c15.4,0,28-8.3,28-18.5V1556C6129.4,1545.9,6116.8,1537.5,6101.4,1537.5z
		 M6108.3,1687.9c0,5.9-7.2,10.7-16.1,10.7h-570.2c-8.9,0-16.1-4.8-16.1-10.7v-126.6c0-5.9,7.2-10.7,16.1-10.7h570.2
		c8.9,0,16.1,4.8,16.1,10.7V1687.9z"/>
	<path d="M5969.5,1598.2h-324.8c-3.7,0-6.7,2-6.7,4.4v52.7c0,2.4,3,4.4,6.7,4.4h324.8c3.7,0,6.7-2,6.7-4.4v-52.7
		C5976.2,1600.2,5973.2,1598.2,5969.5,1598.2z"/>
	<path class="st1" d="M5914.6,1653.8c-20.8,0-37.6-11.1-37.6-24.9c0-13.7,16.8-24.9,37.6-24.9c20.8,0,37.6,11.1,37.6,24.9
		C5952.2,1642.7,5935.3,1653.8,5914.6,1653.8z"/>
	<path class="st1" d="M5695.6,1653.8c-20.8,0-37.6-11.1-37.6-24.9c0-13.7,16.8-24.9,37.6-24.9s37.6,11.1,37.6,24.9
		C5733.2,1642.7,5716.4,1653.8,5695.6,1653.8z"/>
</g>
<g>
	<path class="st2" d="M6053.7,1305.3h-458.1c-51.5,0-93.2-41.7-93.2-93.2v0c0-51.5,41.7-93.2,93.2-93.2h458.1
		c51.5,0,93.2,41.7,93.2,93.2v0C6146.9,1263.6,6105.2,1305.3,6053.7,1305.3z"/>
	<path d="M6000.4,1322.4c0-4.4-5.4-8-12.1-8h-327.2c-6.7,0-12.1,3.6-12.1,8l0,0.2l-12.6,58.9h376.5l-12.6-59V1322.4z"/>
	<path d="M6118.9,1118.9h-588.5c-15.4,0-28,8.3-28,18.5v220.1c0,10.2,12.6,18.5,28,18.5h93.1l12.6-59.3c0.1-6.3,7.9-11.4,17.5-11.4
		h342.1c9.6,0,17.4,5.1,17.5,11.4l12.6,59.3h93.1c15.4,0,28-8.3,28-18.5v-220.1C6146.9,1127.3,6134.4,1118.9,6118.9,1118.9z
		 M6125.9,1269.3c0,5.9-7.2,10.7-16.1,10.7h-570.2c-8.9,0-16.1-4.8-16.1-10.7v-126.6c0-5.9,7.2-10.7,16.1-10.7h570.2
		c8.9,0,16.1,4.8,16.1,10.7V1269.3z"/>
	<path d="M5987.1,1179.6h-324.8c-3.7,0-6.7,2-6.7,4.4v52.7c0,2.4,3,4.4,6.7,4.4h324.8c3.7,0,6.7-2,6.7-4.4V1184
		C5993.8,1181.6,5990.8,1179.6,5987.1,1179.6z"/>
	<path class="st1" d="M5715.5,1235.2c-20.8,0-37.6-11.1-37.6-24.9c0-13.7,16.8-24.9,37.6-24.9s37.6,11.1,37.6,24.9
		C5753.1,1224.1,5736.3,1235.2,5715.5,1235.2z"/>
	<path class="st1" d="M5930,1235.9c-20.8,0-37.6-11.1-37.6-24.9c0-13.7,16.8-24.9,37.6-24.9s37.6,11.1,37.6,24.9
		C5967.6,1224.8,5950.8,1235.9,5930,1235.9z"/>
</g>
<g>
	<path class="st3" d="M6853.6,1674.5h-459.7c-48.2,0-87.3-39.1-87.3-87.3v0c0-48.2,39.1-87.3,87.3-87.3h459.7
		c48.2,0,87.3,39.1,87.3,87.3v0C6940.9,1635.4,6901.8,1674.5,6853.6,1674.5z"/>
	<path d="M6794.7,1702.1c0-4.4-5.4-7.9-12.1-7.9h-326.4c-6.7,0-12.1,3.6-12.1,7.9l0,0.2l-12.5,58.6h375.6l-12.5-58.7V1702.1z"/>
	<path d="M6913,1499.8h-587.1c-15.4,0-27.9,8.3-27.9,18.4V1737c0,10.1,12.6,18.4,27.9,18.4h92.9l12.6-58.9
		c0.1-6.3,7.9-11.4,17.4-11.4h341.3c9.6,0,17.3,5.1,17.4,11.4l12.6,58.9h92.9c15.4,0,27.9-8.3,27.9-18.4v-218.8
		C6941,1508.1,6928.4,1499.8,6913,1499.8z M6920,1649.3c0,5.8-7.2,10.6-16.1,10.6h-568.8c-8.8,0-16.1-4.8-16.1-10.6v-125.8
		c0-5.8,7.2-10.6,16.1-10.6h568.8c8.8,0,16.1,4.8,16.1,10.6V1649.3z"/>
	<path d="M6781.5,1560.1h-324c-3.7,0-6.7,2-6.7,4.4v52.4c0,2.4,3,4.4,6.7,4.4h324.1c3.7,0,6.7-2,6.7-4.4v-52.4
		C6788.2,1562.1,6785.2,1560.1,6781.5,1560.1z"/>
	<path class="st1" d="M6726.6,1615.4c-20.7,0-37.5-11.1-37.5-24.7c0-13.6,16.8-24.7,37.5-24.7s37.5,11.1,37.5,24.7
		C6764.2,1604.3,6747.4,1615.4,6726.6,1615.4z"/>
	<path class="st1" d="M6508.2,1615.4c-20.7,0-37.5-11.1-37.5-24.7c0-13.6,16.8-24.7,37.5-24.7s37.5,11.1,37.5,24.7
		C6545.8,1604.3,6529,1615.4,6508.2,1615.4z"/>
</g>
<g>
	<path class="st4" d="M6841.9,1266.7H6371c-47.5,0-86.1-38.5-86.1-86.1v0c0-47.5,38.5-86.1,86.1-86.1h470.8
		c47.5,0,86.1,38.5,86.1,86.1v0C6927.9,1228.2,6889.4,1266.7,6841.9,1266.7z"/>
	<path d="M6781.7,1296.9c0-4.4-5.4-7.9-12.1-7.9h-326.4c-6.7,0-12.1,3.6-12.1,7.9l0,0.2l-12.5,58.6h375.6l-12.5-58.7V1296.9z"/>
	<path d="M6900,1094.6h-587.1c-15.4,0-27.9,8.3-27.9,18.4v218.8c0,10.1,12.6,18.4,27.9,18.4h92.9l12.6-58.9
		c0.1-6.3,7.9-11.4,17.4-11.4h341.3c9.5,0,17.3,5.1,17.4,11.4l12.6,58.9h92.9c15.4,0,27.9-8.3,27.9-18.4V1113
		C6928,1102.8,6915.4,1094.6,6900,1094.6z M6907,1244.1c0,5.8-7.2,10.6-16.1,10.6h-568.8c-8.8,0-16.1-4.8-16.1-10.6v-125.8
		c0-5.8,7.2-10.6,16.1-10.6h568.8c8.8,0,16.1,4.8,16.1,10.6V1244.1z"/>
	<path d="M6768.5,1154.9h-324c-3.7,0-6.7,2-6.7,4.4v52.4c0,2.4,3,4.4,6.7,4.4h324.1c3.7,0,6.7-2,6.7-4.4v-52.4
		C6775.2,1156.8,6772.1,1154.9,6768.5,1154.9z"/>
	<path class="st1" d="M6497.5,1210.2c-20.7,0-37.5-11.1-37.5-24.7c0-13.6,16.8-24.7,37.5-24.7s37.5,11.1,37.5,24.7
		C6535,1199.1,6518.2,1210.2,6497.5,1210.2z"/>
	<path class="st1" d="M6711.5,1210.9c-20.7,0-37.5-11.1-37.5-24.7c0-13.6,16.8-24.7,37.5-24.7s37.5,11.1,37.5,24.7
		C6749,1199.8,6732.2,1210.9,6711.5,1210.9z"/>
</g>
<g>
	<path class="st0" d="M6040.8,2593.5h-467.3c-48.9,0-88.6-39.7-88.6-88.6v0c0-48.9,39.7-88.6,88.6-88.6h467.3
		c48.9,0,88.6,39.7,88.6,88.6v0C6129.3,2553.9,6089.7,2593.5,6040.8,2593.5z"/>
	<path d="M5982.8,2619.9c0-4.4-5.4-8-12.1-8h-327.2c-6.7,0-12.1,3.6-12.1,8l0,0.2l-12.6,58.9h376.5l-12.6-59V2619.9z"/>
	<path d="M6101.4,2413.6h-588.5c-15.4,0-28,8.5-28,18.9v224.8c0,10.4,12.6,18.9,28,18.9h93.1l12.6-60.6c0.1-6.5,7.9-11.7,17.5-11.7
		h342.1c9.6,0,17.4,5.2,17.5,11.7l12.6,60.6h93.1c15.4,0,28-8.5,28-18.9v-224.8C6129.4,2422.1,6116.8,2413.6,6101.4,2413.6z
		 M6108.3,2567.2c0,6-7.2,10.9-16.1,10.9h-570.2c-8.9,0-16.1-4.9-16.1-10.9v-129.3c0-6,7.2-10.9,16.1-10.9h570.2
		c8.9,0,16.1,4.9,16.1,10.9V2567.2z"/>
	<path d="M5969.5,2477h-324.8c-3.7,0-6.7,2-6.7,4.4v52.7c0,2.4,3,4.4,6.7,4.4h324.8c3.7,0,6.7-2,6.7-4.4v-52.7
		C5976.2,2479,5973.2,2477,5969.5,2477z"/>
	<path class="st1" d="M5914.6,2532.6c-20.8,0-37.6-11.1-37.6-24.9s16.8-24.9,37.6-24.9c20.8,0,37.6,11.1,37.6,24.9
		C5952.2,2521.5,5935.3,2532.6,5914.6,2532.6z"/>
	<path class="st1" d="M5695.6,2532.6c-20.8,0-37.6-11.1-37.6-24.9s16.8-24.9,37.6-24.9s37.6,11.1,37.6,24.9
		C5733.2,2521.5,5716.4,2532.6,5695.6,2532.6z"/>
</g>
<g>
	<path class="st2" d="M6042.2,2160.5H5572c-48.1,0-87.1-39-87.1-87.1v0c0-48.1,39-87.1,87.1-87.1h470.2c48.1,0,87.1,39,87.1,87.1v0
		C6129.3,2121.5,6090.3,2160.5,6042.2,2160.5z"/>
	<path d="M5982.8,2189.8c0-4.4-5.4-8-12.1-8h-327.1c-6.7,0-12.1,3.6-12.1,8l0,0.2l-12.6,58.9h376.5l-12.6-59V2189.8z"/>
	<path d="M6101.4,1986.3h-588.5c-15.4,0-28,8.3-28,18.5v220.1c0,10.2,12.6,18.5,28,18.5h93.1l12.6-59.3c0.1-6.3,7.9-11.4,17.5-11.4
		h342.1c9.6,0,17.4,5.1,17.5,11.4l12.6,59.3h93.1c15.4,0,28-8.3,28-18.5v-220.1C6129.4,1994.6,6116.8,1986.3,6101.4,1986.3z
		 M6108.3,2136.7c0,5.9-7.2,10.7-16.1,10.7h-570.1c-8.9,0-16.1-4.8-16.1-10.7v-126.6c0-5.9,7.2-10.7,16.1-10.7h570.1
		c8.9,0,16.1,4.8,16.1,10.7V2136.7z"/>
	<path d="M5969.5,2046.9h-324.8c-3.7,0-6.7,2-6.7,4.4v52.7c0,2.4,3,4.4,6.7,4.4h324.8c3.7,0,6.7-2,6.7-4.4v-52.7
		C5976.2,2048.9,5973.2,2046.9,5969.5,2046.9z"/>
	<path class="st1" d="M5697.9,2102.5c-20.8,0-37.6-11.1-37.6-24.9s16.8-24.9,37.6-24.9s37.6,11.1,37.6,24.9
		C5735.5,2091.4,5718.7,2102.5,5697.9,2102.5z"/>
	<path class="st1" d="M5912.4,2103.2c-20.8,0-37.6-11.1-37.6-24.9s16.8-24.9,37.6-24.9c20.8,0,37.6,11.1,37.6,24.9
		C5950,2092.1,5933.2,2103.2,5912.4,2103.2z"/>
</g>
<g>
	<path class="st0" d="M6036.9,3442.5h-459.7c-51,0-92.4-41.4-92.4-92.4v0c0-51,41.4-92.4,92.4-92.4h459.7c51,0,92.4,41.4,92.4,92.4
		v0C6129.3,3401.2,6088,3442.5,6036.9,3442.5z"/>
	<path d="M5982.8,3461.2c0-4.4-5.4-8-12.1-8h-327.2c-6.7,0-12.1,3.6-12.1,8l0,0.2l-12.6,58.9h376.5l-12.6-59V3461.2z"/>
	<path d="M6101.4,3257.7h-588.5c-15.4,0-28,8.3-28,18.5v220.1c0,10.2,12.6,18.5,28,18.5h93.1l12.6-59.3c0.1-6.3,7.9-11.4,17.5-11.4
		h342.1c9.6,0,17.4,5.1,17.5,11.4l12.6,59.3h93.1c15.4,0,28-8.3,28-18.5v-220.1C6129.4,3266.1,6116.8,3257.7,6101.4,3257.7z
		 M6108.3,3408.1c0,5.9-7.2,10.7-16.1,10.7h-570.2c-8.9,0-16.1-4.8-16.1-10.7v-126.6c0-5.9,7.2-10.7,16.1-10.7h570.2
		c8.9,0,16.1,4.8,16.1,10.7V3408.1z"/>
	<path d="M5969.5,3318.4h-324.8c-3.7,0-6.7,2-6.7,4.4v52.7c0,2.4,3,4.4,6.7,4.4h324.8c3.7,0,6.7-2,6.7-4.4v-52.7
		C5976.2,3320.4,5973.2,3318.4,5969.5,3318.4z"/>
	<path class="st1" d="M5914.6,3374c-20.8,0-37.6-11.1-37.6-24.9s16.8-24.9,37.6-24.9c20.8,0,37.6,11.1,37.6,24.9
		C5952.2,3362.9,5935.3,3374,5914.6,3374z"/>
	<path class="st1" d="M5695.6,3374c-20.8,0-37.6-11.1-37.6-24.9s16.8-24.9,37.6-24.9s37.6,11.1,37.6,24.9
		C5733.2,3362.9,5716.4,3374,5695.6,3374z"/>
</g>
<g>
	<path class="st2" d="M6036.1,3025.5h-458.1c-51.5,0-93.2-41.7-93.2-93.2v0c0-51.5,41.7-93.2,93.2-93.2h458.1
		c51.5,0,93.2,41.7,93.2,93.2v0C6129.3,2983.8,6087.6,3025.5,6036.1,3025.5z"/>
	<path d="M5982.8,3042.6c0-4.4-5.4-8-12.1-8h-327.2c-6.7,0-12.1,3.6-12.1,8l0,0.2l-12.6,58.9h376.5l-12.6-59V3042.6z"/>
	<path d="M6101.4,2839.1h-588.5c-15.4,0-28,8.3-28,18.5v220.1c0,10.2,12.6,18.5,28,18.5h93.1l12.6-59.3c0.1-6.3,7.9-11.4,17.5-11.4
		h342.1c9.6,0,17.4,5.1,17.5,11.4l12.6,59.3h93.1c15.4,0,28-8.3,28-18.5v-220.1C6129.4,2847.5,6116.8,2839.1,6101.4,2839.1z
		 M6108.3,2989.5c0,5.9-7.2,10.7-16.1,10.7h-570.2c-8.9,0-16.1-4.8-16.1-10.7V2863c0-5.9,7.2-10.7,16.1-10.7h570.2
		c8.9,0,16.1,4.8,16.1,10.7V2989.5z"/>
	<path d="M5969.5,2899.8h-324.8c-3.7,0-6.7,2-6.7,4.4v52.7c0,2.4,3,4.4,6.7,4.4h324.8c3.7,0,6.7-2,6.7-4.4v-52.7
		C5976.2,2901.8,5973.2,2899.8,5969.5,2899.8z"/>
	<path class="st1" d="M5697.9,2955.4c-20.8,0-37.6-11.1-37.6-24.9c0-13.7,16.8-24.9,37.6-24.9s37.6,11.1,37.6,24.9
		C5735.5,2944.3,5718.7,2955.4,5697.9,2955.4z"/>
	<path class="st1" d="M5912.4,2956.1c-20.8,0-37.6-11.1-37.6-24.9c0-13.7,16.8-24.9,37.6-24.9c20.8,0,37.6,11.1,37.6,24.9
		C5950,2945,5933.2,2956.1,5912.4,2956.1z"/>
</g>
<g>
	<path class="st3" d="M6851.3,2566.5h-474.1c-46.6,0-84.4-37.8-84.4-84.4l0,0c0-46.6,37.8-84.4,84.4-84.4h474.1
		c46.6,0,84.4,37.8,84.4,84.4l0,0C6935.7,2528.7,6897.9,2566.5,6851.3,2566.5z"/>
	<path d="M6789.4,2600c0-4.4-5.4-7.9-12.1-7.9H6451c-6.7,0-12.1,3.6-12.1,7.9l0,0.2l-12.5,58.6H6802l-12.5-58.7V2600z"/>
	<path d="M6907.8,2397.6h-587.1c-15.4,0-27.9,8.3-27.9,18.4v218.8c0,10.1,12.6,18.4,27.9,18.4h92.9l12.6-58.9
		c0.1-6.3,7.9-11.4,17.4-11.4h341.3c9.6,0,17.3,5.1,17.4,11.4l12.6,58.9h92.9c15.4,0,27.9-8.3,27.9-18.4V2416
		C6935.7,2405.9,6923.1,2397.6,6907.8,2397.6z M6914.7,2547.2c0,5.8-7.2,10.6-16.1,10.6h-568.8c-8.8,0-16.1-4.8-16.1-10.6v-125.8
		c0-5.8,7.2-10.6,16.1-10.6h568.8c8.8,0,16.1,4.8,16.1,10.6V2547.2z"/>
	<path d="M6776.2,2457.9h-324c-3.7,0-6.7,2-6.7,4.4v52.4c0,2.4,3,4.4,6.7,4.4h324.1c3.7,0,6.7-2,6.7-4.4v-52.4
		C6782.9,2459.9,6779.9,2457.9,6776.2,2457.9z"/>
	<path class="st1" d="M6721.4,2513.2c-20.7,0-37.5-11.1-37.5-24.7s16.8-24.7,37.5-24.7c20.7,0,37.5,11.1,37.5,24.7
		C6758.9,2502.2,6742.1,2513.2,6721.4,2513.2z"/>
	<path class="st1" d="M6503,2513.2c-20.7,0-37.5-11.1-37.5-24.7s16.8-24.7,37.5-24.7s37.5,11.1,37.5,24.7
		C6540.5,2502.2,6523.7,2513.2,6503,2513.2z"/>
</g>
<g>
	<path class="st4" d="M6849,2144.7h-469.7c-47.8,0-86.6-38.8-86.6-86.6l0,0c0-47.8,38.8-86.6,86.6-86.6H6849
		c47.8,0,86.6,38.8,86.6,86.6l0,0C6935.7,2105.9,6896.9,2144.7,6849,2144.7z"/>
	<path d="M6789.5,2173.8c0-4.4-5.4-7.9-12.1-7.9H6451c-6.7,0-12.1,3.6-12.1,7.9l0,0.2l-12.5,58.6H6802l-12.5-58.7V2173.8z"/>
	<path d="M6907.8,1971.4h-587.1c-15.4,0-27.9,8.3-27.9,18.4v218.8c0,10.1,12.6,18.4,27.9,18.4h92.9l12.6-58.9
		c0.1-6.3,7.9-11.4,17.4-11.4h341.3c9.5,0,17.3,5.1,17.4,11.4l12.6,58.9h92.9c15.4,0,27.9-8.3,27.9-18.4v-218.8
		C6935.7,1979.7,6923.1,1971.4,6907.8,1971.4z M6914.7,2121c0,5.8-7.2,10.6-16.1,10.6h-568.8c-8.8,0-16.1-4.8-16.1-10.6v-125.8
		c0-5.8,7.2-10.6,16.1-10.6h568.8c8.8,0,16.1,4.8,16.1,10.6V2121z"/>
	<path d="M6776.2,2031.7h-324c-3.7,0-6.7,2-6.7,4.4v52.4c0,2.4,3,4.4,6.7,4.4h324.1c3.7,0,6.7-2,6.7-4.4v-52.4
		C6782.9,2033.7,6779.9,2031.7,6776.2,2031.7z"/>
	<path class="st1" d="M6505.3,2087c-20.7,0-37.5-11.1-37.5-24.7c0-13.6,16.8-24.7,37.5-24.7c20.7,0,37.5,11.1,37.5,24.7
		C6542.8,2076,6526,2087,6505.3,2087z"/>
	<path class="st1" d="M6719.2,2087.7c-20.7,0-37.5-11.1-37.5-24.7s16.8-24.7,37.5-24.7c20.7,0,37.5,11.1,37.5,24.7
		C6756.8,2076.7,6740,2087.7,6719.2,2087.7z"/>
</g>
<g>
	<path class="st3" d="M6848.4,3406.1h-459.7c-48.2,0-87.3-39.1-87.3-87.3v0c0-48.2,39.1-87.3,87.3-87.3h459.7
		c48.2,0,87.3,39.1,87.3,87.3v0C6935.7,3367,6896.6,3406.1,6848.4,3406.1z"/>
	<path d="M6789.5,3433.8c0-4.4-5.4-7.9-12.1-7.9H6451c-6.7,0-12.1,3.6-12.1,7.9l0,0.2l-12.5,58.6H6802l-12.5-58.7V3433.8z"/>
	<path d="M6907.8,3231.4h-587.1c-15.4,0-27.9,8.3-27.9,18.4v218.8c0,10.1,12.6,18.4,27.9,18.4h92.9l12.6-58.9
		c0.1-6.3,7.9-11.4,17.4-11.4h341.3c9.5,0,17.3,5.1,17.4,11.4l12.6,58.9h92.9c15.4,0,27.9-8.3,27.9-18.4v-218.8
		C6935.7,3239.7,6923.1,3231.4,6907.8,3231.4z M6914.7,3381c0,5.8-7.2,10.6-16.1,10.6h-568.8c-8.8,0-16.1-4.8-16.1-10.6v-125.8
		c0-5.8,7.2-10.6,16.1-10.6h568.8c8.8,0,16.1,4.8,16.1,10.6V3381z"/>
	<path d="M6776.2,3291.7h-324c-3.7,0-6.7,2-6.7,4.4v52.4c0,2.4,3,4.4,6.7,4.4h324.1c3.7,0,6.7-2,6.7-4.4v-52.4
		C6782.9,3293.7,6779.9,3291.7,6776.2,3291.7z"/>
	<path class="st1" d="M6721.4,3347c-20.7,0-37.5-11.1-37.5-24.7s16.8-24.7,37.5-24.7c20.7,0,37.5,11.1,37.5,24.7
		C6758.9,3336,6742.1,3347,6721.4,3347z"/>
	<path class="st1" d="M6503,3347c-20.7,0-37.5-11.1-37.5-24.7s16.8-24.7,37.5-24.7c20.7,0,37.5,11.1,37.5,24.7
		C6540.5,3336,6523.7,3347,6503,3347z"/>
</g>
<g>
	<path class="st4" d="M6849.6,2998.3h-470.8c-47.5,0-86.1-38.5-86.1-86.1v0c0-47.5,38.5-86.1,86.1-86.1h470.8
		c47.5,0,86.1,38.5,86.1,86.1v0C6935.7,2959.8,6897.1,2998.3,6849.6,2998.3z"/>
	<path d="M6789.5,3028.5c0-4.4-5.4-7.9-12.1-7.9H6451c-6.7,0-12.1,3.6-12.1,7.9l0,0.2l-12.5,58.6H6802l-12.5-58.7V3028.5z"/>
	<path d="M6907.8,2826.2h-587.1c-15.4,0-27.9,8.3-27.9,18.4v218.8c0,10.1,12.6,18.4,27.9,18.4h92.9l12.6-58.9
		c0.1-6.3,7.9-11.4,17.4-11.4h341.3c9.6,0,17.3,5.1,17.4,11.4l12.6,58.9h92.9c15.4,0,27.9-8.3,27.9-18.4v-218.8
		C6935.7,2834.5,6923.1,2826.2,6907.8,2826.2z M6914.7,2975.7c0,5.8-7.2,10.6-16.1,10.6h-568.8c-8.8,0-16.1-4.8-16.1-10.6v-125.8
		c0-5.8,7.2-10.6,16.1-10.6h568.8c8.8,0,16.1,4.8,16.1,10.6V2975.7z"/>
	<path d="M6776.2,2886.5h-324c-3.7,0-6.7,2-6.7,4.4v52.4c0,2.4,3,4.4,6.7,4.4h324.1c3.7,0,6.7-2,6.7-4.4v-52.4
		C6782.9,2888.5,6779.9,2886.5,6776.2,2886.5z"/>
	<path class="st1" d="M6505.3,2941.8c-20.7,0-37.5-11.1-37.5-24.7s16.8-24.7,37.5-24.7c20.7,0,37.5,11.1,37.5,24.7
		C6542.8,2930.8,6526,2941.8,6505.3,2941.8z"/>
	<path class="st1" d="M6719.2,2942.5c-20.7,0-37.5-11.1-37.5-24.7c0-13.6,16.8-24.7,37.5-24.7c20.7,0,37.5,11.1,37.5,24.7
		C6756.8,2931.4,6740,2942.5,6719.2,2942.5z"/>
</g>
</svg>
